<ttFont>
        <CharString name=".notdef">
          -152 endchar
        </CharString>
        <CharString name="A">
          68 19 -21 162 100 442 -20 hstem
          2 432 vstem
          267 698 rmoveto
          3 -14 -20 1 -19 hhcurveto
          -26 -16 -6 -15 -3 hvcurveto
          -167 -679 rlineto
          -3 26 30 -1 14 hhcurveto
          45 3 7 14 3 hvcurveto
          29 141 rlineto
          135 hlineto
          33 -160 rlineto
          -2 29 20 0 15 hhcurveto
          45 8 7 13 -3 hvcurveto
          -261 242 rmoveto
          20 94 11 54 9 73 7 62 rlinecurve
          6 -62 9 -73 11 -54 20 -94 rcurveline
          endchar
        </CharString>
        <CharString name="AE">
          214 0 99 61 100 68 102 171 99 hstem
          313 111 vstem
          424 99 rmoveto
          229 103 vlineto
          19 0 18 84 hvcurveto
          -122 171 129 hlineto
          20 0 10 89 hvcurveto
          -268 hlineto
          -17 -14 -4 -15 -5 hvcurveto
          -253 -679 rlineto
          -3 26 30 -1 14 hhcurveto
          39 7 7 14 5 hvcurveto
          48 141 rlineto
          128 -160 233 hlineto
          20 0 6 93 hvcurveto
          -253 161 rmoveto
          -95 hlineto
          31 91 22 65 25 91 17 76 rlinecurve
          endchar
        </CharString>
        <CharString name="Aacute">
          68 19 -21 162 100 442 -20 hstem
          2 432 vstem
          181 749 rmoveto
          11 1 103 68 25 28 rrcurveto
          37 -6 -20 45 -25 hhcurveto
          -12 -85 -71 -47 -34 hvcurveto
          0 14 -61 29 vhcurveto
          86 -51 rmoveto
          3 -14 -20 1 -19 hhcurveto
          -26 -16 -6 -15 -3 hvcurveto
          -167 -679 rlineto
          -3 26 30 -1 14 hhcurveto
          45 3 7 14 3 hvcurveto
          29 141 rlineto
          135 hlineto
          33 -160 rlineto
          -2 29 20 0 15 hhcurveto
          45 8 7 13 -3 hvcurveto
          -261 242 rmoveto
          20 94 11 54 9 73 7 62 rlinecurve
          6 -62 9 -73 11 -54 20 -94 rcurveline
          endchar
        </CharString>
        <CharString name="Abreve">
          68 19 -21 162 100 442 -20 60 106 hstem
          2 432 vstem
          213 742 rmoveto
          74 45 46 67 25 hvcurveto
          -7 36 -45 43 -21 -32 rrcurveto
          -24 -14 -17 -30 -39 hhcurveto
          -39 -26 41 28 -11 hvcurveto
          -43 -17 -14 -18 -28 vvcurveto
          -55 69 -57 63 vhcurveto
          54 -44 rmoveto
          3 -14 -20 1 -19 hhcurveto
          -26 -16 -6 -15 -3 hvcurveto
          -167 -679 rlineto
          -3 26 30 -1 14 hhcurveto
          45 3 7 14 3 hvcurveto
          29 141 rlineto
          135 hlineto
          33 -160 rlineto
          -2 29 20 0 15 hhcurveto
          45 8 7 13 -3 hvcurveto
          -261 242 rmoveto
          20 94 11 54 9 73 7 62 rlinecurve
          6 -62 9 -73 11 -54 20 -94 rcurveline
          endchar
        </CharString>
        <CharString name="Acircumflex">
          68 19 -21 162 100 442 -20 hstem
          2 432 vstem
          85 780 rmoveto
          -21 17 24 -8 35 hhcurveto
          23 39 68 0 hvcurveto
          20 -38 33 -31 0 vvcurveto
          38 39 5 22 26 -98 100 0 hvcurveto
          10 -9 -12 4 -10 hhcurveto
          -8 -7 -1 -2 -7 hvcurveto
          65 -216 rmoveto
          3 -14 -20 1 -19 hhcurveto
          -26 -16 -6 -15 -3 hvcurveto
          -167 -679 rlineto
          -3 26 30 -1 14 hhcurveto
          45 3 7 14 3 hvcurveto
          29 141 rlineto
          135 hlineto
          33 -160 rlineto
          -2 29 20 0 15 hhcurveto
          45 8 7 13 -3 hvcurveto
          -261 242 rmoveto
          20 94 11 54 9 73 7 62 rlinecurve
          6 -62 9 -73 11 -54 20 -94 rcurveline
          endchar
        </CharString>
        <CharString name="Acy">
          68 19 -21 162 100 442 -20 hstem
          2 432 vstem
          267 698 rmoveto
          3 -14 -20 1 -19 hhcurveto
          -26 -16 -6 -15 -3 hvcurveto
          -167 -679 rlineto
          -3 26 30 -1 14 hhcurveto
          45 3 7 14 3 hvcurveto
          29 141 rlineto
          135 hlineto
          33 -160 rlineto
          -2 29 20 0 15 hhcurveto
          45 8 7 13 -3 hvcurveto
          -261 242 rmoveto
          20 94 11 54 9 73 7 62 rlinecurve
          6 -62 9 -73 11 -54 20 -94 rcurveline
          endchar
        </CharString>
        <CharString name="Adieresis">
          68 19 -21 162 100 442 -20 hstem
          101 108 vstem
          267 698 rmoveto
          3 -14 -20 1 -19 hhcurveto
          -26 -16 -6 -15 -3 hvcurveto
          -167 -679 rlineto
          -3 26 30 -1 14 hhcurveto
          45 3 7 14 3 hvcurveto
          29 141 rlineto
          135 hlineto
          33 -160 rlineto
          -2 29 20 0 15 hhcurveto
          45 8 7 13 -3 hvcurveto
          -261 242 rmoveto
          20 94 11 54 9 73 7 62 rlinecurve
          6 -62 9 -73 11 -54 20 -94 rcurveline
          -115 490 rmoveto
          38 20 29 52 51 -12 18 -39 -40 -17 -30 -44 -59 19 -17 31 hvcurveto
          130 hmoveto
          37 19 29 52 51 -11 18 -38 -40 -19 -30 -44 -59 20 -17 32 hvcurveto
          endchar
        </CharString>
        <CharString name="Agrave">
          68 19 -21 162 100 442 -20 hstem
          2 432 vstem
          277 739 rmoveto
          29 14 61 0 hvcurveto
          47 -35 -85 71 -11 hhcurveto
          -25 -20 -45 -36 -6 hvcurveto
          25 -29 102 -68 12 -1 rrcurveto
          -10 -41 rmoveto
          3 -14 -20 1 -19 hhcurveto
          -26 -16 -6 -15 -3 hvcurveto
          -167 -679 rlineto
          -3 26 30 -1 14 hhcurveto
          45 3 7 14 3 hvcurveto
          29 141 rlineto
          135 hlineto
          33 -160 rlineto
          -2 29 20 0 15 hhcurveto
          45 8 7 13 -3 hvcurveto
          -261 242 rmoveto
          20 94 11 54 9 73 7 62 rlinecurve
          6 -62 9 -73 11 -54 20 -94 rcurveline
          endchar
        </CharString>
        <CharString name="Amacron">
          68 19 -21 162 100 442 -20 86 104 hstem
          2 432 vstem
          318 768 rmoveto
          26 16 24 33 15 -3 16 -8 16 hvcurveto
          -226 hlineto
          -28 -17 -23 -32 -16 1 -15 7 -18 hvcurveto
          181 -70 rmoveto
          3 -14 -20 1 -19 hhcurveto
          -26 -16 -6 -15 -3 hvcurveto
          -167 -679 rlineto
          -3 26 30 -1 14 hhcurveto
          45 3 7 14 3 hvcurveto
          29 141 rlineto
          135 hlineto
          33 -160 rlineto
          -2 29 20 0 15 hhcurveto
          45 8 7 13 -3 hvcurveto
          -261 242 rmoveto
          20 94 11 54 9 73 7 62 rlinecurve
          6 -62 9 -73 11 -54 20 -94 rcurveline
          endchar
        </CharString>
        <CharString name="Aogonek">
          68 -195 77 137 -21 162 100 442 -20 hstem
          271 99 vstem
          2 2 rmoveto
          -3 26 30 -1 14 hhcurveto
          45 3 7 14 3 hvcurveto
          29 141 rlineto
          135 hlineto
          33 -159 rlineto
          -27 -25 -22 -39 -43 vvcurveto
          -70 41 -19 48 41 30 11 30 10 -4 19 -7 14 vhcurveto
          -5 -7 -8 -2 -10 hhcurveto
          -18 -7 10 18 33 25 31 25 23 hvcurveto
          9 8 4 6 8 vvcurveto
          4 -1 3 -1 5 vhcurveto
          -164 667 rlineto
          3 -14 -20 1 -19 hhcurveto
          -26 -16 -6 -15 -3 hvcurveto
          97 -421 rmoveto
          -93 hlineto
          20 94 11 54 9 73 7 62 rlinecurve
          6 -62 9 -73 11 -54 rrcurveto
          endchar
        </CharString>
        <CharString name="Aring">
          68 19 -21 162 100 442 -20 184 72 hstem
          115 76 58 74 vstem
          216 729 rmoveto
          70 37 34 72 80 -32 23 -69 -67 -40 -32 -73 -81 34 -23 67 hvcurveto
          7 137 rmoveto
          17 9 -11 -21 -26 -13 -7 -18 -18 -9 11 21 22 11 11 21 hvcurveto
          44 -168 rmoveto
          3 -14 -20 1 -19 hhcurveto
          -26 -16 -6 -15 -3 hvcurveto
          -167 -679 rlineto
          -3 26 30 -1 14 hhcurveto
          45 3 7 14 3 hvcurveto
          29 141 rlineto
          135 hlineto
          33 -160 rlineto
          -2 29 20 0 15 hhcurveto
          45 8 7 13 -3 hvcurveto
          -261 242 rmoveto
          20 94 11 54 9 73 7 62 rlinecurve
          6 -62 9 -73 11 -54 20 -94 rcurveline
          endchar
        </CharString>
        <CharString name="Atilde">
          68 19 -21 162 100 442 -20 hstem
          2 432 vstem
          120 756 rmoveto
          15 8 32 31 38 -9 -42 50 hhcurveto
          63 55 74 0 0 -15 62 -21 hvcurveto
          -19 2 -31 -43 -37 -4 43 -41 hhcurveto
          -36 -54 -24 -59 -36 hvcurveto
          0 22 -55 31 vhcurveto
          147 -58 rmoveto
          3 -14 -20 1 -19 hhcurveto
          -26 -16 -6 -15 -3 hvcurveto
          -167 -679 rlineto
          -3 26 30 -1 14 hhcurveto
          45 3 7 14 3 hvcurveto
          29 141 rlineto
          135 hlineto
          33 -160 rlineto
          -2 29 20 0 15 hhcurveto
          45 8 7 13 -3 hvcurveto
          -261 242 rmoveto
          20 94 11 54 9 73 7 62 rlinecurve
          6 -62 9 -73 11 -54 20 -94 rcurveline
          endchar
        </CharString>
        <CharString name="B">
          -10 0 96 234 94 179 97 hstem
          30 113 73 132 vstem
          30 hmoveto
          131 hlineto
          134 53 105 133 117 -66 23 -49 5 hvcurveto
          44 6 48 52 102 vvcurveto
          130 -85 27 -84 vhcurveto
          -98 hlineto
          -22 -6 -7 -13 hvcurveto
          113 -256 rmoveto
          179 24 vlineto
          19 17 -13 -71 -57 -15 -38 -25 hvcurveto
          -20 -328 rmoveto
          234 23 vlineto
          32 18 -11 -91 -83 -20 -49 -32 hvcurveto
          endchar
        </CharString>
        <CharString name="Becy">
          5 0 97 224 104 171 104 hstem
          45 113 62 132 vstem
          65 700 rmoveto
          -19 -1 -20 0 hvcurveto
          -680 136 vlineto
          99 72 83 160 125 -44 57 -120 hvcurveto
          -30 171 145 hlineto
          20 0 5 99 hvcurveto
          -165 -379 rmoveto
          23 hlineto
          34 5 -17 -72 -109 -10 -26 -31 -10 -5 0 2 -6 hvcurveto
          endchar
        </CharString>
        <CharString name="C">
          -44 -10 124 487 109 hstem
          20 117 vstem
          220 710 rmoveto
          -90 -110 -55 -328 -281 55 -56 112 76 46 27 47 24 -7 25 -8 16 hvcurveto
          -10 -19 -28 -5 -31 hhcurveto
          -56 -23 47 175 219 53 46 57 22 18 -8 -9 12 hvcurveto
          8 17 8 23 27 vvcurveto
          30 -10 29 -85 vhcurveto
          endchar
        </CharString>
        <CharString name="CR">
          -228 endchar
        </CharString>
        <CharString name="Cacute">
          -44 -10 124 487 109 hstem
          20 117 vstem
          155 749 rmoveto
          12 1 102 68 25 28 rrcurveto
          37 -6 -20 45 -25 hhcurveto
          -11 -85 -71 -47 -35 hvcurveto
          0 14 -61 29 vhcurveto
          65 -39 rmoveto
          -90 -110 -55 -328 -281 55 -56 112 76 46 27 47 24 -7 25 -8 16 hvcurveto
          -10 -19 -28 -5 -31 hhcurveto
          -56 -23 47 175 219 53 46 57 22 18 -8 -9 12 hvcurveto
          8 17 8 23 27 vvcurveto
          30 -10 29 -85 vhcurveto
          endchar
        </CharString>
        <CharString name="Ccaron">
          -44 -10 124 487 109 hstem
          20 117 vstem
          199 742 rmoveto
          19 94 99 25 16 -17 18 -27 14 hvcurveto
          0 -30 -16 -34 -53 vhcurveto
          0 -58 75 -23 -15 -22 -38 -32 -11 vhcurveto
          -32 22 79 -76 23 hhcurveto
          21 -32 rmoveto
          -90 -110 -55 -328 -281 55 -56 112 76 46 27 47 24 -7 25 -8 16 hvcurveto
          -10 -19 -28 -5 -31 hhcurveto
          -56 -23 47 175 219 53 46 57 22 18 -8 -9 12 hvcurveto
          8 17 8 23 27 vvcurveto
          30 -10 29 -85 vhcurveto
          endchar
        </CharString>
        <CharString name="Ccedilla">
          -44 -221 53 64 47 70 -21 609 109 hstem
          20 117 vstem
          141 -110 rmoveto
          0 14 6 30 19 8 -11 -21 -17 -6 -15 -23 -22 -17 20 -7 -6 vhcurveto
          -7 -7 -9 -44 0 vvcurveto
          0 26 -15 33 57 33 43 50 50 -25 21 -26 vhcurveto
          -16 hlineto
          9 48 rlineto
          61 6 35 26 41 vvcurveto
          24 -7 25 -8 16 vhcurveto
          -10 -19 -28 -5 -31 hhcurveto
          -56 -23 47 175 219 53 46 57 22 18 -8 -9 12 hvcurveto
          8 17 8 23 27 vvcurveto
          30 -10 29 -85 -90 -110 -55 -328 -255 45 -70 93 -10 vhcurveto
          endchar
        </CharString>
        <CharString name="Checy">
          1 21 -21 260 101 339 -20 hstem
          25 109 80 110 vstem
          324 700 rmoveto
          -108 -2 0 -20 hvcurveto
          -309 vlineto
          -6 -14 -15 -4 -15 hhcurveto
          -22 -14 24 73 hvcurveto
          242 vlineto
          -108 -1 0 -20 hvcurveto
          -236 vlineto
          -136 34 -48 81 25 18 3 8 31 vhcurveto
          -271 vlineto
          109 1 0 20 hvcurveto
          endchar
        </CharString>
        <CharString name="D">
          -8 0 105 494 101 hstem
          30 111 82 127 vstem
          58 700 rmoveto
          -22 -6 -7 -13 hvcurveto
          -680 129 vlineto
          135 56 117 268 257 -63 58 -133 hvcurveto
          -13 -595 rmoveto
          494 20 vlineto
          37 25 -23 -179 -255 -29 -37 -32 hvcurveto
          endchar
        </CharString>
        <CharString name="Dcaron">
          -8 0 105 494 101 hstem
          30 111 82 127 vstem
          178 742 rmoveto
          19 94 99 25 16 -17 18 -27 14 hvcurveto
          0 -30 -16 -34 -53 vhcurveto
          0 -58 75 -23 -16 -21 -38 -32 -11 vhcurveto
          -32 21 80 -76 23 hhcurveto
          -120 -42 rmoveto
          -22 -6 -7 -13 hvcurveto
          -680 129 vlineto
          135 56 117 268 257 -63 58 -133 hvcurveto
          -13 -595 rmoveto
          494 20 vlineto
          37 25 -23 -179 -255 -29 -37 -32 hvcurveto
          endchar
        </CharString>
        <CharString name="Dcroat">
          -8 0 105 494 101 68 104 hstem
          30 111 82 127 vstem
          271 768 rmoveto
          26 16 24 33 15 -3 16 -8 16 hvcurveto
          -226 hlineto
          -28 -17 -23 -32 -16 1 -15 7 -18 hvcurveto
          19 -68 rmoveto
          -22 -6 -7 -13 hvcurveto
          -680 129 vlineto
          135 56 117 268 257 -63 58 -133 hvcurveto
          -13 -595 rmoveto
          494 20 vlineto
          37 25 -23 -179 -255 -29 -37 -32 hvcurveto
          endchar
        </CharString>
        <CharString name="Decy">
          88 0 104 492 104 hstem
          15 97 174 111 vstem
          447 104 rmoveto
          -50 596 -202 hlineto
          -71 0 0 -20 -1 hvcurveto
          -536 -29 -12 -40 -48 hhcurveto
          -19 -229 hlineto
          -28 11 -4 55 vhcurveto
          14 53 13 45 4 59 rrcurveto
          238 hlineto
          4 -59 12 -45 14 -53 rrcurveto
          56 11 4 28 hvcurveto
          -161 721 rmoveto
          -492 -120 vlineto
          31 84 15 147 17 261 rrcurveto
          endchar
        </CharString>
        <CharString name="Delta">
          44 0 104 600 -20 hstem
          19 374 vstem
          19 hmoveto
          374 hlineto
          -119 686 rlineto
          9 -11 -18 9 -31 hhcurveto
          -24 -40 -9 -59 -10 hvcurveto
          2 -532 rmoveto
          65 453 rlineto
          5 hlineto
          62 -453 rlineto
          endchar
        </CharString>
        <CharString name="Djecy">
          97 21 -21 415 96 85 104 hstem
          132 111 73 115 vstem
          370 700 rmoveto
          -340 hlineto
          -14 -6 -6 -14 hvcurveto
          -84 122 -596 vlineto
          109 2 0 20 hvcurveto
          387 vlineto
          6 13 14 2 13 hhcurveto
          28 5 -16 -53 hvcurveto
          -141 vlineto
          -74 -3 -27 -16 -5 -7 1 3 -7 vhcurveto
          -7 -14 -3 -16 -14 vvcurveto
          -38 19 -34 56 67 21 74 118 vhcurveto
          196 vlineto
          100 -57 31 -62 -23 -24 -5 -7 -22 vhcurveto
          97 107 vlineto
          14 6 4 16 hvcurveto
          endchar
        </CharString>
        <CharString name="Dzecy">
          -25 -10 114 508 98 hstem
          15 121 72 121 vstem
          163 289 rmoveto
          35 -47 10 -26 -34 vvcurveto
          -48 -18 -30 -56 -36 -36 14 19 -21 vhcurveto
          -17 -26 -8 -32 -22 vvcurveto
          -35 41 -32 90 145 37 95 100 57 -12 44 -48 62 vhcurveto
          -96 123 rlineto
          -27 36 -10 22 31 vvcurveto
          36 31 16 49 38 38 -12 -8 11 vhcurveto
          19 21 7 22 19 vvcurveto
          35 -35 21 -101 -118 -60 -63 -90 -44 11 -42 46 -61 vhcurveto
          endchar
        </CharString>
        <CharString name="Dzhecy">
          35 0 104 596 -20 hstem
          45 111 91 111 vstem
          247 104 rmoveto
          -91 596 hlineto
          -110 -1 0 -20 hvcurveto
          -680 109 vlineto
          4 -59 13 -45 14 -53 rrcurveto
          55 11 4 28 hvcurveto
          125 73 vlineto
          29 5 2 18 hvcurveto
          680 vlineto
          -110 -1 0 -20 hvcurveto
          endchar
        </CharString>
        <CharString name="E">
          -68 0 99 229 102 171 99 hstem
          30 111 vstem
          141 99 rmoveto
          229 104 vlineto
          18 0 18 84 hvcurveto
          -122 171 129 hlineto
          20 0 10 89 hvcurveto
          -240 hlineto
          -19 -1 -20 0 hvcurveto
          -680 234 vlineto
          19 0 6 93 hvcurveto
          endchar
        </CharString>
        <CharString name="Eacute">
          -68 0 99 229 102 171 99 hstem
          30 111 vstem
          117 749 rmoveto
          12 1 102 68 25 28 rrcurveto
          37 -6 -20 45 -24 hhcurveto
          -12 -85 -71 -47 -34 hvcurveto
          0 13 -61 29 vhcurveto
          24 -421 rmoveto
          104 hlineto
          18 0 18 84 hvcurveto
          -122 171 129 hlineto
          20 0 10 89 hvcurveto
          -240 hlineto
          -19 -1 -20 0 hvcurveto
          -680 234 vlineto
          19 0 6 93 hvcurveto
          -142 hlineto
          endchar
        </CharString>
        <CharString name="Ecaron">
          -68 0 99 229 102 171 99 hstem
          30 111 vstem
          161 742 rmoveto
          19 94 99 25 16 -17 18 -27 14 hvcurveto
          0 -30 -16 -34 -53 vhcurveto
          0 -58 75 -22 -16 -22 -38 -32 -11 vhcurveto
          -32 22 79 -76 23 hhcurveto
          -20 -414 rmoveto
          104 hlineto
          18 0 18 84 hvcurveto
          -122 171 129 hlineto
          20 0 10 89 hvcurveto
          -240 hlineto
          -19 -1 -20 0 hvcurveto
          -680 234 vlineto
          19 0 6 93 hvcurveto
          -142 hlineto
          endchar
        </CharString>
        <CharString name="Ecircumflex">
          -68 0 99 229 102 171 99 hstem
          30 111 vstem
          22 780 rmoveto
          -21 17 23 -8 35 hhcurveto
          24 38 68 0 hvcurveto
          20 -38 34 -31 0 vvcurveto
          38 38 5 22 26 -98 100 0 hvcurveto
          10 -9 -12 4 -10 hhcurveto
          -7 -7 -1 -2 -7 hvcurveto
          2 -586 rmoveto
          104 hlineto
          18 0 18 84 hvcurveto
          -122 171 129 hlineto
          20 0 10 89 hvcurveto
          -240 hlineto
          -19 -1 -20 0 hvcurveto
          -680 234 vlineto
          19 0 6 93 hvcurveto
          -142 hlineto
          endchar
        </CharString>
        <CharString name="Ecy">
          -33 -10 124 188 101 198 109 hstem
          30 118 vstem
          259 302 rmoveto
          21 0 17 84 hvcurveto
          -132 hlineto
          186 5 43 12 54 hhcurveto
          22 18 -8 -9 12 hvcurveto
          10 17 6 22 26 vvcurveto
          32 -29 29 -79 -96 -84 -58 -291 -312 70 -59 113 67 46 30 40 25 -7 25 -9 21 vhcurveto
          -12 -34 -26 -5 -24 hhcurveto
          -48 -24 58 130 -5 hvcurveto
          endchar
        </CharString>
        <CharString name="Edieresis">
          -68 0 99 229 102 171 99 hstem
          30 111 vstem
          88 750 rmoveto
          37 20 29 52 51 -12 18 -38 -40 -18 -30 -44 -59 20 -17 31 hvcurveto
          129 hmoveto
          37 20 29 52 51 -11 18 -39 -39 -19 -30 -44 -59 20 -17 31 hvcurveto
          -76 -651 rmoveto
          229 104 vlineto
          18 0 18 84 hvcurveto
          -122 171 129 hlineto
          20 0 10 89 hvcurveto
          -240 hlineto
          -19 -1 -20 0 hvcurveto
          -680 234 vlineto
          19 0 6 93 hvcurveto
          endchar
        </CharString>
        <CharString name="Edotaccent">
          -68 0 99 229 102 171 99 hstem
          30 111 vstem
          152 746 rmoveto
          39 21 32 53 54 -12 19 -41 -41 -19 -32 -46 -62 21 -18 32 hvcurveto
          -11 -647 rmoveto
          229 104 vlineto
          18 0 18 84 hvcurveto
          -122 171 129 hlineto
          20 0 10 89 hvcurveto
          -240 hlineto
          -19 -1 -20 0 hvcurveto
          -680 234 vlineto
          19 0 6 93 hvcurveto
          endchar
        </CharString>
        <CharString name="Efcy">
          202 11 -21 755 -20 hstem
          30 116 84 110 81 120 vstem
          341 745 rmoveto
          -111 -1 0 -49 hvcurveto
          -39 vlineto
          -140 -27 -59 -111 -153 vvcurveto
          -173 51 -109 149 -19 vhcurveto
          -75 vlineto
          112 -1 0 39 hvcurveto
          40 vlineto
          136 25 64 110 165 vvcurveto
          161 -56 104 -144 25 vhcurveto
          -1 -102 rmoveto
          67 -12 14 -80 -98 vvcurveto
          -95 -20 -86 -61 -14 vhcurveto
          -110 -4 rmoveto
          -64 11 -20 81 94 vvcurveto
          100 22 87 62 14 vhcurveto
          endchar
        </CharString>
        <CharString name="Egrave">
          -68 0 99 229 102 171 99 hstem
          30 111 vstem
          214 739 rmoveto
          28 14 61 0 hvcurveto
          47 -34 -85 71 -12 hhcurveto
          -25 -20 -45 -36 -5 hvcurveto
          24 -29 103 -68 12 -1 rrcurveto
          -73 -411 rmoveto
          104 hlineto
          18 0 18 84 hvcurveto
          -122 171 129 hlineto
          20 0 10 89 hvcurveto
          -240 hlineto
          -19 -1 -20 0 hvcurveto
          -680 234 vlineto
          19 0 6 93 hvcurveto
          -142 hlineto
          endchar
        </CharString>
        <CharString name="Elcy">
          55 21 -21 596 104 hstem
          268 111 vstem
          379 700 rmoveto
          -178 hlineto
          -92 -3 -5 -28 -1 hvcurveto
          -18 -433 -8 -153 -77 -1 rrcurveto
          -1 -8 -1 -7 -7 vvcurveto
          -48 27 -21 37 94 34 188 419 18 vhcurveto
          58 -596 hlineto
          111 0 0 20 hvcurveto
          endchar
        </CharString>
        <CharString name="Emacron">
          -68 0 99 229 102 171 99 68 104 hstem
          30 111 vstem
          59 872 rmoveto
          -27 -17 -23 -32 -16 1 -15 7 -18 hvcurveto
          232 hlineto
          25 16 24 33 15 -3 16 -8 16 hvcurveto
          -144 -271 rmoveto
          129 hlineto
          20 0 10 89 hvcurveto
          -240 hlineto
          -19 -1 -20 0 hvcurveto
          -680 234 vlineto
          19 0 6 93 hvcurveto
          -142 229 104 hlineto
          18 0 18 84 hvcurveto
          -122 hlineto
          endchar
        </CharString>
        <CharString name="Emcy">
          138 21 -21 700 -20 hstem
          45 110 195.5 111.5 vstem
          280 450 rmoveto
          -18 -58 -6 -41 0 vvcurveto
          0 -7 40 -20 61 vhcurveto
          -80 248 rlineto
          -84 hlineto
          -11 -9 0 -20 hvcurveto
          -680 vlineto
          103 7 0 20 hvcurveto
          -3 173 rlineto
          -2 162 -26 136 0 vvcurveto
          3 2 17 -69 23 -89 9 -28 rlinecurve
          47 -140 rlineto
          46 hlineto
          4 5 1 6 2 hvcurveto
          48 133 11 30 23 88 17 68 rlinecurve
          3 -2 rlineto
          0 -25 -139 -4 -160 vhcurveto
          -5 -192 rlineto
          114 0 0 20 hvcurveto
          680 -93 vlineto
          -12 -3 -5 -15 -5 hvcurveto
          endchar
        </CharString>
        <CharString name="Ency">
          42 21 -21 321 104 275 -20 hstem
          45 111 98 111 vstem
          365 700 rmoveto
          -113 2 0 -20 hvcurveto
          -255 -98 275 vlineto
          -113 2 0 -20 hvcurveto
          -680 vlineto
          113 -2 0 20 hvcurveto
          301 98 -321 vlineto
          113 -2 0 20 hvcurveto
          endchar
        </CharString>
        <CharString name="Endescendercy">
          48 0 104 217 104 275 -20 hstem
          31 111 98 111 vstem
          401 104 rmoveto
          -50 596 hlineto
          -113 2 0 -20 hvcurveto
          -255 -98 275 vlineto
          -113 2 0 -20 hvcurveto
          -680 vlineto
          113 -2 0 20 hvcurveto
          301 98 -321 64 vlineto
          4 -59 13 -45 14 -53 rrcurveto
          55 11 4 28 hvcurveto
          endchar
        </CharString>
        <CharString name="Eogonek">
          -68 -195 77 118 99 229 102 171 99 hstem
          30 111 vstem
          141 99 rmoveto
          229 104 vlineto
          18 0 18 84 hvcurveto
          -122 171 129 hlineto
          20 0 10 89 hvcurveto
          -240 hlineto
          -19 -1 -20 0 hvcurveto
          -680 134 vlineto
          -25 -25 -22 -37 -44 vvcurveto
          -70 41 -19 48 41 29 11 30 10 -3 19 -7 14 vhcurveto
          -5 -8 -8 -2 -10 hhcurveto
          -18 -7 9 19 34 31 34 21 17 hvcurveto
          15 13 1 1 90 vvcurveto
          endchar
        </CharString>
        <CharString name="Ercy">
          -20 21 -21 270 103 231 96 hstem
          30 111 73 125 vstem
          58 700 rmoveto
          -8 hlineto
          -17 -3 -6 -14 hvcurveto
          -680 vlineto
          110 1 0 20 hvcurveto
          250 8 vlineto
          94 96 44 180 163 -69 43 -126 hvcurveto
          -3 -327 rmoveto
          231 28 vlineto
          32 13 -32 -64 -112 -20 -23 -32 hvcurveto
          endchar
        </CharString>
        <CharString name="Ereversedcy">
          -25 -10 124 188 101 198 109 hstem
          196 118 vstem
          64 403 rmoveto
          -84 0 -17 19 vhcurveto
          112 hlineto
          -130 -5 -26 -58 -49 hhcurveto
          -27 -26 6 12 -30 hvcurveto
          -10 -26 -7 -22 -29 vvcurveto
          -36 53 -29 60 114 72 59 312 291 -82 58 -96 -79 -29 -29 -32 -25 6 -23 10 -17 vhcurveto
          9 12 22 8 24 hhcurveto
          49 40 -11 -187 5 hvcurveto
          endchar
        </CharString>
        <CharString name="Escy">
          -44 -10 124 487 109 hstem
          20 117 vstem
          220 710 rmoveto
          -90 -110 -55 -328 -281 55 -56 112 76 46 27 47 24 -7 25 -8 16 hvcurveto
          -10 -19 -28 -5 -31 hhcurveto
          -56 -23 47 175 219 53 46 57 22 18 -8 -9 12 hvcurveto
          8 17 8 23 27 vvcurveto
          30 -10 29 -85 vhcurveto
          endchar
        </CharString>
        <CharString name="Eth">
          -8 0 105 210 96 188 101 hstem
          30 111 82 127 vstem
          58 700 rmoveto
          -22 -6 -7 -13 hvcurveto
          -269 -14 vlineto
          -20 0 -30 -66 hvcurveto
          34 -315 129 hlineto
          135 56 117 280 245 -63 58 -133 hvcurveto
          -13 -595 rmoveto
          210 32 vlineto
          19 0 30 66 hvcurveto
          -51 188 20 hlineto
          37 25 -23 -179 -255 -29 -37 -32 hvcurveto
          endchar
        </CharString>
        <CharString name="F">
          -73 0 20 309 101 176 94 hstem
          30 111 vstem
          50 700 rmoveto
          -19 -1 -20 0 hvcurveto
          -680 94 vlineto
          16 2 14 4 1 -1 1 0 hvcurveto
          309 104 vlineto
          18 0 17 84 hvcurveto
          -122 176 129 hlineto
          20 0 5 89 hvcurveto
          endchar
        </CharString>
        <CharString name="G">
          1 -10 109 234 92 176 109 hstem
          20 120 105 103 vstem
          348 425 rmoveto
          -126 hlineto
          -16 -8 -7 -13 hvcurveto
          -72 47 -224 vlineto
          -5 -4 -8 -5 -21 hhcurveto
          -54 -18 32 205 193 23 72 101 26 30 -8 -12 15 hvcurveto
          7 20 7 25 26 vvcurveto
          30 -37 28 -72 -139 -81 -61 -322 -268 40 -69 150 58 48 10 21 32 vhcurveto
          endchar
        </CharString>
        <CharString name="Gamma">
          -62 21 -21 606 94 hstem
          45 111 vstem
          45 hmoveto
          93 hlineto
          18 0 20 0 hvcurveto
          586 121 vlineto
          20 0 5 89 hvcurveto
          -232 hlineto
          -19 -1 -20 0 hvcurveto
          endchar
        </CharString>
        <CharString name="Gbreve">
          1 -10 109 234 92 176 109 32 106 hstem
          20 120 105 103 vstem
          136 917 rmoveto
          -43 -17 -14 -18 -28 vvcurveto
          -55 69 -57 63 74 45 46 67 25 vhcurveto
          -7 36 -45 43 -21 -32 rrcurveto
          -24 -14 -17 -30 -39 hhcurveto
          -39 -26 41 28 -11 hvcurveto
          212 -492 rmoveto
          -126 hlineto
          -16 -8 -7 -13 hvcurveto
          -72 47 -224 vlineto
          -5 -4 -8 -5 -21 hhcurveto
          -54 -18 32 205 193 23 72 101 26 30 -8 -12 15 hvcurveto
          7 20 7 25 26 vvcurveto
          30 -37 28 -72 -139 -81 -61 -322 -268 40 -69 150 58 48 10 21 32 vhcurveto
          endchar
        </CharString>
        <CharString name="Gcommaaccent">
          1 -10 109 234 92 176 109 hstem
          20 120 105 103 vstem
          348 425 rmoveto
          -126 hlineto
          -16 -8 -7 -13 hvcurveto
          -72 47 -224 vlineto
          -5 -4 -8 -5 -21 hhcurveto
          -54 -18 32 205 193 23 72 101 26 30 -8 -12 15 hvcurveto
          7 20 7 25 26 vvcurveto
          30 -37 28 -72 -139 -81 -61 -322 -268 40 -69 150 58 48 10 21 32 vhcurveto
          -204 -123 rmoveto
          -27 6 -20 22 -13 vhcurveto
          -4 -26 0 -10 -23 -39 rrcurveto
          -24 6 16 -5 20 hhcurveto
          20 71 73 83 47 -25 26 -45 -37 -27 -29 -36 hvcurveto
          endchar
        </CharString>
        <CharString name="Gecy">
          -62 21 -21 606 94 hstem
          45 111 vstem
          45 hmoveto
          93 hlineto
          18 0 20 0 hvcurveto
          586 121 vlineto
          20 0 5 89 hvcurveto
          -232 hlineto
          -19 -1 -20 0 hvcurveto
          endchar
        </CharString>
        <CharString name="Gheupturncy">
          -62 21 -21 606 94 hstem
          45 111 vstem
          65 700 rmoveto
          -19 -1 -20 0 hvcurveto
          -680 93 vlineto
          18 0 20 0 hvcurveto
          586 121 vlineto
          20 0 5 89 hvcurveto
          85 vlineto
          28 -11 4 -46 vhcurveto
          -15 -41 -10 -33 -7 -43 rrcurveto
          endchar
        </CharString>
        <CharString name="Gjecy">
          -62 21 -21 606 94 hstem
          45 111 vstem
          153 749 rmoveto
          12 1 102 68 25 28 rrcurveto
          37 -6 -20 45 -24 hhcurveto
          -12 -85 -71 -47 -35 hvcurveto
          0 14 -61 29 vhcurveto
          -108 -749 rmoveto
          93 hlineto
          18 0 20 0 hvcurveto
          586 121 vlineto
          20 0 5 89 hvcurveto
          -232 hlineto
          -19 -1 -20 0 hvcurveto
          endchar
        </CharString>
        <CharString name="H">
          14 21 -21 321 104 275 -20 hstem
          31 111 98 111 vstem
          351 700 rmoveto
          -113 2 0 -20 hvcurveto
          -255 -98 275 vlineto
          -113 2 0 -20 hvcurveto
          -680 vlineto
          113 -2 0 20 hvcurveto
          301 98 -321 vlineto
          113 -2 0 20 hvcurveto
          endchar
        </CharString>
        <CharString name="Hacy">
          52 21 -21 700 -20 hstem
          7 404 vstem
          285 373 rmoveto
          112 327 rlineto
          -113 0 0 -18 -5 hvcurveto
          -26 -87 -12 -40 -10 -43 -7 -32 rlinecurve
          -7 32 -9 43 -12 40 -29 105 rcurveline
          -130 -9 0 -19 6 hvcurveto
          109 -322 -136 -359 rlineto
          96 hlineto
          12 5 3 11 6 hvcurveto
          39 103 15 40 13 45 9 34 rlinecurve
          9 -34 13 -45 13 -40 38 -117 rcurveline
          123 hlineto
          14 2 6 10 -5 hvcurveto
          endchar
        </CharString>
        <CharString name="Hardsigncy">
          71 0 97 224 104 171 104 hstem
          116 111 62 131 vstem
          227 425 rmoveto
          275 -186 vlineto
          -21 -5 -12 -17 hvcurveto
          -75 101 -596 133 vlineto
          100 71 83 160 125 -44 57 -120 hvcurveto
          -29 -104 rmoveto
          23 hlineto
          34 5 -17 -72 -109 -10 -26 -31 -11 -5 0 2 -5 hvcurveto
          endchar
        </CharString>
        <CharString name="I">
          -195 21 -21 700 -20 hstem
          30 113 vstem
          30 hmoveto
          112 1 0 20 hvcurveto
          680 vlineto
          -111 -2 0 -49 hvcurveto
          endchar
        </CharString>
        <CharString name="IJ">
          106 -9 98 611 -20 hstem
          30 113 188 113 vstem
          30 hmoveto
          112 1 0 20 hvcurveto
          680 vlineto
          -111 -2 0 -49 hvcurveto
          301 -468 rmoveto
          -76 -9 -18 -43 -29 -32 15 14 -19 vhcurveto
          -6 -14 -9 -18 -28 vvcurveto
          -34 15 -33 96 109 40 59 111 vhcurveto
          539 vlineto
          -113 0 0 -49 hvcurveto
          endchar
        </CharString>
        <CharString name="Iacute">
          -195 21 -21 700 -20 hstem
          30 113 vstem
          49 749 rmoveto
          11 1 103 68 25 28 rrcurveto
          37 -6 -20 45 -25 hhcurveto
          -12 -85 -71 -47 -34 hvcurveto
          0 14 -61 29 vhcurveto
          -19 -749 rmoveto
          112 1 0 20 hvcurveto
          680 vlineto
          -111 -2 0 -49 hvcurveto
          endchar
        </CharString>
        <CharString name="Iacy">
          13 21 -21 282 102 220 96 hstem
          27 125 74 111 vstem
          223 700 rmoveto
          -123 -73 -42 -164 -85 34 -65 59 -33 hvcurveto
          -38 -22 -21 -26 -8 -45 -33 -218 rcurveline
          -2 25 30 -1 17 hhcurveto
          47 1 6 19 3 hvcurveto
          26 191 rlineto
          49 8 15 20 21 hhcurveto
          13 -262 hlineto
          -20 -2 0 113 vhcurveto
          680 vlineto
          0 0 20 -20 vhcurveto
          -91 -312 rmoveto
          -3 -7 -7 -1 -7 hhcurveto
          -36 -17 40 84 64 17 32 29 9 10 -1 -2 9 hvcurveto
          endchar
        </CharString>
        <CharString name="Icircumflex">
          -195 21 -21 700 -20 223 14 hstem
          30 113 vstem
          -47 780 rmoveto
          -21 17 24 -8 35 hhcurveto
          23 39 68 0 hvcurveto
          20 -38 33 -31 0 vvcurveto
          38 39 5 22 26 -98 100 0 hvcurveto
          10 -9 -12 4 -10 hhcurveto
          -8 -7 -1 -2 -7 hvcurveto
          -40 -914 rmoveto
          112 1 0 20 hvcurveto
          680 vlineto
          -111 -2 0 -49 hvcurveto
          endchar
        </CharString>
        <CharString name="Icy">
          -195 21 -21 700 -20 hstem
          30 113 vstem
          30 hmoveto
          112 1 0 20 hvcurveto
          680 vlineto
          -111 -2 0 -49 hvcurveto
          endchar
        </CharString>
        <CharString name="Idieresis">
          -195 21 -21 700 -20 70 150 hstem
          30 113 vstem
          26 900 rmoveto
          -40 -17 -30 -44 hvcurveto
          -59 -1 20 -17 31 hhcurveto
          38 20 29 52 51 -12 18 -39 hvcurveto
          130 hmoveto
          -40 -19 -30 -44 -59 20 -17 32 37 19 29 52 51 -11 18 -38 hvcurveto
          -126 -900 rmoveto
          112 1 0 20 hvcurveto
          680 vlineto
          -111 -2 0 -49 hvcurveto
          endchar
        </CharString>
        <CharString name="Idotaccent">
          -195 21 -21 700 -20 66 158 hstem
          30 113 vstem
          30 826 rmoveto
          -62 21 -18 33 39 20 32 53 1 vhcurveto
          54 -12 19 -41 -42 -19 -32 -46 vhcurveto
          -826 vmoveto
          112 1 0 20 hvcurveto
          680 vlineto
          -111 -2 0 -49 hvcurveto
          endchar
        </CharString>
        <CharString name="Iecy">
          -68 0 99 229 102 171 99 hstem
          30 111 vstem
          141 99 rmoveto
          229 104 vlineto
          18 0 18 84 hvcurveto
          -122 171 129 hlineto
          20 0 10 89 hvcurveto
          -240 hlineto
          -19 -1 -20 0 hvcurveto
          -680 234 vlineto
          19 0 6 93 hvcurveto
          endchar
        </CharString>
        <CharString name="Iegravecy">
          -68 0 99 229 102 171 99 hstem
          30 111 vstem
          214 739 rmoveto
          28 14 61 0 hvcurveto
          47 -34 -85 71 -12 hhcurveto
          -25 -20 -45 -36 -5 hvcurveto
          24 -29 103 -68 12 -1 rrcurveto
          -73 -411 rmoveto
          104 hlineto
          18 0 18 84 hvcurveto
          -122 171 129 hlineto
          20 0 10 89 hvcurveto
          -240 hlineto
          -19 -1 -20 0 hvcurveto
          -680 234 vlineto
          19 0 6 93 hvcurveto
          -142 hlineto
          endchar
        </CharString>
        <CharString name="Igrave">
          -195 21 -21 700 -20 hstem
          30 113 vstem
          57 918 rmoveto
          -25 -20 -45 -36 -6 hvcurveto
          25 -29 102 -68 12 -1 rrcurveto
          29 14 61 0 hvcurveto
          47 -35 -85 71 -11 hhcurveto
          -27 -918 rmoveto
          112 1 0 20 hvcurveto
          680 vlineto
          -111 -2 0 -49 hvcurveto
          endchar
        </CharString>
        <CharString name="Igravecy">
          57 21 -21 700 -20 hstem
          45 104 127 104 vstem
          190 918 rmoveto
          -25 -20 -45 -36 -6 hvcurveto
          25 -29 103 -68 11 -1 rrcurveto
          29 14 61 0 hvcurveto
          47 -34 -85 71 -12 hhcurveto
          43 -657 rmoveto
          28 81 16 61 13 71 rrcurveto
          -7 -65 -7 -102 -59 vvcurveto
          -248 vlineto
          97 7 0 19 hvcurveto
          681 vlineto
          -86 -4 0 -26 -8 hvcurveto
          -81 -259 -22 -67 -22 -61 -19 -73 rlinecurve
          8 93 3 49 63 vvcurveto
          281 vlineto
          -107 3 0 -19 hvcurveto
          -681 vlineto
          95 1 0 26 8 hvcurveto
          endchar
        </CharString>
        <CharString name="Iicy">
          57 21 -21 700 -20 hstem
          45 104 127 104 vstem
          233 261 rmoveto
          28 81 16 61 13 71 rrcurveto
          -7 -65 -7 -102 -59 vvcurveto
          -248 vlineto
          97 7 0 19 hvcurveto
          681 vlineto
          -86 -4 0 -26 -8 hvcurveto
          -81 -259 -6 -19 -7 -19 -6 -18 rlinecurve
          -15 -47 -16 -46 -13 -52 rrcurveto
          8 93 3 49 63 vvcurveto
          281 vlineto
          -107 3 0 -19 hvcurveto
          -681 vlineto
          95 1 0 26 8 hvcurveto
          endchar
        </CharString>
        <CharString name="Imacron">
          -195 21 -21 700 -20 88 104 hstem
          30 113 vstem
          186 768 rmoveto
          26 16 24 33 15 -3 16 -8 16 hvcurveto
          -226 hlineto
          -28 -17 -23 -32 -16 1 -15 7 -18 hvcurveto
          76 -768 rmoveto
          112 1 0 20 hvcurveto
          680 vlineto
          -111 -2 0 -49 hvcurveto
          endchar
        </CharString>
        <CharString name="Iocy">
          -68 0 99 229 102 171 99 hstem
          30 111 vstem
          88 750 rmoveto
          37 20 29 52 51 -12 18 -38 -40 -18 -30 -44 -59 20 -17 31 hvcurveto
          129 hmoveto
          37 20 29 52 51 -11 18 -39 -39 -19 -30 -44 -59 20 -17 31 hvcurveto
          -76 -651 rmoveto
          229 104 vlineto
          18 0 18 84 hvcurveto
          -122 171 129 hlineto
          20 0 10 89 hvcurveto
          -240 hlineto
          -19 -1 -20 0 hvcurveto
          -680 234 vlineto
          19 0 6 93 hvcurveto
          endchar
        </CharString>
        <CharString name="Iogonek">
          -195 -195 77 818 -20 hstem
          30 113 vstem
          143 700 rmoveto
          -111 -2 0 -49 hvcurveto
          -651 vlineto
          -21 -30 -22 -32 -48 vvcurveto
          -66 43 -19 49 37 31 11 30 10 -4 19 -7 14 vhcurveto
          -5 -7 -8 -2 -10 hhcurveto
          -19 -7 9 18 36 30 34 17 18 hvcurveto
          9 9 2 5 9 vvcurveto
          endchar
        </CharString>
        <CharString name="Iucy">
          229 -10 115 199 104 188 114 hstem
          45 106 56 124 113 124 vstem
          151 408 rmoveto
          292 vlineto
          -106 0 0 -20 hvcurveto
          -680 vlineto
          108 -2 0 20 hvcurveto
          284 56 vlineto
          -257 5 50 -57 120 hhcurveto
          129 57 87 281 276 -50 76 -128 -116 -59 -72 -230 -7 hvcurveto
          123 -79 rmoveto
          197 13 70 43 52 5 -67 -175 -178 -10 -71 -48 -48 -7 67 157 vhcurveto
          endchar
        </CharString>
        <CharString name="J">
          -68 -9 98 611 -20 hstem
          158 113 vstem
          158 183 rmoveto
          -76 -9 -18 -44 -29 -32 15 14 -19 vhcurveto
          -6 -14 -9 -18 -28 vvcurveto
          -34 15 -33 96 109 41 59 111 vhcurveto
          539 vlineto
          -113 0 0 -49 hvcurveto
          endchar
        </CharString>
        <CharString name="Jecy">
          -68 -9 98 611 -20 hstem
          158 113 vstem
          158 183 rmoveto
          -76 -9 -18 -44 -29 -32 15 14 -19 vhcurveto
          -6 -14 -9 -18 -28 vvcurveto
          -34 15 -33 96 109 41 59 111 vhcurveto
          539 vlineto
          -113 0 0 -49 hvcurveto
          endchar
        </CharString>
        <CharString name="K">
          19 21 -21 701 -20 hstem
          28 113 98 126 vstem
          141 413 rmoveto
          287 vlineto
          -113 0 0 -20 hvcurveto
          -680 vlineto
          113 0 0 20 hvcurveto
          309 vlineto
          11 -5 11 -8 9 -10 57 -64 9 -118 1 -123 rrcurveto
          -2 28 27 -1 25 hhcurveto
          39 7 5 18 175 -36 137 -74 68 hvcurveto
          116 272 rlineto
          1 3 1 3 3 vvcurveto
          13 -17 6 -33 -18 -26 -2 -6 -27 vhcurveto
          endchar
        </CharString>
        <CharString name="Kacy">
          30 21 -21 311 107 283 -20 hstem
          45 113 vstem
          224 488 rmoveto
          -49 -7 -23 -21 -20 hhcurveto
          -16 282 hlineto
          -113 0 0 -20 hvcurveto
          -680 vlineto
          113 0 0 20 hvcurveto
          291 11 vlineto
          33 26 -14 -114 7 hvcurveto
          10 -182 rlineto
          -2 28 25 -1 25 hhcurveto
          39 8 5 18 -1 hvcurveto
          -12 176 -7 88 -25 65 -46 27 rlinecurve
          23 15 22 30 9 48 40 203 rcurveline
          3 1 3 2 vvcurveto
          16 -12 4 -35 -18 -26 -2 -6 -27 vhcurveto
          endchar
        </CharString>
        <CharString name="Kadescendercy">
          62 -2 106 221 106 270 -20 hstem
          45 113 173 97 vstem
          224 502 rmoveto
          -49 -8 -22 -22 -20 hhcurveto
          -16 269 hlineto
          -113 0 0 -20 hvcurveto
          -680 vlineto
          113 0 0 20 hvcurveto
          305 11 vlineto
          33 28 -14 -114 6 hvcurveto
          9 -196 86 -3 4 -58 12 -45 14 -52 rlinecurve
          56 11 4 28 hvcurveto
          229 -64 vlineto
          -6 107 -6 88 -27 65 -46 27 rlinecurve
          23 15 21 30 10 48 40 189 rcurveline
          3 1 3 2 vvcurveto
          16 -12 4 -35 -18 -26 -2 -6 -27 vhcurveto
          endchar
        </CharString>
        <CharString name="Kcommaaccent">
          19 21 -21 701 -20 hstem
          28 113 98 126 vstem
          141 413 rmoveto
          287 vlineto
          -113 0 0 -20 hvcurveto
          -680 vlineto
          113 0 0 20 hvcurveto
          309 vlineto
          11 -5 11 -8 9 -10 57 -64 9 -118 1 -123 rrcurveto
          -2 28 27 -1 25 hhcurveto
          39 7 5 18 hvcurveto
          -1 177 -35 135 -74 68 116 272 rcurveline
          20 8 -16 8 -40 hhcurveto
          -18 -26 -2 -6 -27 hvcurveto
          -59 -730 rmoveto
          -37 -27 -29 -36 -27 6 -20 22 -13 hvcurveto
          -4 -26 0 -10 -23 -39 rrcurveto
          -24 6 16 -5 19 hhcurveto
          21 71 73 83 47 -25 26 -45 hvcurveto
          endchar
        </CharString>
        <CharString name="Kjecy">
          30 21 -21 311 107 283 -20 hstem
          45 113 vstem
          171 749 rmoveto
          12 1 102 68 25 28 rrcurveto
          37 -6 -20 45 -25 hhcurveto
          -11 -85 -71 -47 -35 hvcurveto
          0 14 -61 29 vhcurveto
          53 -261 rmoveto
          -49 -7 -23 -21 -20 hhcurveto
          -16 282 hlineto
          -113 0 0 -20 hvcurveto
          -680 vlineto
          113 0 0 20 hvcurveto
          291 11 vlineto
          33 26 -14 -114 7 hvcurveto
          10 -182 rlineto
          -2 28 25 -1 25 hhcurveto
          39 8 5 18 -1 hvcurveto
          -12 176 -7 88 -25 65 -46 27 rlinecurve
          23 15 22 30 9 48 40 203 rcurveline
          23 4 -10 5 -40 hhcurveto
          -18 -26 -2 -6 -27 hvcurveto
          endchar
        </CharString>
        <CharString name="L">
          -70 0 104 596 -20 hstem
          30 111 vstem
          141 104 rmoveto
          596 vlineto
          -109 -2 0 -28 hvcurveto
          -672 234 vlineto
          11 8 4 16 hvcurveto
          84 vlineto
          endchar
        </CharString>
        <CharString name="Lacute">
          -70 0 104 596 -20 hstem
          30 111 vstem
          52 749 rmoveto
          11 1 103 68 25 28 rrcurveto
          37 -6 -20 45 -25 hhcurveto
          -12 -85 -71 -47 -34 hvcurveto
          0 14 -61 29 vhcurveto
          89 -645 rmoveto
          596 vlineto
          -109 -2 0 -28 hvcurveto
          -672 234 vlineto
          11 8 4 16 hvcurveto
          84 vlineto
          endchar
        </CharString>
        <CharString name="Lcaron">
          -51 0 104 596 -20 hstem
          30 111 vstem
          141 104 rmoveto
          596 vlineto
          -109 -2 0 -28 hvcurveto
          -672 234 vlineto
          11 8 4 16 hvcurveto
          84 vlineto
          -91 511 rmoveto
          -27 6 -20 21 -12 vhcurveto
          -4 -27 0 -10 -23 -39 rrcurveto
          -24 6 16 -5 20 hhcurveto
          21 71 73 83 47 -25 26 -46 -37 -26 -29 -36 hvcurveto
          endchar
        </CharString>
        <CharString name="Lcommaaccent">
          -70 0 104 596 -20 hstem
          30 111 vstem
          141 104 rmoveto
          596 vlineto
          -109 -2 0 -28 hvcurveto
          -672 234 vlineto
          11 8 4 16 hvcurveto
          84 vlineto
          -199 -206 rmoveto
          -27 6 -20 22 -13 vhcurveto
          -4 -26 0 -10 -23 -39 rrcurveto
          -24 6 16 -5 20 hhcurveto
          21 70 73 83 47 -25 26 -45 -37 -27 -29 -36 hvcurveto
          endchar
        </CharString>
        <CharString name="Ldot">
          -44 0 104 151 143 302 -20 hstem
          30 111 vstem
          141 104 rmoveto
          596 vlineto
          -109 -2 0 -28 hvcurveto
          -672 234 vlineto
          11 8 4 16 hvcurveto
          84 vlineto
          -122 222 rmoveto
          -45 16 -26 55 45 25 32 39 44 -16 28 -54 -45 -26 -33 -39 vhcurveto
          endchar
        </CharString>
        <CharString name="Ljecy">
          209 0 97 224 104 171 104 hstem
          100 105 58 111 62 132 vstem
          374 425 rmoveto
          275 -178 vlineto
          -92 -3 -5 -28 -1 hvcurveto
          -18 -433 -8 -148 -77 -1 rrcurveto
          -1 -8 -1 -7 -7 vvcurveto
          -48 27 -21 37 95 33 183 419 18 vhcurveto
          58 -596 134 hlineto
          99 72 83 160 125 -44 57 -120 hvcurveto
          -30 -104 rmoveto
          24 hlineto
          34 4 -17 -72 -109 -9 -26 -31 -10 -2 0 2 -10 hvcurveto
          endchar
        </CharString>
        <CharString name="Lslash">
          -51 0 104 596 -20 hstem
          50 111 vstem
          161 104 rmoveto
          218 vlineto
          83 18 rlineto
          8 1 4 7 13 vvcurveto
          16 -6 25 -7 35 vhcurveto
          -82 -18 rlineto
          281 vlineto
          -109 -2 0 -28 hvcurveto
          -276 vlineto
          -37 -8 rlineto
          -9 -3 -4 -7 0 -14 0 -16 5 -24 8 -35 50 flex
          37 9 rlineto
          -298 233 vlineto
          20 0 20 0 hvcurveto
          84 vlineto
          endchar
        </CharString>
        <CharString name="M">
          108 21 -21 700 -20 hstem
          30 110 195.5 111.5 vstem
          265 450 rmoveto
          -17 -58 -7 -41 0 vvcurveto
          0 -7 40 -20 61 vhcurveto
          -80 248 rlineto
          -84 hlineto
          -11 -9 0 -20 hvcurveto
          -680 vlineto
          104 6 0 20 hvcurveto
          -3 173 rlineto
          -1 162 -27 136 0 vvcurveto
          3 2 17 -69 23 -89 9 -28 rlinecurve
          47 -140 rlineto
          46 hlineto
          4 5 1 6 2 hvcurveto
          48 133 11 30 23 88 17 68 rlinecurve
          3 -2 rlineto
          0 -25 -139 -4 -160 vhcurveto
          -5 -192 rlineto
          114 0 0 20 hvcurveto
          680 -93 vlineto
          -12 -3 -5 -15 -5 hvcurveto
          endchar
        </CharString>
        <CharString name="N">
          61 21 -21 700 -20 hstem
          30 111 148 111 vstem
          289 447 rmoveto
          -67 4 -71 9 -84 vhcurveto
          -15 65 -21 88 -23 59 -105 263 rcurveline
          -88 hlineto
          -14 -6 -6 -14 hvcurveto
          -680 vlineto
          110 1 0 20 hvcurveto
          240 vlineto
          63 -5 89 -9 80 vhcurveto
          15 -70 24 -98 22 -56 106 -268 rcurveline
          86 hlineto
          13 7 8 12 hvcurveto
          680 vlineto
          -109 -2 0 -20 hvcurveto
          endchar
        </CharString>
        <CharString name="Nacute">
          61 21 -21 700 -20 hstem
          30 111 148 111 vstem
          177 749 rmoveto
          12 1 102 68 25 28 rrcurveto
          37 -6 -20 45 -25 hhcurveto
          -11 -85 -71 -47 -35 hvcurveto
          0 14 -61 29 vhcurveto
          112 -302 rmoveto
          -67 4 -71 9 -84 vhcurveto
          -15 65 -21 88 -23 59 -105 263 rcurveline
          -88 hlineto
          -14 -6 -6 -14 hvcurveto
          -680 vlineto
          110 1 0 20 hvcurveto
          240 vlineto
          63 -5 89 -9 80 vhcurveto
          15 -70 24 -98 22 -56 106 -268 rcurveline
          86 hlineto
          13 7 8 12 hvcurveto
          680 vlineto
          -109 -2 0 -20 hvcurveto
          endchar
        </CharString>
        <CharString name="Ncaron">
          61 21 -21 700 -20 hstem
          30 111 148 111 vstem
          221 742 rmoveto
          19 94 99 25 16 -17 18 -27 14 hvcurveto
          0 -30 -16 -34 -53 vhcurveto
          0 -58 75 -23 -16 -21 -38 -32 -11 vhcurveto
          -32 22 79 -76 23 hhcurveto
          68 -295 rmoveto
          -67 4 -71 9 -84 vhcurveto
          -15 65 -21 88 -23 59 -105 263 rcurveline
          -88 hlineto
          -14 -6 -6 -14 hvcurveto
          -680 vlineto
          110 1 0 20 hvcurveto
          240 vlineto
          63 -5 89 -9 80 vhcurveto
          15 -70 24 -98 22 -56 106 -268 rcurveline
          86 hlineto
          13 7 8 12 hvcurveto
          680 vlineto
          -109 -2 0 -20 hvcurveto
          endchar
        </CharString>
        <CharString name="Ncommaaccent">
          61 21 -21 700 -20 hstem
          30 111 148 111 vstem
          289 447 rmoveto
          -67 4 -71 9 -84 vhcurveto
          -15 65 -21 88 -23 59 -105 263 rcurveline
          -88 hlineto
          -14 -6 -6 -14 hvcurveto
          -680 vlineto
          110 1 0 20 hvcurveto
          240 vlineto
          63 -5 89 -9 80 vhcurveto
          15 -70 24 -98 22 -56 106 -268 rcurveline
          86 hlineto
          13 7 8 12 hvcurveto
          680 vlineto
          -109 -2 0 -20 hvcurveto
          -75 -717 rmoveto
          -37 -27 -29 -36 -27 6 -20 22 -13 hvcurveto
          -4 -26 0 -10 -23 -39 rrcurveto
          -24 6 16 -5 20 hhcurveto
          21 70 73 83 47 -25 26 -45 hvcurveto
          endchar
        </CharString>
        <CharString name="Njecy">
          200 0 97 224 104 275 -20 hstem
          45 111 98 111 63 131 vstem
          365 425 rmoveto
          275 vlineto
          -113 2 0 -20 hvcurveto
          -255 -98 275 vlineto
          -113 2 0 -20 hvcurveto
          -680 vlineto
          113 -2 0 20 hvcurveto
          301 98 -321 134 vlineto
          99 72 83 160 125 -44 57 -120 hvcurveto
          -30 -104 rmoveto
          24 hlineto
          34 5 -17 -72 -109 -10 -26 -31 -11 -5 0 2 -6 hvcurveto
          endchar
        </CharString>
        <CharString name="Ntilde">
          61 21 -21 700 -20 66 105 hstem
          30 111 148 111 vstem
          116 756 rmoveto
          15 8 32 31 38 -9 -42 50 hhcurveto
          63 55 74 0 0 -15 62 -21 hvcurveto
          -19 2 -31 -43 -37 -4 43 -41 hhcurveto
          -36 -54 -24 -59 -36 hvcurveto
          0 22 -55 31 vhcurveto
          173 -309 rmoveto
          -67 4 -71 9 -84 vhcurveto
          -15 65 -21 88 -23 59 -105 263 rcurveline
          -88 hlineto
          -14 -6 -6 -14 hvcurveto
          -680 vlineto
          110 1 0 20 hvcurveto
          240 vlineto
          63 -5 89 -9 80 vhcurveto
          15 -70 24 -98 22 -56 106 -268 rcurveline
          86 hlineto
          13 7 8 12 hvcurveto
          680 vlineto
          -109 -2 0 -20 hvcurveto
          endchar
        </CharString>
        <CharString name="O">
          41 -10 115 490 115 hstem
          20 127 120 122 vstem
          20 354 rmoveto
          -296 49 -68 131 131 58 87 281 276 -48 76 -130 -129 -62 -84 -272 vhcurveto
          127 -25 rmoveto
          197 14 69 48 53 5 -66 -175 -178 -11 -71 -50 -51 -8 67 157 vhcurveto
          endchar
        </CharString>
        <CharString name="OE">
          180 0 99 229 102 171 99 hstem
          15 127 120 128 vstem
          390 99 rmoveto
          229 103 vlineto
          19 0 18 84 hvcurveto
          -122 171 129 hlineto
          20 0 10 89 hvcurveto
          -220 hlineto
          -14 -4 -10 -6 -1 hvcurveto
          18 -26 -32 7 -39 hhcurveto
          -129 -59 -90 -267 -289 49 -71 131 42 35 9 22 27 hvcurveto
          -23 213 vlineto
          20 0 6 93 hvcurveto
          -331 1 rmoveto
          -51 -8 72 157 197 14 78 46 55 5 -75 -175 -178 -11 -76 -50 hvcurveto
          endchar
        </CharString>
        <CharString name="Oacute">
          41 -10 115 490 115 hstem
          20 127 120 122 vstem
          167 749 rmoveto
          12 1 102 68 25 28 rrcurveto
          37 -6 -20 45 -25 hhcurveto
          -11 -85 -71 -47 -35 hvcurveto
          0 14 -61 29 vhcurveto
          -147 -395 rmoveto
          -296 49 -68 131 131 58 87 281 276 -48 76 -130 -129 -62 -84 -272 vhcurveto
          127 -25 rmoveto
          197 14 69 48 53 5 -66 -175 -178 -11 -71 -50 -51 -8 67 157 vhcurveto
          endchar
        </CharString>
        <CharString name="Ocircumflex">
          41 -10 115 490 115 hstem
          20 127 120 122 vstem
          72 780 rmoveto
          -21 16 24 -8 35 hhcurveto
          24 38 68 0 hvcurveto
          20 -38 34 -31 0 vvcurveto
          37 39 5 22 26 -98 100 0 hvcurveto
          10 -9 -12 4 -10 hhcurveto
          -8 -7 -1 -2 -7 hvcurveto
          -168 -560 rmoveto
          -296 49 -68 131 131 58 87 281 276 -48 76 -130 -129 -62 -84 -272 vhcurveto
          127 -25 rmoveto
          197 14 69 48 53 5 -66 -175 -178 -11 -71 -50 -51 -8 67 157 vhcurveto
          endchar
        </CharString>
        <CharString name="Ocy">
          60 -10 115 490 115 hstem
          30 127 120 122 vstem
          30 354 rmoveto
          -296 49 -68 131 131 58 87 281 276 -48 76 -130 -129 -62 -84 -272 vhcurveto
          127 -25 rmoveto
          197 14 69 48 53 5 -66 -175 -178 -11 -71 -50 -52 -7 67 157 vhcurveto
          endchar
        </CharString>
        <CharString name="Odieresis">
          41 -10 115 490 115 40 150 hstem
          20 127 120 122 vstem
          20 354 rmoveto
          -296 49 -68 131 131 58 87 281 276 -48 76 -130 -129 -62 -84 -272 vhcurveto
          127 -25 rmoveto
          197 14 69 48 53 5 -66 -175 -178 -11 -71 -50 -51 -8 67 157 vhcurveto
          -3 571 rmoveto
          -39 -18 -30 -44 -59 20 -17 31 37 20 29 52 51 -12 18 -39 hvcurveto
          130 hmoveto
          -40 -18 -30 -44 -59 19 -17 32 37 20 29 52 51 -11 18 -39 hvcurveto
          endchar
        </CharString>
        <CharString name="Ograve">
          41 -10 115 490 115 hstem
          20 127 120 122 vstem
          175 918 rmoveto
          -25 -20 -45 -36 -6 hvcurveto
          25 -29 103 -68 11 -1 rrcurveto
          29 14 61 0 hvcurveto
          47 -34 -85 71 -12 hhcurveto
          -155 -564 rmoveto
          -296 49 -68 131 131 58 87 281 276 -48 76 -130 -129 -62 -84 -272 vhcurveto
          127 -25 rmoveto
          197 14 69 48 53 5 -66 -175 -178 -11 -71 -50 -51 -8 67 157 vhcurveto
          endchar
        </CharString>
        <CharString name="Ohm">
          38 0 104 488 118 hstem
          27 114 126 114 vstem
          346 hmoveto
          28 9 31 22 20 -5 18 -5 13 hvcurveto
          -57 hlineto
          27 36 38 99 158 vvcurveto
          219 -39 94 -124 -137 -54 -99 -216 -150 38 -100 28 -41 vhcurveto
          -36 hlineto
          -28 -6 -34 -19 -19 5 -21 4 -11 hvcurveto
          154 hlineto
          -21 95 -24 132 156 vvcurveto
          178 24 31 39 42 21 -68 -181 -147 -23 -99 -21 -97 vhcurveto
          endchar
        </CharString>
        <CharString name="Ohungarumlaut">
          41 -10 115 490 115 hstem
          20 127 120 122 vstem
          20 354 rmoveto
          -296 49 -68 131 131 58 87 281 276 -48 76 -130 -129 -62 -84 -272 vhcurveto
          127 -25 rmoveto
          197 14 69 48 53 5 -66 -175 -178 -11 -71 -50 -51 -8 67 157 vhcurveto
          12 591 rmoveto
          -12 -4 -57 -82 -18 -48 rrcurveto
          0 31 -54 28 7 vhcurveto
          10 4 74 82 14 31 -15 32 -31 38 -24 -6 rrcurveto
          140 hmoveto
          -12 -4 -56 -82 -19 -48 rrcurveto
          0 30 -54 29 7 vhcurveto
          9 4 74 82 15 31 -16 32 -31 38 -23 -6 rrcurveto
          endchar
        </CharString>
        <CharString name="Omacron">
          41 -10 115 490 115 58 104 hstem
          20 127 120 122 vstem
          304 768 rmoveto
          26 16 24 33 15 -3 16 -8 16 hvcurveto
          -226 hlineto
          -28 -16 -23 -32 -16 1 -15 6 -18 hvcurveto
          -52 -414 rmoveto
          -296 49 -68 131 131 58 87 281 276 -48 76 -130 -129 -62 -84 -272 vhcurveto
          127 -25 rmoveto
          197 14 69 48 53 5 -66 -175 -178 -11 -71 -50 -51 -8 67 157 vhcurveto
          endchar
        </CharString>
        <CharString name="Omega">
          38 0 104 488 118 hstem
          27 114 126 114 vstem
          346 hmoveto
          28 9 31 22 20 -5 18 -5 13 hvcurveto
          -57 hlineto
          27 36 38 99 158 vvcurveto
          219 -39 94 -124 -137 -54 -99 -216 -150 38 -100 28 -41 vhcurveto
          -36 hlineto
          -28 -6 -34 -19 -19 5 -21 4 -11 hvcurveto
          154 hlineto
          -21 95 -24 132 156 vvcurveto
          178 24 31 39 42 21 -68 -181 -147 -23 -99 -21 -97 vhcurveto
          endchar
        </CharString>
        <CharString name="Oslash">
          51 -10 115 491 114 hstem
          25 127 120 122 vstem
          428 686 rmoveto
          -5 26 -64 7 0 vvcurveto
          -4 -8 -9 -22 -10 -27 rrcurveto
          35 -29 -40 13 -54 hhcurveto
          -129 -59 -84 -272 -93 5 -71 11 -53 hvcurveto
          -15 -36 -31 -75 2 -8 4 -20 39 -14 23 1 3 6 9 20 9 24 rrcurveto
          -34 28 40 -11 53 hhcurveto
          131 58 87 281 72 -3 58 -8 47 hvcurveto
          16 45 31 93 -2 13 rrcurveto
          -276 -417 rmoveto
          60 vlineto
          197 14 70 46 18 12 -7 -15 9 vhcurveto
          -50 -469 rmoveto
          -12 -10 4 8 -6 hvcurveto
          21 64 43 128 35 108 rrcurveto
          -63 vlineto
          -231 -32 -18 -39 vhcurveto
          endchar
        </CharString>
        <CharString name="Otilde">
          41 -10 115 490 115 36 105 hstem
          20 127 120 122 vstem
          53 811 rmoveto
          0 22 -55 31 vhcurveto
          15 8 32 31 38 -9 -42 50 hhcurveto
          63 55 74 0 0 -15 62 -21 hvcurveto
          -18 1 -31 -43 -37 -4 43 -41 hhcurveto
          -36 -54 -24 -59 -36 hvcurveto
          -33 -457 rmoveto
          -296 49 -68 131 131 58 87 281 276 -48 76 -130 -129 -62 -84 -272 vhcurveto
          127 -25 rmoveto
          197 14 69 48 53 5 -66 -175 -178 -11 -71 -50 -51 -8 67 157 vhcurveto
          endchar
        </CharString>
        <CharString name="P">
          -20 21 -21 270 103 231 96 hstem
          30 111 73 125 vstem
          58 700 rmoveto
          -8 hlineto
          -17 -3 -6 -14 hvcurveto
          -680 vlineto
          110 1 0 20 hvcurveto
          250 8 vlineto
          94 96 44 180 163 -69 43 -126 hvcurveto
          -3 -327 rmoveto
          231 28 vlineto
          32 13 -32 -64 -112 -20 -23 -32 hvcurveto
          endchar
        </CharString>
        <CharString name="Pecy">
          33 21 -21 596 104 hstem
          45 111 89 111 vstem
          156 596 rmoveto
          89 -596 hlineto
          110 1 0 20 hvcurveto
          680 -200 vlineto
          -109 -2 0 -20 hvcurveto
          -680 vlineto
          110 1 0 20 hvcurveto
          endchar
        </CharString>
        <CharString name="Pi">
          33 21 -21 596 104 hstem
          45 111 89 111 vstem
          156 596 rmoveto
          89 -596 hlineto
          110 1 0 20 hvcurveto
          680 -200 vlineto
          -109 -2 0 -20 hvcurveto
          -680 vlineto
          110 1 0 20 hvcurveto
          endchar
        </CharString>
        <CharString name="Q">
          41 -142 91 646 115 hstem
          20 127 120 122 vstem
          403 -34 rmoveto
          -14 -22 -24 -3 -14 hhcurveto
          -28 -12 20 46 -6 hvcurveto
          63 42 29 102 199 vvcurveto
          276 -48 76 -130 -129 -62 -84 -272 -272 42 -80 108 -11 vhcurveto
          -91 27 45 -42 78 hhcurveto
          31 67 7 43 15 -5 27 -10 16 hvcurveto
          -194 629 rmoveto
          53 5 -66 -175 -178 -11 -71 -50 -51 -8 67 157 197 14 69 48 hvcurveto
          endchar
        </CharString>
        <CharString name="R">
          -4 21 -21 270 103 231 96 hstem
          30 111 73 125 vstem
          50 700 rmoveto
          -20 0 -20 0 hvcurveto
          -680 vlineto
          109 2 0 20 hvcurveto
          250 8 vlineto
          18 1 24 -35 37 -79 4 -157 rlinecurve
          -2 25 23 -1 17 hhcurveto
          54 4 6 19 hvcurveto
          -5 152 -48 88 -33 44 rrcurveto
          41 32 29 57 99 vvcurveto
          163 -69 43 -126 vhcurveto
          -3 -96 rmoveto
          28 hlineto
          32 13 -32 -72 -104 -20 -23 -32 hvcurveto
          -21 hlineto
          endchar
        </CharString>
        <CharString name="Racute">
          -4 21 -21 270 103 231 96 hstem
          30 111 73 125 vstem
          125 749 rmoveto
          12 1 102 68 25 28 rrcurveto
          37 -6 -20 45 -25 hhcurveto
          -12 -84 -71 -47 -35 hvcurveto
          0 14 -61 29 vhcurveto
          -75 -49 rmoveto
          -20 0 -20 0 hvcurveto
          -680 vlineto
          109 2 0 20 hvcurveto
          250 8 vlineto
          18 1 24 -35 37 -79 4 -157 rlinecurve
          -2 25 23 -1 17 hhcurveto
          54 4 6 19 hvcurveto
          -5 152 -48 88 -33 44 rrcurveto
          41 32 29 57 99 vvcurveto
          163 -69 43 -126 vhcurveto
          -3 -96 rmoveto
          28 hlineto
          32 13 -32 -72 -104 -20 -23 -32 hvcurveto
          -21 hlineto
          endchar
        </CharString>
        <CharString name="Rcaron">
          -4 21 -21 270 103 231 96 hstem
          30 111 73 125 vstem
          169 742 rmoveto
          19 94 99 25 16 -17 18 -27 14 hvcurveto
          0 -30 -16 -34 -53 vhcurveto
          0 -58 75 -23 -16 -21 -38 -32 -11 vhcurveto
          -32 21 80 -76 23 hhcurveto
          -119 -42 rmoveto
          -20 0 -20 0 hvcurveto
          -680 vlineto
          109 2 0 20 hvcurveto
          250 8 vlineto
          18 1 24 -35 37 -79 4 -157 rlinecurve
          -2 25 23 -1 17 hhcurveto
          54 4 6 19 hvcurveto
          -5 152 -48 88 -33 44 rrcurveto
          41 32 29 57 99 vvcurveto
          163 -69 43 -126 vhcurveto
          -3 -96 rmoveto
          28 hlineto
          32 13 -32 -72 -104 -20 -23 -32 hvcurveto
          -21 hlineto
          endchar
        </CharString>
        <CharString name="Rcommaaccent">
          -4 21 -21 270 103 231 96 hstem
          30 111 73 125 vstem
          50 700 rmoveto
          -20 0 -20 0 hvcurveto
          -680 vlineto
          109 2 0 20 hvcurveto
          250 8 vlineto
          18 1 24 -35 37 -79 4 -157 rlinecurve
          -2 25 23 -1 17 hhcurveto
          54 4 6 19 hvcurveto
          -5 152 -48 88 -33 44 rrcurveto
          41 32 29 57 99 vvcurveto
          163 -69 43 -126 vhcurveto
          -3 -96 rmoveto
          28 hlineto
          32 13 -32 -72 -104 -20 -23 -32 hvcurveto
          -21 hlineto
          41 -410 rmoveto
          -37 -27 -29 -36 -27 6 -20 22 -13 hvcurveto
          -4 -26 0 -10 -23 -39 rrcurveto
          -24 6 16 -5 20 hhcurveto
          20 71 73 83 47 -25 26 -45 hvcurveto
          endchar
        </CharString>
        <CharString name="S">
          -25 -10 114 508 98 hstem
          15 121 72 121 vstem
          163 289 rmoveto
          35 -47 10 -26 -34 vvcurveto
          -48 -18 -30 -56 -36 -36 14 19 -21 vhcurveto
          -17 -26 -8 -32 -22 vvcurveto
          -35 41 -32 90 145 37 95 100 57 -12 44 -48 62 vhcurveto
          -96 123 rlineto
          -27 36 -10 22 31 vvcurveto
          36 31 16 49 38 38 -12 -8 11 vhcurveto
          19 21 7 22 19 vvcurveto
          35 -35 21 -101 -118 -60 -63 -90 -44 11 -42 46 -61 vhcurveto
          endchar
        </CharString>
        <CharString name="Sacute">
          -25 -10 114 508 98 hstem
          15 121 72 121 vstem
          134 749 rmoveto
          12 1 102 68 25 28 rrcurveto
          37 -6 -20 45 -25 hhcurveto
          -11 -85 -71 -47 -35 hvcurveto
          0 14 -61 29 vhcurveto
          29 -460 rmoveto
          35 -47 10 -26 -34 vvcurveto
          -48 -18 -30 -56 -36 -36 14 19 -21 vhcurveto
          -17 -26 -8 -32 -22 vvcurveto
          -35 41 -32 90 145 37 95 100 57 -12 44 -48 62 vhcurveto
          -96 123 rlineto
          -27 36 -10 22 31 vvcurveto
          36 31 16 49 38 38 -12 -8 11 vhcurveto
          19 21 7 22 19 vvcurveto
          35 -35 21 -101 -118 -60 -63 -90 -44 11 -42 46 -61 vhcurveto
          endchar
        </CharString>
        <CharString name="Scaron">
          -25 -10 114 508 98 hstem
          15 121 72 121 vstem
          178 742 rmoveto
          19 94 99 25 16 -17 18 -27 14 hvcurveto
          0 -30 -16 -34 -53 vhcurveto
          0 -58 75 -23 -16 -21 -38 -32 -11 vhcurveto
          -32 22 79 -76 23 hhcurveto
          -15 -453 rmoveto
          35 -47 10 -26 -34 vvcurveto
          -48 -18 -30 -56 -36 -36 14 19 -21 vhcurveto
          -17 -26 -8 -32 -22 vvcurveto
          -35 41 -32 90 145 37 95 100 57 -12 44 -48 62 vhcurveto
          -96 123 rlineto
          -27 36 -10 22 31 vvcurveto
          36 31 16 49 38 38 -12 -8 11 vhcurveto
          19 21 7 22 19 vvcurveto
          35 -35 21 -101 -118 -60 -63 -90 -44 11 -42 46 -61 vhcurveto
          endchar
        </CharString>
        <CharString name="Scedilla">
          -25 -221 53 64 47 47 114 508 98 hstem
          15 121 52 59 vstem
          173 471 rmoveto
          -27 36 -10 22 31 vvcurveto
          36 31 16 49 38 38 -12 -8 11 vhcurveto
          19 21 7 22 19 vvcurveto
          35 -35 21 -101 -118 -60 -63 -90 -44 11 -42 46 -61 vhcurveto
          91 -121 rlineto
          35 -47 10 -26 -34 vvcurveto
          -48 -18 -30 -56 -36 -36 14 19 -21 vhcurveto
          -17 -26 -8 -32 -22 vvcurveto
          -33 37 -31 81 -3 vhcurveto
          -17 -100 rlineto
          0 14 6 30 19 8 -11 -21 -17 -6 -15 -23 -23 -16 20 -7 -7 vhcurveto
          -7 -7 -8 -44 0 vvcurveto
          0 26 -15 33 57 33 43 50 50 -25 21 -26 vhcurveto
          -16 hlineto
          10 50 rlineto
          109 17 30 85 90 vvcurveto
          57 -12 44 -48 62 vhcurveto
          endchar
        </CharString>
        <CharString name="Scommaaccent">
          -25 -10 114 508 98 hstem
          15 121 72 121 vstem
          163 289 rmoveto
          35 -47 10 -26 -34 vvcurveto
          -48 -18 -30 -56 -36 -36 14 19 -21 vhcurveto
          -17 -26 -8 -32 -22 vvcurveto
          -35 41 -32 90 145 37 95 100 57 -12 44 -48 62 vhcurveto
          -96 123 rlineto
          -27 36 -10 22 31 vvcurveto
          36 31 16 49 38 38 -12 -8 11 vhcurveto
          19 21 7 22 19 vvcurveto
          35 -35 21 -101 -118 -60 -63 -90 -44 11 -42 46 -61 vhcurveto
          35 -512 rmoveto
          -27 6 -20 22 -13 vhcurveto
          -4 -26 0 -10 -23 -39 rrcurveto
          -24 6 16 -5 20 hhcurveto
          21 70 73 83 47 -25 26 -45 -37 -27 -29 -36 hvcurveto
          endchar
        </CharString>
        <CharString name="Shacy">
          206 0 104 596 -20 hstem
          45 111 76 111 75 111 vstem
          45 hmoveto
          370 hlineto
          116 -2 0 52 hvcurveto
          648 vlineto
          -113 2 0 -20 hvcurveto
          -576 -75 596 vlineto
          -113 2 0 -20 hvcurveto
          -576 -76 596 vlineto
          -113 2 0 -20 hvcurveto
          endchar
        </CharString>
        <CharString name="Shchacy">
          225 0 104 596 -20 hstem
          45 111 76 111 75 111 vstem
          579 104 rmoveto
          -50 596 hlineto
          -113 2 0 -20 hvcurveto
          -576 -75 596 vlineto
          -113 2 0 -20 hvcurveto
          -576 -76 596 vlineto
          -113 2 0 -20 hvcurveto
          -680 437 vlineto
          4 -59 13 -45 14 -53 rrcurveto
          55 11 4 28 hvcurveto
          endchar
        </CharString>
        <CharString name="ShortIcy">
          57 21 -21 700 -20 79 74 hstem
          45 104 127 104 vstem
          142 917 rmoveto
          -48 -14 -18 -19 -28 vvcurveto
          -53 6 53 -44 74 hhcurveto
          87 32 40 62 28 hvcurveto
          -9 32 -60 35 -7 -24 rrcurveto
          -44 -13 -12 -27 -42 hhcurveto
          -43 -14 25 59 -14 hvcurveto
          91 -656 rmoveto
          28 81 16 61 13 71 rrcurveto
          -7 -65 -7 -102 -59 vvcurveto
          -248 vlineto
          97 7 0 19 hvcurveto
          681 vlineto
          -86 -4 0 -26 -8 hvcurveto
          -81 -259 -22 -67 -22 -61 -19 -73 rlinecurve
          8 93 3 49 63 vvcurveto
          281 vlineto
          -107 3 0 -19 hvcurveto
          -681 vlineto
          95 1 0 26 8 hvcurveto
          endchar
        </CharString>
        <CharString name="Softsigncy">
          1 0 97 224 104 275 -20 hstem
          45 111 63 131 vstem
          156 425 rmoveto
          275 vlineto
          -113 2 0 -20 hvcurveto
          -680 134 vlineto
          99 72 83 160 125 -44 57 -120 hvcurveto
          -30 -104 rmoveto
          24 hlineto
          34 5 -17 -72 -109 -10 -26 -31 -11 -6 0 2 -5 hvcurveto
          endchar
        </CharString>
        <CharString name="T">
          11 21 -21 596 104 hstem
          132 111 vstem
          30 700 rmoveto
          -14 -6 -6 -14 hvcurveto
          -84 122 -596 vlineto
          109 2 0 20 hvcurveto
          576 107 vlineto
          14 6 4 16 hvcurveto
          84 vlineto
          endchar
        </CharString>
        <CharString name="Tcaron">
          11 21 -21 596 104 hstem
          132 111 vstem
          195 742 rmoveto
          19 94 99 25 16 -17 18 -26 14 hvcurveto
          0 -31 -16 -34 -53 vhcurveto
          0 -57 75 -23 -16 -22 -38 -32 -11 vhcurveto
          -32 22 80 -76 22 hhcurveto
          -165 -42 rmoveto
          -14 -6 -6 -14 hvcurveto
          -84 122 -596 vlineto
          109 2 0 20 hvcurveto
          576 107 vlineto
          14 6 4 16 hvcurveto
          84 vlineto
          endchar
        </CharString>
        <CharString name="Tcedilla">
          11 -221 53 64 47 78 -21 596 104 hstem
          132 111 vstem
          30 700 rmoveto
          -14 -6 -6 -14 hvcurveto
          -84 122 -596 21 vlineto
          -19 -110 rlineto
          0 14 6 31 19 7 -11 -21 -17 -5 -15 -23 -23 -16 20 -7 -7 vhcurveto
          -7 -7 -9 -44 0 vvcurveto
          0 26 -15 34 57 33 43 50 50 -25 21 -26 vhcurveto
          -16 hlineto
          11 58 rlineto
          33 1 1 4 14 vvcurveto
          576 107 vlineto
          14 6 4 16 hvcurveto
          84 vlineto
          endchar
        </CharString>
        <CharString name="Tcommaaccent">
          11 21 -21 596 104 hstem
          132 111 vstem
          30 700 rmoveto
          -14 -6 -6 -14 hvcurveto
          -84 122 -596 vlineto
          109 2 0 20 hvcurveto
          576 107 vlineto
          14 6 4 16 hvcurveto
          84 vlineto
          -182 -737 rmoveto
          -36 -27 -29 -36 -27 6 -20 22 -13 hvcurveto
          -4 -26 0 -10 -23 -39 rrcurveto
          -24 6 15 -5 20 hhcurveto
          21 71 73 83 47 -25 26 -46 hvcurveto
          endchar
        </CharString>
        <CharString name="Tecy">
          11 21 -21 596 104 hstem
          132 111 vstem
          30 700 rmoveto
          -14 -6 -6 -14 hvcurveto
          -84 122 -596 vlineto
          109 2 0 20 hvcurveto
          576 107 vlineto
          14 6 4 16 hvcurveto
          84 vlineto
          endchar
        </CharString>
        <CharString name="Thorn">
          -20 21 -21 140 102 232 96 130 -20 hstem
          30 111 73 125 vstem
          141 570 rmoveto
          130 -35 vlineto
          -63 -13 -3 -24 hvcurveto
          -673 vlineto
          106 5 0 20 hvcurveto
          120 8 vlineto
          94 96 44 180 163 -69 43 -126 hvcurveto
          -3 -99 rmoveto
          1 11 3 16 hhcurveto
          32 13 -32 -64 -112 -20 -24 -32 hvcurveto
          -12 -8 4 -1 hhcurveto
          endchar
        </CharString>
        <CharString name="Tsecy">
          55 0 104 596 -20 hstem
          45 111 91 111 vstem
          408 104 rmoveto
          -50 596 hlineto
          -110 -1 0 -20 hvcurveto
          -576 -91 596 vlineto
          -110 -1 0 -20 hvcurveto
          -680 266 vlineto
          4 -59 13 -45 14 -53 rrcurveto
          55 11 4 28 hvcurveto
          endchar
        </CharString>
        <CharString name="Tshecy">
          87 21 -21 507 -20 109 104 hstem
          127 111 73 115 vstem
          238 596 rmoveto
          107 hlineto
          14 6 4 16 hvcurveto
          84 -335 vlineto
          -14 -6 -6 -14 hvcurveto
          -84 117 -596 vlineto
          109 2 0 20 hvcurveto
          383 vlineto
          8 12 14 4 14 hhcurveto
          28 5 -16 -53 hvcurveto
          -346 vlineto
          112 3 0 20 hvcurveto
          361 vlineto
          100 -42 29 -101 -14 -15 -1 -2 -16 vhcurveto
          endchar
        </CharString>
        <CharString name="U">
          43 -10 102 608 -20 hstem
          30 115 123 113 vstem
          145 700 rmoveto
          -115 0 0 -21 hvcurveto
          -487 vlineto
          -111 22 -91 157 85 63 22 16 24 vhcurveto
          672 vlineto
          -113 0 0 -21 hvcurveto
          -575 vlineto
          -7 -13 -22 -5 -24 hhcurveto
          -53 -11 31 65 hvcurveto
          endchar
        </CharString>
        <CharString name="Uacute">
          43 -10 102 608 -20 hstem
          30 115 123 113 vstem
          168 749 rmoveto
          12 1 102 68 25 28 rrcurveto
          37 -6 -20 45 -24 hhcurveto
          -12 -85 -71 -47 -35 hvcurveto
          0 14 -61 29 vhcurveto
          -23 -49 rmoveto
          -115 0 0 -21 hvcurveto
          -487 vlineto
          -111 22 -91 157 85 63 22 16 24 vhcurveto
          672 vlineto
          -113 0 0 -21 hvcurveto
          -575 vlineto
          -7 -13 -22 -5 -24 hhcurveto
          -53 -11 31 65 hvcurveto
          endchar
        </CharString>
        <CharString name="Ucircumflex">
          43 -10 102 608 -20 223 14 hstem
          30 115 123 113 vstem
          73 780 rmoveto
          -21 16 24 -8 35 hhcurveto
          24 38 68 0 hvcurveto
          20 -38 34 -31 0 vvcurveto
          38 38 5 22 26 -98 100 0 hvcurveto
          10 -9 -12 4 -10 hhcurveto
          -8 -7 -1 -2 -6 hvcurveto
          -45 -214 rmoveto
          -115 0 0 -21 hvcurveto
          -487 vlineto
          -111 22 -91 157 85 63 22 16 24 vhcurveto
          672 vlineto
          -113 0 0 -21 hvcurveto
          -575 vlineto
          -7 -13 -22 -5 -24 hhcurveto
          -53 -11 31 65 hvcurveto
          endchar
        </CharString>
        <CharString name="Ucy">
          6 -5 98 607 -20 hstem
          7 363 vstem
          370 700 rmoveto
          -79 hlineto
          -26 -6 -12 -25 -6 hvcurveto
          -27 -146 -18 -98 -13 -79 -4 -65 rlinecurve
          -7 65 -8 81 -20 96 -40 183 rcurveline
          -79 hlineto
          -22 -8 -3 -13 -8 3 -12 5 -22 hvcurveto
          25 -112 80 -315 27 -74 rrcurveto
          -31 -4 -7 -17 -18 hhcurveto
          -14 -24 10 13 -20 hvcurveto
          -14 -28 -4 -24 -12 vvcurveto
          -38 37 -19 49 90 13 62 97 22 vhcurveto
          endchar
        </CharString>
        <CharString name="Udieresis">
          43 -10 102 608 -20 70 150 hstem
          30 115 123 113 vstem
          146 900 rmoveto
          -40 -18 -30 -44 -59 20 -17 31 37 20 29 52 51 -12 18 -38 hvcurveto
          129 hmoveto
          -39 -19 -30 -44 -59 19 -17 32 37 20 29 52 51 -11 18 -39 hvcurveto
          -130 -200 rmoveto
          -115 0 0 -21 hvcurveto
          -487 vlineto
          -111 22 -91 157 85 63 22 16 24 vhcurveto
          672 vlineto
          -113 0 0 -21 hvcurveto
          -575 vlineto
          -7 -13 -22 -5 -24 hhcurveto
          -53 -11 31 65 hvcurveto
          endchar
        </CharString>
        <CharString name="Ugrave">
          43 -10 102 608 -20 hstem
          30 115 123 113 vstem
          176 918 rmoveto
          -25 -20 -45 -36 -6 hvcurveto
          25 -29 103 -68 11 -1 rrcurveto
          29 14 61 0 hvcurveto
          47 -34 -85 71 -12 hhcurveto
          -31 -218 rmoveto
          -115 0 0 -21 hvcurveto
          -487 vlineto
          -111 22 -91 157 85 63 22 16 24 vhcurveto
          672 vlineto
          -113 0 0 -21 hvcurveto
          -575 vlineto
          -7 -13 -22 -5 -24 hhcurveto
          -53 -11 31 65 hvcurveto
          endchar
        </CharString>
        <CharString name="Uhungarumlaut">
          43 -10 102 608 -20 hstem
          30 115 123 113 vstem
          160 920 rmoveto
          -12 -4 -57 -82 -18 -48 rrcurveto
          0 31 -54 28 7 vhcurveto
          10 4 74 82 14 31 -15 32 -31 38 -24 -6 rrcurveto
          140 hmoveto
          -12 -4 -56 -82 -18 -48 rrcurveto
          0 29 -54 29 7 vhcurveto
          10 4 73 82 15 31 -16 32 -31 38 -23 -6 rrcurveto
          -155 -220 rmoveto
          -115 0 0 -21 hvcurveto
          -487 vlineto
          -111 22 -91 157 85 63 22 16 24 vhcurveto
          672 vlineto
          -113 0 0 -21 hvcurveto
          -575 vlineto
          -7 -13 -22 -5 -24 hhcurveto
          -53 -11 31 65 hvcurveto
          endchar
        </CharString>
        <CharString name="Umacron">
          43 -10 102 608 -20 88 104 hstem
          30 115 123 113 vstem
          306 768 rmoveto
          25 16 24 33 15 -3 16 -8 16 hvcurveto
          -226 hlineto
          -28 -16 -23 -32 -16 1 -15 7 -18 hvcurveto
          71 -68 rmoveto
          -115 0 0 -21 hvcurveto
          -487 vlineto
          -111 22 -91 157 85 63 22 16 24 vhcurveto
          672 vlineto
          -113 0 0 -21 hvcurveto
          -575 vlineto
          -7 -13 -22 -5 -24 hhcurveto
          -53 -11 31 65 hvcurveto
          endchar
        </CharString>
        <CharString name="Uogonek">
          43 -195 77 108 102 608 -20 hstem
          30 115 123 113 vstem
          381 700 rmoveto
          -113 0 0 -21 hvcurveto
          -575 vlineto
          -7 -13 -22 -5 -24 hhcurveto
          -53 -11 31 65 hvcurveto
          512 vlineto
          -115 0 0 -21 hvcurveto
          -487 vlineto
          -111 22 -91 157 15 15 1 1 13 vhcurveto
          -20 -30 -15 -35 -33 vvcurveto
          -70 41 -19 48 41 29 11 30 10 -4 19 -7 14 vhcurveto
          -5 -7 -8 -2 -10 hhcurveto
          -18 -7 9 19 33 28 50 38 35 hvcurveto
          endchar
        </CharString>
        <CharString name="Uring">
          43 -10 102 608 -20 186 72 hstem
          30 115 123 113 vstem
          102 833 rmoveto
          -81 34 -23 68 70 37 34 72 80 -32 23 -69 -68 -40 -32 -73 vhcurveto
          77 hmoveto
          22 11 11 20 17 9 -11 -21 -26 -13 -7 -17 -18 -9 11 21 vhcurveto
          -34 -133 rmoveto
          -115 0 0 -21 hvcurveto
          -487 vlineto
          -111 22 -91 157 85 63 22 16 24 vhcurveto
          672 vlineto
          -113 0 0 -21 hvcurveto
          -575 vlineto
          -7 -13 -22 -5 -24 hhcurveto
          -53 -11 31 65 hvcurveto
          endchar
        </CharString>
        <CharString name="Ushortcy">
          6 -5 98 607 -20 79 74 hstem
          7 363 vstem
          120 917 rmoveto
          -48 -14 -18 -19 -28 vvcurveto
          -53 6 53 -44 74 hhcurveto
          87 32 40 62 28 hvcurveto
          -9 32 -61 35 -7 -24 rrcurveto
          -44 -13 -12 -27 -41 hhcurveto
          -43 -14 25 59 -14 hvcurveto
          250 -217 rmoveto
          -79 hlineto
          -26 -6 -12 -25 -6 hvcurveto
          -27 -146 -18 -98 -13 -79 -4 -65 rlinecurve
          -7 65 -8 81 -20 96 -40 183 rcurveline
          -79 hlineto
          -22 -8 -3 -13 -8 3 -12 5 -22 hvcurveto
          25 -112 80 -315 27 -74 rrcurveto
          -31 -4 -7 -17 -18 hhcurveto
          -14 -24 10 13 -20 hvcurveto
          -14 -28 -4 -23 -12 vvcurveto
          -40 39 -19 51 1 vhcurveto
          87 3 13 60 21 96 rrcurveto
          endchar
        </CharString>
        <CharString name="Ustraitstrokecy">
          -1 21 -21 168 104 428 -20 hstem
          131 111 vstem
          242 272 rmoveto
          22 vlineto
          122 406 rlineto
          -113 0 0 -20 -6 hvcurveto
          -24 -110 -11 -49 -15 -100 -4 -45 rlinecurve
          -4 45 -14 99 -11 49 -29 131 rcurveline
          -130 -2 0 -17 5 hvcurveto
          125 -396 rlineto
          -15 -42 vlineto
          -28 -17 -23 -31 -16 1 -15 7 -19 hvcurveto
          79 -168 hlineto
          113 -2 0 20 hvcurveto
          148 42 vlineto
          26 16 25 32 15 -3 16 -8 16 hvcurveto
          endchar
        </CharString>
        <CharString name="V">
          51 15 -21 677 29 hstem
          5 410 vstem
          415 700 rmoveto
          -98 hlineto
          -20 -4 -9 -21 -3 hvcurveto
          -44 -298 -15 -99 -12 -116 -6 -66 rlinecurve
          -8 66 -14 116 -15 99 -51 328 rcurveline
          -93 hlineto
          -21 -6 -4 -10 -4 1 -5 1 -6 hvcurveto
          0 81 -459 35 -159 vhcurveto
          -33 7 18 -26 37 hhcurveto
          43 21 2 4 33 hvcurveto
          endchar
        </CharString>
        <CharString name="Vecy">
          24 0 96 234 94 179 97 hstem
          45 113 73 132 vstem
          45 hmoveto
          131 hlineto
          134 53 105 133 117 -66 23 -49 5 hvcurveto
          44 6 48 52 102 vvcurveto
          130 -85 27 -84 vhcurveto
          -98 hlineto
          -22 -6 -7 -13 hvcurveto
          113 -256 rmoveto
          179 24 vlineto
          19 16 -13 -71 -57 -14 -38 -25 hvcurveto
          -20 -328 rmoveto
          234 23 vlineto
          32 18 -11 -91 -83 -20 -49 -32 hvcurveto
          endchar
        </CharString>
        <CharString name="W">
          299 -5 118 558 29 hstem
          6 657 vstem
          566 700 rmoveto
          -19 -4 -9 -21 -3 hvcurveto
          -43 -298 -12 -84 -9 -102 -3 -73 rlinecurve
          -8 hlineto
          -5 66 -7 94 -17 99 -52 298 rcurveline
          -72 hlineto
          -6 hlineto
          -21 -3 -9 -21 -3 hvcurveto
          -43 -268 -13 -80 -10 -88 -2 -91 rlinecurve
          -8 hlineto
          -4 66 -9 94 -15 99 -50 328 rcurveline
          -93 hlineto
          -20 -6 -4 -12 -4 0 -4 1 -5 hvcurveto
          0 72 -452 33 -162 vhcurveto
          -35 7 17 -27 30 hhcurveto
          48 19 1 4 39 hvcurveto
          28 168 12 71 11 108 8 80 rlinecurve
          7 -81 12 -107 14 -71 23 -111 rcurveline
          -40 8 17 -23 34 hhcurveto
          43 10 1 5 44 hvcurveto
          120 700 rlineto
          endchar
        </CharString>
        <CharString name="Wacute">
          299 -5 118 558 29 hstem
          6 657 vstem
          295 749 rmoveto
          12 1 103 68 24 28 rrcurveto
          37 -5 -20 45 -25 hhcurveto
          -12 -85 -71 -47 -34 hvcurveto
          0 14 -61 28 vhcurveto
          271 -49 rmoveto
          -19 -4 -9 -21 -3 hvcurveto
          -43 -298 -12 -84 -9 -102 -3 -73 rlinecurve
          -8 hlineto
          -5 66 -7 94 -17 99 -52 298 rcurveline
          -72 hlineto
          -6 hlineto
          -21 -3 -9 -21 -3 hvcurveto
          -43 -268 -13 -80 -10 -88 -2 -91 rlinecurve
          -8 hlineto
          -4 66 -9 94 -15 99 -50 328 rcurveline
          -93 hlineto
          -26 -3 -7 -22 4 hvcurveto
          0 72 -452 33 -162 vhcurveto
          -35 7 17 -27 30 hhcurveto
          48 19 1 4 39 hvcurveto
          28 168 12 71 11 108 8 80 rlinecurve
          7 -81 12 -107 14 -71 23 -111 rcurveline
          -40 8 17 -23 34 hhcurveto
          43 10 1 5 44 hvcurveto
          120 700 rlineto
          endchar
        </CharString>
        <CharString name="Wcircumflex">
          299 -5 118 558 29 203 14 hstem
          6 657 vstem
          200 780 rmoveto
          -21 17 24 -8 34 hhcurveto
          24 39 68 0 hvcurveto
          20 -38 33 -31 0 vvcurveto
          38 39 5 22 26 -98 100 0 hvcurveto
          10 -9 -12 4 -10 hhcurveto
          -8 -7 -1 -2 -7 hvcurveto
          249 -214 rmoveto
          -19 -4 -9 -21 -3 hvcurveto
          -43 -298 -12 -84 -9 -102 -3 -73 rlinecurve
          -8 hlineto
          -5 66 -7 94 -17 99 -52 298 rcurveline
          -72 hlineto
          -6 hlineto
          -21 -3 -9 -21 -3 hvcurveto
          -43 -268 -13 -80 -10 -88 -2 -91 rlinecurve
          -8 hlineto
          -4 66 -9 94 -15 99 -50 328 rcurveline
          -93 hlineto
          -26 -3 -7 -22 4 hvcurveto
          0 72 -452 33 -162 vhcurveto
          -35 7 17 -27 30 hhcurveto
          48 19 1 4 39 hvcurveto
          28 168 12 71 11 108 8 80 rlinecurve
          7 -81 12 -107 14 -71 23 -111 rcurveline
          -40 8 17 -23 34 hhcurveto
          43 10 1 5 44 hvcurveto
          120 700 rlineto
          endchar
        </CharString>
        <CharString name="Wdieresis">
          299 -5 118 558 29 50 150 hstem
          344 108 vstem
          266 750 rmoveto
          38 20 29 52 51 -12 18 -39 -40 -18 -30 -44 -59 20 -17 31 hvcurveto
          130 hmoveto
          36 20 29 52 51 -11 18 -38 -40 -19 -30 -44 -59 20 -17 32 hvcurveto
          170 -50 rmoveto
          -19 -4 -9 -21 -3 hvcurveto
          -43 -298 -12 -84 -9 -102 -3 -73 rlinecurve
          -8 hlineto
          -5 66 -7 94 -17 99 -52 298 rcurveline
          -72 hlineto
          -6 hlineto
          -21 -3 -9 -21 -3 hvcurveto
          -43 -268 -13 -80 -10 -88 -2 -91 rlinecurve
          -8 hlineto
          -4 66 -9 94 -15 99 -50 328 rcurveline
          -93 hlineto
          -26 -3 -7 -22 4 hvcurveto
          0 72 -452 33 -162 vhcurveto
          -35 7 17 -27 30 hhcurveto
          48 19 1 4 39 hvcurveto
          28 168 12 71 11 108 8 80 rlinecurve
          7 -81 12 -107 14 -71 23 -111 rcurveline
          -40 8 17 -23 34 hhcurveto
          43 10 1 5 44 hvcurveto
          120 700 rlineto
          endchar
        </CharString>
        <CharString name="Wgrave">
          299 -5 118 558 29 hstem
          6 657 vstem
          392 739 rmoveto
          29 13 61 0 hvcurveto
          47 -34 -85 71 -12 hhcurveto
          -24 -20 -45 -36 -6 hvcurveto
          25 -29 102 -68 12 -1 rrcurveto
          174 -39 rmoveto
          -19 -4 -9 -21 -3 hvcurveto
          -43 -298 -12 -84 -9 -102 -3 -73 rlinecurve
          -8 hlineto
          -5 66 -7 94 -17 99 -52 298 rcurveline
          -72 hlineto
          -6 hlineto
          -21 -3 -9 -21 -3 hvcurveto
          -43 -268 -13 -80 -10 -88 -2 -91 rlinecurve
          -8 hlineto
          -4 66 -9 94 -15 99 -50 328 rcurveline
          -93 hlineto
          -26 -3 -7 -22 4 hvcurveto
          0 72 -452 33 -162 vhcurveto
          -35 7 17 -27 30 hhcurveto
          48 19 1 4 39 hvcurveto
          28 168 12 71 11 108 8 80 rlinecurve
          7 -81 12 -107 14 -71 23 -111 rcurveline
          -40 8 17 -23 34 hhcurveto
          43 10 1 5 44 hvcurveto
          120 700 rlineto
          endchar
        </CharString>
        <CharString name="X">
          52 21 -21 700 -20 hstem
          7 405 vstem
          285 373 rmoveto
          112 327 rlineto
          -113 0 0 -18 -5 hvcurveto
          -26 -87 -12 -40 -10 -43 -7 -32 rlinecurve
          -7 32 -9 43 -12 40 -29 105 rcurveline
          -130 -9 0 -19 6 hvcurveto
          109 -322 -136 -359 rlineto
          96 hlineto
          12 5 3 11 6 hvcurveto
          39 103 15 40 13 45 9 34 rlinecurve
          9 -34 13 -45 13 -40 38 -117 rcurveline
          123 hlineto
          10 4 3 5 2 -1 3 -2 3 hvcurveto
          endchar
        </CharString>
        <CharString name="Y">
          -1 21 -21 700 -20 hstem
          131 111 vstem
          242 294 rmoveto
          122 406 rlineto
          -113 0 0 -20 -6 hvcurveto
          -24 -110 -11 -49 -15 -100 -4 -45 rlinecurve
          -4 45 -14 99 -11 49 -29 131 rcurveline
          -130 -2 0 -17 5 hvcurveto
          125 -396 rlineto
          -287 vlineto
          113 -2 0 20 hvcurveto
          endchar
        </CharString>
        <CharString name="Yacute">
          -1 21 -21 700 -20 hstem
          131 111 vstem
          146 749 rmoveto
          11 1 103 68 25 28 rrcurveto
          37 -6 -20 45 -25 hhcurveto
          -12 -85 -71 -47 -34 hvcurveto
          0 14 -61 29 vhcurveto
          96 -455 rmoveto
          122 406 rlineto
          -113 0 0 -20 -6 hvcurveto
          -24 -110 -11 -49 -15 -100 -4 -45 rlinecurve
          -4 45 -14 99 -11 49 -29 131 rcurveline
          -130 -2 0 -17 5 hvcurveto
          125 -396 rlineto
          -287 vlineto
          113 -2 0 20 hvcurveto
          endchar
        </CharString>
        <CharString name="Ycircumflex">
          -1 21 -21 700 -20 223 14 hstem
          131 111 vstem
          50 780 rmoveto
          -21 17 24 -8 35 hhcurveto
          23 39 68 0 hvcurveto
          20 -38 33 -31 0 vvcurveto
          38 39 5 22 26 -98 100 0 hvcurveto
          10 -9 -12 4 -10 hhcurveto
          -8 -7 -1 -2 -7 hvcurveto
          75 -620 rmoveto
          122 406 rlineto
          -113 0 0 -20 -6 hvcurveto
          -24 -110 -11 -49 -15 -100 -4 -45 rlinecurve
          -4 45 -14 99 -11 49 -29 131 rcurveline
          -130 -2 0 -17 5 hvcurveto
          125 -396 rlineto
          -287 vlineto
          113 -2 0 20 hvcurveto
          endchar
        </CharString>
        <CharString name="Ydieresis">
          -1 21 -21 700 -20 70 150 hstem
          131 111 vstem
          116 750 rmoveto
          38 20 29 52 51 -12 18 -39 -40 -17 -30 -44 -59 19 -17 31 hvcurveto
          130 hmoveto
          37 19 29 52 51 -11 18 -38 -40 -19 -30 -44 -59 20 -17 32 hvcurveto
          -4 -456 rmoveto
          122 406 rlineto
          -113 0 0 -20 -6 hvcurveto
          -24 -110 -11 -49 -15 -100 -4 -45 rlinecurve
          -4 45 -14 99 -11 49 -29 131 rcurveline
          -130 -2 0 -17 5 hvcurveto
          125 -396 rlineto
          -287 vlineto
          113 -2 0 20 hvcurveto
          endchar
        </CharString>
        <CharString name="Yerucy">
          175 0 97 224 104 275 -20 hstem
          45 111 63 131 51 113 vstem
          156 700 rmoveto
          -113 2 0 -20 hvcurveto
          -680 134 vlineto
          99 72 83 160 125 -44 57 -120 hvcurveto
          -30 hlineto
          245 -425 rmoveto
          112 1 0 20 hvcurveto
          680 vlineto
          -111 -2 0 -49 hvcurveto
          -221 -330 rmoveto
          34 5 -17 -72 -109 -10 -26 -31 -11 -6 0 2 -5 hvcurveto
          222 vlineto
          endchar
        </CharString>
        <CharString name="Ygrave">
          -1 21 -21 700 -20 hstem
          131 111 vstem
          242 739 rmoveto
          29 14 61 0 hvcurveto
          47 -35 -85 71 -11 hhcurveto
          -25 -20 -45 -36 -6 hvcurveto
          25 -29 102 -68 12 -1 rrcurveto
          -445 vmoveto
          122 406 rlineto
          -113 0 0 -20 -6 hvcurveto
          -24 -110 -11 -49 -15 -100 -4 -45 rlinecurve
          -4 45 -14 99 -11 49 -29 131 rcurveline
          -130 -2 0 -17 5 hvcurveto
          125 -396 rlineto
          -287 vlineto
          113 -2 0 20 hvcurveto
          endchar
        </CharString>
        <CharString name="Yicy">
          -195 21 -21 700 -20 70 150 hstem
          30 113 vstem
          26 900 rmoveto
          -40 -17 -30 -44 hvcurveto
          -59 -1 20 -17 31 hhcurveto
          38 20 29 52 51 -12 18 -39 hvcurveto
          130 hmoveto
          -40 -19 -30 -44 -59 20 -17 32 37 19 29 52 51 -11 18 -38 hvcurveto
          -126 -900 rmoveto
          112 1 0 20 hvcurveto
          680 vlineto
          -111 -2 0 -49 hvcurveto
          endchar
        </CharString>
        <CharString name="Z">
          7 0 98 504 98 hstem
          13 344 vstem
          25 597 rmoveto
          4 14 19 1 14 hhcurveto
          157 hlineto
          -207 -513 rlineto
          -7 -18 -2 -13 -15 vvcurveto
          -20 7 -14 8 -9 vhcurveto
          309 hlineto
          16 4 8 12 hvcurveto
          88 vlineto
          -8 -19 -23 -2 -25 hhcurveto
          -156 hlineto
          212 520 rlineto
          6 15 4 16 0 16 0 17 -4 8 -6 10 50 flex
          -300 hlineto
          -12 -9 -8 -13 hvcurveto
          endchar
        </CharString>
        <CharString name="Zacute">
          7 0 98 504 98 hstem
          13 344 vstem
          150 749 rmoveto
          12 1 102 68 25 28 rrcurveto
          37 -6 -20 45 -25 hhcurveto
          -12 -84 -71 -47 -35 hvcurveto
          0 14 -61 29 vhcurveto
          -125 -152 rmoveto
          4 14 19 1 14 hhcurveto
          157 hlineto
          -207 -513 rlineto
          -7 -18 -2 -13 -15 vvcurveto
          -20 7 -14 8 -9 vhcurveto
          309 hlineto
          16 4 8 12 hvcurveto
          88 vlineto
          -8 -19 -23 -2 -25 hhcurveto
          -156 hlineto
          212 520 rlineto
          6 15 4 16 0 16 0 17 -4 8 -6 10 50 flex
          -300 hlineto
          -12 -9 -8 -13 hvcurveto
          endchar
        </CharString>
        <CharString name="Zcaron">
          7 0 98 504 98 hstem
          13 344 vstem
          194 742 rmoveto
          19 94 99 25 16 -17 18 -27 14 hvcurveto
          0 -30 -16 -34 -53 vhcurveto
          0 -58 75 -23 -16 -21 -38 -32 -11 vhcurveto
          -32 21 80 -76 23 hhcurveto
          -169 -145 rmoveto
          4 14 19 1 14 hhcurveto
          157 hlineto
          -207 -513 rlineto
          -7 -18 -2 -13 -15 vvcurveto
          -20 7 -14 8 -9 vhcurveto
          309 hlineto
          16 4 8 12 hvcurveto
          88 vlineto
          -8 -19 -23 -2 -25 hhcurveto
          -156 hlineto
          212 520 rlineto
          6 15 4 16 0 16 0 17 -4 8 -6 10 50 flex
          -300 hlineto
          -12 -9 -8 -13 hvcurveto
          endchar
        </CharString>
        <CharString name="Zdotaccent">
          7 0 98 504 98 hstem
          132 113 vstem
          132 826 rmoveto
          -62 20 -18 33 39 21 32 53 54 -12 19 -41 -42 -18 -32 -46 vhcurveto
          -107 -229 rmoveto
          4 14 19 1 14 hhcurveto
          157 hlineto
          -207 -513 rlineto
          -7 -18 -2 -13 -15 vvcurveto
          -20 7 -14 8 -9 vhcurveto
          309 hlineto
          16 4 8 12 hvcurveto
          88 vlineto
          -8 -19 -23 -2 -25 hhcurveto
          -156 hlineto
          212 520 rlineto
          6 15 4 16 0 16 0 17 -4 8 -6 10 50 flex
          -300 hlineto
          -12 -9 -8 -13 hvcurveto
          endchar
        </CharString>
        <CharString name="Zecy">
          -6 -10 108 212 102 191 107 hstem
          229 119 vstem
          91 412 rmoveto
          -71 vlineto
          -20 10 -11 18 vhcurveto
          36 hlineto
          46 28 -32 -57 -91 -20 -32 -51 -54 -35 16 28 -28 hvcurveto
          -16 -24 -5 -21 -23 vvcurveto
          -48 53 -36 96 129 50 84 153 73 -26 57 -50 31 vhcurveto
          26 37 25 67 62 vvcurveto
          96 -49 60 -102 -111 -18 -56 -30 -21 15 -20 17 -23 vhcurveto
          28 24 32 15 23 hhcurveto
          32 17 -30 -54 -39 -5 -37 -10 -31 hvcurveto
          endchar
        </CharString>
        <CharString name="Zhecy">
          220 21 -21 315 101 285 -20 hstem
          241 107 vstem
          415 488 rmoveto
          -50 -7 -22 -22 -21 hhcurveto
          -17 284 hlineto
          -107 0 0 -19 hvcurveto
          -265 -17 vlineto
          -21 -22 22 50 -7 hvcurveto
          -33 205 rlineto
          6 -25 -24 2 -18 hhcurveto
          -33 -11 -4 -15 hvcurveto
          -2 1 -3 -3 vvcurveto
          39 -203 10 -48 21 -31 23 -15 rlinecurve
          -45 -26 -26 -64 -5 -87 -14 -180 rcurveline
          -17 -1 8 -5 38 hhcurveto
          22 24 1 2 26 hvcurveto
          12 186 rlineto
          111 6 27 17 32 hhcurveto
          13 -315 hlineto
          107 0 0 19 hvcurveto
          296 13 vlineto
          32 27 -17 -111 6 hvcurveto
          12 -186 rlineto
          -2 25 24 -1 23 hhcurveto
          38 8 5 17 -1 hvcurveto
          -14 180 -5 87 -26 64 -45 26 rlinecurve
          23 15 21 31 10 48 38 203 rcurveline
          1 3 0 3 2 vvcurveto
          15 -11 4 -32 -18 -25 -2 -6 -24 vhcurveto
          endchar
        </CharString>
        <CharString name="a">
          -30 -10 91 149 81 92 107 hstem
          20 117 63 111 vstem
          311 388 rmoveto
          90 -34 32 -92 -80 -55 -18 -11 -14 vhcurveto
          -9 -7 -5 -16 -12 vvcurveto
          -16 3 -25 12 -23 vhcurveto
          12 33 50 9 38 hhcurveto
          31 11 -11 -27 hvcurveto
          -69 vlineto
          12 -18 -31 3 -15 hhcurveto
          -59 -57 -28 -137 -139 68 -17 74 60 50 12 20 34 hvcurveto
          5 74 0 130 115 vvcurveto
          -111 -120 rmoveto
          -42 0 -65 -2 -23 vhcurveto
          -7 -6 -12 -3 -10 hhcurveto
          -25 -8 19 49 65 14 16 23 8 11 -3 -6 7 hvcurveto
          endchar
        </CharString>
        <CharString name="aacute">
          -30 -10 91 149 81 92 107 hstem
          20 117 63 111 vstem
          131 549 rmoveto
          12 1 102 68 25 28 rrcurveto
          37 -6 -20 45 -25 hhcurveto
          -12 -84 -71 -47 -35 hvcurveto
          0 14 -61 29 vhcurveto
          180 -161 rmoveto
          90 -34 32 -92 -80 -55 -18 -11 -14 vhcurveto
          -9 -7 -5 -16 -12 vvcurveto
          -16 3 -25 12 -23 vhcurveto
          12 33 50 9 38 hhcurveto
          31 11 -11 -27 hvcurveto
          -69 vlineto
          12 -18 -31 3 -15 hhcurveto
          -59 -57 -28 -137 -139 68 -17 74 60 50 12 20 34 hvcurveto
          5 74 0 130 115 vvcurveto
          -111 -120 rmoveto
          -42 0 -65 -2 -23 vhcurveto
          -7 -6 -12 -3 -10 hhcurveto
          -25 -8 19 49 65 14 16 23 8 11 -3 -6 7 hvcurveto
          endchar
        </CharString>
        <CharString name="abreve">
          -30 -10 91 149 81 92 107 32 106 hstem
          20 117 63 111 vstem
          88 717 rmoveto
          -43 -17 -14 -18 -28 vvcurveto
          -55 69 -57 63 74 45 46 67 25 vhcurveto
          -7 36 -45 43 -21 -32 rrcurveto
          -24 -14 -17 -30 -39 hhcurveto
          -39 -26 41 28 -11 hvcurveto
          223 -329 rmoveto
          90 -34 32 -92 -80 -55 -18 -11 -14 vhcurveto
          -9 -7 -5 -16 -12 vvcurveto
          -16 3 -25 12 -23 vhcurveto
          12 33 50 9 38 hhcurveto
          31 11 -11 -27 hvcurveto
          -69 vlineto
          12 -18 -31 3 -15 hhcurveto
          -59 -57 -28 -137 -139 68 -17 74 60 50 12 20 34 hvcurveto
          5 74 0 130 115 vvcurveto
          -111 -120 rmoveto
          -42 0 -65 -2 -23 vhcurveto
          -7 -6 -12 -3 -10 hhcurveto
          -25 -8 19 49 65 14 16 23 8 11 -3 -6 7 hvcurveto
          endchar
        </CharString>
        <CharString name="acircumflex">
          -30 -10 91 149 81 92 107 193 14 hstem
          20 117 63 111 vstem
          35 580 rmoveto
          -21 17 24 -8 35 hhcurveto
          24 38 68 0 hvcurveto
          20 -38 34 -31 0 vvcurveto
          37 39 5 22 26 -98 100 0 hvcurveto
          10 -9 -12 4 -10 hhcurveto
          -8 -7 -1 -2 -7 hvcurveto
          159 -326 rmoveto
          90 -34 32 -92 -80 -55 -18 -11 -14 vhcurveto
          -9 -7 -5 -16 -12 vvcurveto
          -16 3 -25 12 -23 vhcurveto
          12 33 50 9 38 hhcurveto
          31 11 -11 -27 hvcurveto
          -69 vlineto
          12 -18 -31 3 -15 hhcurveto
          -59 -57 -28 -137 -139 68 -17 74 60 50 12 20 34 hvcurveto
          5 74 0 130 115 vvcurveto
          -111 -120 rmoveto
          -42 0 -65 -2 -23 vhcurveto
          -7 -6 -12 -3 -10 hhcurveto
          -25 -8 19 49 65 14 16 23 8 11 -3 -6 7 hvcurveto
          endchar
        </CharString>
        <CharString name="acute">
          -89 549 179 hstem
          49 182 vstem
          92 549 rmoveto
          11 1 103 68 25 28 rrcurveto
          37 -6 -20 45 -25 hhcurveto
          -12 -85 -71 -47 -34 hvcurveto
          0 14 -61 29 vhcurveto
          endchar
        </CharString>
        <CharString name="acy">
          -30 -10 91 149 81 92 107 hstem
          20 117 63 111 vstem
          311 388 rmoveto
          90 -34 32 -92 -80 -55 -18 -11 -14 vhcurveto
          -9 -7 -5 -16 -12 vvcurveto
          -16 3 -25 12 -23 vhcurveto
          12 33 50 9 38 hhcurveto
          31 11 -11 -27 hvcurveto
          -69 vlineto
          12 -18 -31 3 -15 hhcurveto
          -59 -57 -28 -137 -139 68 -17 74 60 50 12 20 34 hvcurveto
          5 74 0 130 115 vvcurveto
          -111 -120 rmoveto
          -42 0 -65 -2 -23 vhcurveto
          -7 -6 -12 -3 -10 hhcurveto
          -25 -8 19 49 65 14 16 23 8 11 -3 -6 7 hvcurveto
          endchar
        </CharString>
        <CharString name="adieresis">
          -30 -10 91 149 81 92 107 40 150 hstem
          20 117 63 111 vstem
          311 388 rmoveto
          90 -34 32 -92 -80 -55 -18 -11 -14 vhcurveto
          -9 -7 -5 -16 -12 vvcurveto
          -16 3 -25 12 -23 vhcurveto
          12 33 50 9 38 hhcurveto
          31 11 -11 -27 hvcurveto
          -69 vlineto
          12 -18 -31 3 -15 hhcurveto
          -59 -57 -28 -137 -139 68 -17 74 60 50 12 20 34 hvcurveto
          5 74 0 130 115 vvcurveto
          -111 -120 rmoveto
          -42 0 -65 -2 -23 vhcurveto
          -7 -6 -12 -3 -10 hhcurveto
          -25 -8 19 49 65 14 16 23 8 11 -3 -6 7 hvcurveto
          -92 479 rmoveto
          -39 -18 -30 -44 -59 20 -17 30 38 20 29 52 51 -12 18 -39 hvcurveto
          130 hmoveto
          -40 -19 -30 -44 -59 20 -17 32 37 20 29 52 51 -11 18 -39 hvcurveto
          endchar
        </CharString>
        <CharString name="ae">
          168 -9 107 103 85 126 98 hstem
          20 117 63 121 81 108 vstem
          376 98 rmoveto
          -42 -11 13 96 -2 hvcurveto
          -3 23 30 -3 38 hhcurveto
          25 28 1 3 31 hvcurveto
          10 39 4 55 48 vvcurveto
          116 -48 47 -80 -42 -36 -7 -30 -27 vhcurveto
          26 -14 -26 11 -45 hhcurveto
          -91 -51 -15 -13 -16 hvcurveto
          -5 -4 -7 -13 -12 vvcurveto
          -8 1 -36 14 -23 vhcurveto
          18 33 38 8 44 hhcurveto
          27 21 -11 -27 hvcurveto
          -58 vlineto
          12 -18 -32 3 -19 hhcurveto
          -56 -55 -40 -136 -155 68 -10 74 52 33 7 15 30 hvcurveto
          -16 22 28 -5 34 hhcurveto
          78 64 21 16 32 -3 46 -6 20 hvcurveto
          -17 -35 -35 -11 -48 hhcurveto
          -9 316 rmoveto
          26 9 -11 -64 -16 -1 -24 -4 -12 hvcurveto
          -1 -6 -7 0 -6 hhcurveto
          -20 -19 3 3 -17 hvcurveto
          83 4 12 39 29 hhcurveto
          -167 -323 rmoveto
          -8 -6 -18 -2 -8 hhcurveto
          -25 -6 11 67 64 14 26 22 9 10 -2 -5 8 hvcurveto
          endchar
        </CharString>
        <CharString name="agrave">
          -30 -10 91 149 81 92 107 hstem
          20 117 63 111 vstem
          139 718 rmoveto
          -25 -20 -45 -36 -6 hvcurveto
          25 -29 103 -68 11 -1 rrcurveto
          29 14 61 0 hvcurveto
          47 -34 -85 71 -12 hhcurveto
          172 -330 rmoveto
          90 -34 32 -92 -80 -55 -18 -11 -14 vhcurveto
          -9 -7 -5 -16 -12 vvcurveto
          -16 3 -25 12 -23 vhcurveto
          12 33 50 9 38 hhcurveto
          31 11 -11 -27 hvcurveto
          -69 vlineto
          12 -18 -31 3 -15 hhcurveto
          -59 -57 -28 -137 -139 68 -17 74 60 50 12 20 34 hvcurveto
          5 74 0 130 115 vvcurveto
          -111 -120 rmoveto
          -42 0 -65 -2 -23 vhcurveto
          -7 -6 -12 -3 -10 hhcurveto
          -25 -8 19 49 65 14 16 23 8 11 -3 -6 7 hvcurveto
          endchar
        </CharString>
        <CharString name="amacron">
          -30 -10 91 149 81 92 107 58 104 hstem
          20 117 63 111 vstem
          268 568 rmoveto
          26 16 24 33 15 -3 16 -8 16 hvcurveto
          -226 hlineto
          -28 -17 -23 -32 -16 1 -15 7 -18 hvcurveto
          275 -180 rmoveto
          90 -34 32 -92 -80 -55 -18 -11 -14 vhcurveto
          -9 -7 -5 -16 -12 vvcurveto
          -16 3 -25 12 -23 vhcurveto
          12 33 50 9 38 hhcurveto
          31 11 -11 -27 hvcurveto
          -69 vlineto
          12 -18 -31 3 -15 hhcurveto
          -59 -57 -28 -137 -139 68 -17 74 60 50 12 20 34 hvcurveto
          5 74 0 130 115 vvcurveto
          -111 -120 rmoveto
          -42 0 -65 -2 -23 vhcurveto
          -7 -6 -12 -3 -10 hhcurveto
          -25 -8 19 49 65 14 16 23 8 11 -3 -6 7 hvcurveto
          endchar
        </CharString>
        <CharString name="ampersand">
          120 -10 104 318 92 104 98 hstem
          15 115 184 108 vstem
          432 412 rmoveto
          40 3 24 27 18 -3 20 0 hvcurveto
          2 -21 -18 1 -27 hhcurveto
          -18 -74 0 -9 -32 hvcurveto
          18 -44 14 -43 -104 vvcurveto
          -13 0 -15 -1 -15 vhcurveto
          -77 110 -68 129 53 vvcurveto
          51 24 4 39 39 34 -6 -30 40 vhcurveto
          19 23 9 35 24 vvcurveto
          32 -63 20 -92 -117 -50 -58 -80 -53 31 -77 43 -80 vhcurveto
          -58 -39 -51 -66 -84 vvcurveto
          -98 44 -81 144 63 45 22 34 33 vhcurveto
          -35 32 25 -21 11 hhcurveto
          23 43 38 50 6 hvcurveto
          -22 9 -29 25 -32 35 rrcurveto
          16 50 5 53 41 vvcurveto
          75 -2 16 -10 30 vhcurveto
          -213 -318 rmoveto
          -45 -22 29 44 53 14 32 28 26 hvcurveto
          33 -53 35 -51 34 -44 rrcurveto
          -22 -17 -24 -14 -36 hhcurveto
          endchar
        </CharString>
        <CharString name="ampersand.ss03">
          50 -45 795 hstem
          184 101 vstem
          274 426 rmoveto
          -3 -17 -25 -2 -13 hhcurveto
          -46 1 -15 24 30 vvcurveto
          35 31 30 57 57 34 -27 -37 30 vhcurveto
          23 28 15 41 20 vvcurveto
          21 -42 43 -78 13 vhcurveto
          107 vlineto
          -66 -35 -5 -35 hvcurveto
          -66 vlineto
          -87 -16 -53 -60 -84 vvcurveto
          -91 47 -15 39 -12 vhcurveto
          -53 -21 -47 -45 -82 vvcurveto
          -96 44 -51 101 -11 vhcurveto
          -105 vlineto
          65 36 5 35 hvcurveto
          66 vlineto
          93 15 41 52 25 vvcurveto
          24 -22 43 -23 26 vhcurveto
          -34 -24 -53 -40 -49 hhcurveto
          -50 -34 12 46 49 45 39 62 4 hvcurveto
          endchar
        </CharString>
        <CharString name="ampersand.ss04">
          251 -10 91 78 98 108 84.5 145.5 89 hstem
          22 115 87 103 74 111 vstem
          401 136 rmoveto
          -116 29 -30 75 85 24 22 20 30 -6 28 0 vhcurveto
          0 -27 -9 -37 -25 -7 21 43 vhcurveto
          238 vlineto
          37 3 rlineto
          44 6 11 18 86 vvcurveto
          0 -51 -9 -41 -4 vhcurveto
          123 vlineto
          -70 -41 -14 -95 hvcurveto
          -27 vlineto
          -123 -19 rlineto
          35 14 14 21 67 vvcurveto
          90 -63 41 -70 -130 -42 -109 -174 -174 48 -68 107 90 65 43 30 40 -25 39 0 vhcurveto
          -28 -19 -57 -26 -43 hhcurveto
          -27 -24 8 100 hvcurveto
          88 176 8 0 hvcurveto
          -177 168 rmoveto
          -28 -3 -46 -55 -15 vhcurveto
          -29 -5 rlineto
          52 4 3 96 51 hhcurveto
          24 5 -31 -23 hvcurveto
          endchar
        </CharString>
        <CharString name="aogonek">
          -30 -174 -21 185 91 149 81 92 107 hstem
          20 117 63 111 vstem
          200 296 rmoveto
          12 -18 -31 3 -15 hhcurveto
          -59 -57 -28 -137 -139 68 -17 74 hvcurveto
          20 hlineto
          -21 -25 -16 -34 -37 vvcurveto
          -70 41 -19 48 32 23 6 16 10 vhcurveto
          3 5 2 6 8 vvcurveto
          10 -3 18 -8 15 vhcurveto
          -6 -9 -8 -1 -8 hhcurveto
          -18 -7 10 18 41 36 46 27 25 hvcurveto
          5 74 0 130 115 vvcurveto
          47 vlineto
          90 -34 32 -92 -80 -55 -18 -11 -14 vhcurveto
          -9 -7 -5 -16 -12 vvcurveto
          -16 3 -25 12 -23 vhcurveto
          12 33 50 9 38 hhcurveto
          31 11 -11 -27 hvcurveto
          -27 -135 rmoveto
          9 11 -3 -6 7 hvcurveto
          -42 0 -65 -2 -23 vhcurveto
          -7 -6 -12 -3 -10 hhcurveto
          -25 -8 19 49 65 14 16 22 hvcurveto
          endchar
        </CharString>
        <CharString name="apple">
          411 -10 134 205 39 206 135 hstem
          30 213 40 55 121 88 38 164 vstem
          389 709 rmoveto
          -218 -141 -141 -219 -218 141 -141 218 219 141 141 218 219 -141 141 -219 hvcurveto
          -106 -294 rmoveto
          -12 4 0 2 vhcurveto
          5 4 1 5 hhcurveto
          10 7 -7 -9 -10 -6 -10 -15 hvcurveto
          -17 -4 5 -13 -15 -2 -21 hflex
          -14 -7 10 10 9 8 7 10 hvcurveto
          6 3 -1 5 hhcurveto
          1 4 0 12 hvcurveto
          112 vlineto
          12 -4 0 -1 vhcurveto
          -4 -5 -1 -5 hhcurveto
          -10 -8 9 9 10 7 8 16 hvcurveto
          12 8 -3 15 14 8 13 hflex
          15 6 -8 -10 -11 -9 -7 -8 hvcurveto
          -5 -3 1 -6 hhcurveto
          -2 -4 0 -12 hvcurveto
          116 51 rmoveto
          28 23 -16 -28 15 hvcurveto
          28 15 24 16 28 hhcurveto
          34 28 -22 -41 -44 -30 -25 -36 -30 hvcurveto
          -21 -17 -22 -18 -20 -25 -19 25 -22 18 -20 17 rrcurveto
          -36 30 -30 25 44 vvcurveto
          41 26 22 35 vhcurveto
          193 -284 rmoveto
          -7 0 -10 -2 hvcurveto
          -118 vlineto
          -23 -5 -21 -22 -15 -8 8 16 -8 vhcurveto
          0 -48 86 -20 37 vhcurveto
          -97 vlineto
          -13 4 0 2 vhcurveto
          3 6 2 4 hhcurveto
          11 7 -7 -12 -8 -6 -8 -16 hvcurveto
          -10 -8 3 -15 -13 -13 -10 hflex
          -16 -5 8 9 11 8 7 10 hvcurveto
          4 6 -2 3 hhcurveto
          2 4 0 12 hvcurveto
          113 vlineto
          12 -4 1 -2 vhcurveto
          -3 -3 -1 -7 hhcurveto
          -7 0 -6 5 -3 4 -2 -4 -5 -5 -9 0 50 flex
          -6 0 1 -7 hhcurveto
          -1 -1 0 -3 -2 hvcurveto
          -57 -91 rlineto
          -36 vlineto
          -5 2 -3 4 vhcurveto
          3 4 3 8 hhcurveto
          11 5 -8 -11 -9 -5 -8 -17 hvcurveto
          -14 -9 3 -14 -13 -7 -14 hflex
          -15 -6 8 8 12 7 8 11 hvcurveto
          6 1 -3 6 hhcurveto
          2 3 3 5 hvcurveto
          34 vlineto
          -57 94 rlineto
          -1 1 -3 0 -1 -4 -2 -1 -5 hflex1
          -15 -5 8 9 12 7 7 12 hvcurveto
          13 11 -4 12 12 6 13 hflex
          14 5 -10 -9 -7 -4 -9 -17 hvcurveto
          -2 hlineto
          33 -56 4 8 6 10 6 10 rlinecurve
          6 11 6 10 3 7 rrcurveto
          -3 -1 -2 0 0 vvcurveto
          -15 0 -5 8 0 9 0 12 7 7 13 0 50 flex
          8 12 -3 12 10 15 10 hflex
          8 0 6 -5 3 -6 2 6 7 5 9 0 50 flex
          5 9 -2 12 10 7 8 hflex
          15 3 -7 -5 1 hvcurveto
          2 -6 70 -127 rlineto
          98 vlineto
          3 0 9 -11 vhcurveto
          -8 hlineto
          -10 -7 8 8 8 6 11 15 hvcurveto
          11 8 -3 13 11 10 12 hflex
          15 4 -10 -9 -8 -4 -8 -14 hvcurveto
          endchar
        </CharString>
        <CharString name="approxequal">
          31 109 102 83 102 hstem
          16 369 vstem
          17 333 rmoveto
          -41 1 12 -25 21 hhcurveto
          8 10 4 6 11 hvcurveto
          7 17 20 10 26 hhcurveto
          23 13 -8 -8 14 hvcurveto
          -9 16 16 -10 32 hhcurveto
          56 54 37 27 18 hvcurveto
          -1 22 -7 21 -12 13 rrcurveto
          8 -8 -9 6 -10 hhcurveto
          -6 -6 -2 -3 -6 hvcurveto
          -13 -16 -21 -15 -24 hhcurveto
          -23 -11 7 9 -12 hvcurveto
          9 -14 -16 11 -34 hhcurveto
          -60 -44 -33 -30 -28 hvcurveto
          -1 -144 rmoveto
          -41 24 -35 26 5 5 1 3 5 vhcurveto
          12 17 23 17 25 hhcurveto
          20 10 -8 -8 10 hvcurveto
          -10 12 14 -11 38 hhcurveto
          63 54 38 27 18 hvcurveto
          -1 34 -12 22 -21 5 -12 2 -14 -6 -15 -6 rrcurveto
          -7 -15 -17 -7 -19 hhcurveto
          -23 -13 7 8 -14 hvcurveto
          9 -16 -18 10 -36 hhcurveto
          -53 -47 -31 -25 -23 hvcurveto
          endchar
        </CharString>
        <CharString name="aring">
          -30 -10 91 149 81 92 107 156 72 hstem
          20 117 63 111 vstem
          65 633 rmoveto
          -81 34 -23 68 69 37 34 72 80 -32 23 -68 -68 -40 -32 -73 vhcurveto
          76 hmoveto
          22 11 11 21 17 9 -11 -21 -26 -13 -7 -17 -19 -9 11 21 vhcurveto
          170 -245 rmoveto
          90 -34 32 -92 -80 -55 -18 -11 -14 vhcurveto
          -9 -7 -5 -16 -12 vvcurveto
          -16 3 -25 12 -23 vhcurveto
          12 33 50 9 38 hhcurveto
          31 11 -11 -27 hvcurveto
          -69 vlineto
          12 -18 -31 3 -15 hhcurveto
          -59 -57 -28 -137 -139 68 -17 74 60 50 12 20 34 hvcurveto
          5 74 0 130 115 vvcurveto
          -111 -120 rmoveto
          -42 0 -65 -2 -23 vhcurveto
          -7 -6 -12 -3 -10 hhcurveto
          -25 -8 19 49 65 14 16 23 8 11 -3 -6 7 hvcurveto
          endchar
        </CharString>
        <CharString name="asciicircum">
          61 199 213 hstem
          37 355 vstem
          210 268 rmoveto
          129 -69 rlineto
          30 4 23 22 26 vvcurveto
          12 -5 12 -14 11 vhcurveto
          -150 126 -186 -153 rlineto
          -27 1 18 -30 32 hhcurveto
          7 7 2 8 15 hvcurveto
          endchar
        </CharString>
        <CharString name="asciitilde">
          31 199 101 hstem
          9 384 vstem
          9 273 rmoveto
          -44 1 20 -27 24 hhcurveto
          12 11 7 8 12 hvcurveto
          10 14 15 10 20 hhcurveto
          21 12 -8 -8 14 hvcurveto
          -10 16 19 -12 37 hhcurveto
          64 53 37 27 19 hvcurveto
          40 -1 -19 30 -26 hhcurveto
          -6 -6 -1 -4 -7 hvcurveto
          -13 -16 -22 -15 -23 hhcurveto
          -23 -13 7 9 -13 hvcurveto
          9 -16 -17 11 -37 hhcurveto
          -61 -58 -33 -30 -20 hvcurveto
          endchar
        </CharString>
        <CharString name="asterisk">
          100 238 455 hstem
          11 447 vstem
          293 678 rmoveto
          8 -17 -27 7 -22 hhcurveto
          -23 -18 -8 -21 2 hvcurveto
          30 -155 rlineto
          -3 10 8 -1 6 hhcurveto
          18 4 9 15 3 hvcurveto
          21 -28 rmoveto
          -10 -6 -6 -5 -9 vvcurveto
          -7 4 -10 11 -14 vhcurveto
          151 28 rlineto
          14 4 6 15 19 vvcurveto
          24 -11 31 -19 17 vhcurveto
          -349 -11 rmoveto
          1 -4 -3 1 -4 hhcurveto
          -25 -34 -31 -58 2 hvcurveto
          154 -35 rlineto
          -1 4 4 -1 3 hhcurveto
          14 9 11 27 -1 hvcurveto
          119 -253 rmoveto
          34 5 52 24 27 vvcurveto
          5 -2 5 -4 5 vhcurveto
          -118 124 rlineto
          -25 -10 -8 -7 -9 vvcurveto
          -4 1 -4 2 -6 vhcurveto
          -193 -85 rmoveto
          -28 15 32 -39 26 hhcurveto
          7 7 4 8 6 hvcurveto
          78 156 rlineto
          14 -11 -9 6 -8 hhcurveto
          -7 -7 -4 -6 -7 hvcurveto
          endchar
        </CharString>
        <CharString name="at">
          351 -191 109 663 99 hstem
          40 114 76 106 52 103.5 73.5 116 vstem
          493 382 rmoveto
          88 2 -38 25 -71 hhcurveto
          -74 -41 -18 -11 -15 hvcurveto
          -4 -4 -4 -8 -1 -11 rrcurveto
          -8 1 -34 11 -21 vhcurveto
          17 31 22 7 38 hhcurveto
          27 12 -10 -26 -1 hvcurveto
          -25 -1 -33 0 vhcurveto
          12 -16 -22 2 -17 hhcurveto
          -51 -51 -35 -130 -141 53 -17 72 53 36 8 13 15 hvcurveto
          -12 16 20 -9 25 hhcurveto
          69 92 42 321 242 -111 74 -189 -208 -133 -129 -288 -399 136 -55 184 159 94 24 42 23 -11 26 -18 26 hvcurveto
          -24 -69 -69 -8 -94 hhcurveto
          -148 -50 80 250 262 67 71 159 149 36 -56 -195 -141 -15 -92 -43 -7 -7 1 2 -7 hvcurveto
          2 27 1 33 1 37 rrcurveto
          -106 -51 rmoveto
          -55 -1 -6 -8 -17 hhcurveto
          -24 0 21 60 67 11 17 22 12 5 -2 0 hvcurveto
          endchar
        </CharString>
        <CharString name="atilde">
          -30 -10 91 149 81 92 107 36 105 hstem
          20 117 63 111 vstem
          17 611 rmoveto
          0 22 -55 31 vhcurveto
          15 8 32 31 38 -9 -42 50 hhcurveto
          63 55 74 0 0 -15 62 -21 hvcurveto
          -19 2 -31 -43 -37 -4 43 -41 hhcurveto
          -36 -54 -24 -59 -36 hvcurveto
          294 -223 rmoveto
          90 -34 32 -92 -80 -55 -18 -11 -14 vhcurveto
          -9 -7 -5 -16 -12 vvcurveto
          -16 3 -25 12 -23 vhcurveto
          12 33 50 9 38 hhcurveto
          31 11 -11 -27 hvcurveto
          -69 vlineto
          12 -18 -31 3 -15 hhcurveto
          -59 -57 -28 -137 -139 68 -17 74 60 50 12 20 34 hvcurveto
          5 74 0 130 115 vvcurveto
          -111 -120 rmoveto
          -42 0 -65 -2 -23 vhcurveto
          -7 -6 -12 -3 -10 hhcurveto
          -25 -8 19 49 65 14 16 23 8 11 -3 -6 7 hvcurveto
          endchar
        </CharString>
        <CharString name="b">
          -3 -10 97 423 -20 245 -20 hstem
          35 111 74 125 vstem
          35 20 rmoveto
          -18 22 42 -12 53 hhcurveto
          86 107 33 284 150 -34 53 -79 -35 -29 -11 -18 -22 hvcurveto
          254 vlineto
          -93 -18 0 -50 hvcurveto
          111 -289 rmoveto
          11 11 12 4 12 hhcurveto
          25 14 -31 -93 -170 -31 -30 -20 -9 -8 3 5 -6 hvcurveto
          endchar
        </CharString>
        <CharString name="backslash">
          -10 -30 795 hstem
          10 339 vstem
          122 765 rmoveto
          -92 -20 -2 -15 -3 1 -4 1 -5 hvcurveto
          224 -766 rlineto
          94 19 1 14 3 -1 4 -1 4 hvcurveto
          endchar
        </CharString>
        <CharString name="bar">
          -80 -179 -21 hstem
          88 113 vstem
          201 815 rmoveto
          -113 0 -2 -27 hvcurveto
          -986 vlineto
          113 0 0 26 hvcurveto
          endchar
        </CharString>
        <CharString name="becy">
          3 -10 92 336 92 229 -20 hstem
          32 120 78 122 vstem
          316 624 rmoveto
          25 8 9 16 15 vvcurveto
          13 -6 21 -16 42 vhcurveto
          -172 -69 rlineto
          -99 -40 -25 -72 -203 vvcurveto
          -84 vlineto
          -223 34 -58 123 106 57 73 207 186 -45 54 -82 -56 -31 -25 -81 -26 vhcurveto
          3 109 17 43 73 27 rrcurveto
          -11 -165 rmoveto
          26 10 -23 -131 -165 -16 -17 -25 -22 -15 13 150 149 15 24 27 hvcurveto
          endchar
        </CharString>
        <CharString name="braceleft">
          -103 744 -20 hstem
          88 108 vstem
          229 744 rmoveto
          -90 -1 -65 -38 -81 vvcurveto
          -24 3 -29 3 -31 vhcurveto
          4 -35 4 -37 -36 vvcurveto
          -63 -19 -12 -21 -15 vhcurveto
          -12 -9 -8 -19 -24 vvcurveto
          -13 2 -16 7 -15 vhcurveto
          36 -7 15 -18 -51 vvcurveto
          -33 -4 -29 -3 -29 vhcurveto
          -4 -30 -3 -29 -33 vvcurveto
          -80 33 -56 101 23 14 24 36 11 -1 13 -2 18 vhcurveto
          -38 7 -17 22 59 vvcurveto
          23 2 24 2 25 vhcurveto
          2 28 3 31 31 vvcurveto
          61 -18 21 -30 14 vhcurveto
          29 13 19 20 62 vvcurveto
          33 -3 33 -2 30 vhcurveto
          -2 27 -2 25 22 vvcurveto
          38 12 30 34 5 vhcurveto
          11 3 6 15 20 vvcurveto
          21 -7 27 -14 21 vhcurveto
          endchar
        </CharString>
        <CharString name="braceright">
          -103 744 -20 hstem
          72 107 vstem
          38 -149 rmoveto
          90 65 39 80 24 -3 29 -4 31 hvcurveto
          -3 35 -4 37 36 vvcurveto
          63 18 12 21 16 vhcurveto
          12 9 9 18 25 vvcurveto
          13 -3 15 -7 15 vhcurveto
          -36 7 -14 18 51 vvcurveto
          34 3 29 4 30 vhcurveto
          3 29 4 29 33 vvcurveto
          79 -33 57 -100 -24 -15 -25 -35 -12 1 -13 3 -17 vhcurveto
          37 -8 18 -22 -58 vvcurveto
          -23 -2 -24 -2 -26 vhcurveto
          -2 -28 -2 -30 -31 vvcurveto
          -61 17 -22 29 -13 vhcurveto
          -29 -13 -17 -21 -62 vvcurveto
          -33 2 -32 2 -30 vhcurveto
          2 -27 2 -25 -23 vvcurveto
          -38 -12 -30 -34 -5 vhcurveto
          -12 -3 -5 -14 -20 vvcurveto
          -22 7 -27 14 -20 vhcurveto
          endchar
        </CharString>
        <CharString name="bracketleft">
          -18 -200 104 813 104 hstem
          88 113 vstem
          173 821 rmoveto
          -85 0 -5 -27 hvcurveto
          -989 223 vlineto
          30 2 1 103 hvcurveto
          -142 813 110 hlineto
          31 1 13 91 hvcurveto
          endchar
        </CharString>
        <CharString name="bracketright">
          -18 -200 104 814 104 hstem
          150 113 vstem
          178 -200 rmoveto
          85 0 5 27 hvcurveto
          990 -223 vlineto
          -30 -2 -1 -103 hvcurveto
          142 -814 -110 hlineto
          -31 -1 -13 -91 hvcurveto
          endchar
        </CharString>
        <CharString name="breve">
          -89 542 106 hstem
          2 276 vstem
          59 717 rmoveto
          -43 -17 -14 -18 -28 vvcurveto
          -55 69 -57 63 74 45 46 67 25 vhcurveto
          27 -6 -26 31 -22 hhcurveto
          -7 -7 -3 -8 -5 hvcurveto
          -24 -14 -17 -30 -39 hhcurveto
          -39 -26 41 28 -11 hvcurveto
          endchar
        </CharString>
        <CharString name="breve.cyr">
          -64 559 74 hstem
          9 280 vstem
          74 717 rmoveto
          -47 -14 -18 -19 -28 vvcurveto
          -53 6 53 -44 74 hhcurveto
          87 32 40 62 28 hvcurveto
          25 -7 -38 26 -20 hhcurveto
          -6 -4 -3 -5 -2 hvcurveto
          -44 -13 -12 -27 -41 hhcurveto
          -44 -14 25 59 -14 hvcurveto
          endchar
        </CharString>
        <CharString name="brokenbar">
          -140 -171 -21 936 -20 hstem
          58 111 vstem
          169 736 rmoveto
          5 -15 -20 3 -17 hhcurveto
          -46 -13 -11 -34 hvcurveto
          -372 vlineto
          -4 17 25 -2 12 hhcurveto
          49 8 7 33 hvcurveto
          -142 vmoveto
          5 -15 -20 3 -17 hhcurveto
          -46 -13 -11 -34 hvcurveto
          -374 vlineto
          -5 17 25 -1 12 hhcurveto
          49 8 6 34 hvcurveto
          endchar
        </CharString>
        <CharString name="bullet">
          -134 197 180 hstem
          29 177 vstem
          29 286 rmoveto
          -56 20 -33 69 57 31 40 49 56 -21 35 -67 -56 -33 -42 -49 vhcurveto
          endchar
        </CharString>
        <CharString name="bulletoperator">
          -134 197 180 hstem
          29 177 vstem
          29 286 rmoveto
          -56 20 -33 69 57 31 40 49 56 -21 35 -67 -56 -33 -42 -49 vhcurveto
          endchar
        </CharString>
        <CharString name="c">
          -77 -10 98 325 97 hstem
          20 116 vstem
          281 459 rmoveto
          32 -34 19 -49 -83 -95 -31 -240 -207 46 -42 102 64 45 21 33 17 -3 17 -6 24 vhcurveto
          -8 -16 -27 -6 -21 hhcurveto
          -53 -15 37 116 153 36 19 36 21 26 -6 -7 16 hvcurveto
          8 23 2 21 15 vvcurveto
          endchar
        </CharString>
        <CharString name="cacute">
          -77 -10 98 325 97 hstem
          20 116 vstem
          108 549 rmoveto
          12 1 103 68 24 28 rrcurveto
          37 -6 -19 45 -25 hhcurveto
          -12 -85 -71 -47 -34 hvcurveto
          0 14 -61 28 vhcurveto
          173 -90 rmoveto
          32 -34 19 -49 -83 -95 -31 -240 -207 46 -42 102 64 45 21 33 17 -3 17 -6 24 vhcurveto
          -8 -16 -27 -6 -21 hhcurveto
          -53 -15 37 116 153 36 19 36 21 26 -6 -7 16 hvcurveto
          8 23 2 21 15 vvcurveto
          endchar
        </CharString>
        <CharString name="caron">
          -89 542 178 hstem
          22 237 vstem
          146 542 rmoveto
          19 94 99 25 16 -17 18 -27 14 hvcurveto
          0 -30 -16 -34 -53 vhcurveto
          0 -58 75 -22 -16 -22 -38 -32 -11 vhcurveto
          -32 22 79 -76 23 hhcurveto
          endchar
        </CharString>
        <CharString name="ccaron">
          -77 -10 98 325 97 hstem
          20 116 vstem
          152 542 rmoveto
          19 94 99 25 16 -17 18 -27 14 hvcurveto
          0 -30 -16 -34 -53 vhcurveto
          0 -57 75 -23 -16 -22 -38 -32 -11 vhcurveto
          -32 22 79 -76 23 hhcurveto
          129 -83 rmoveto
          32 -34 19 -49 -83 -95 -31 -240 -207 46 -42 102 64 45 21 33 17 -3 17 -6 24 vhcurveto
          -8 -16 -27 -6 -21 hhcurveto
          -53 -15 37 116 153 36 19 36 21 26 -6 -7 16 hvcurveto
          8 23 2 21 15 vvcurveto
          endchar
        </CharString>
        <CharString name="ccedilla">
          -77 -221 53 64 47 75 -21 416 97 hstem
          20 116 vstem
          91 -110 rmoveto
          0 14 6 31 19 7 -11 -21 -17 -5 -15 -23 -23 -16 20 -7 -7 vhcurveto
          -7 -7 -9 -44 0 vvcurveto
          0 26 -15 34 57 33 43 50 50 -25 21 -26 vhcurveto
          -16 hlineto
          8 47 rlineto
          5 hlineto
          64 45 21 33 17 -3 17 -6 24 hvcurveto
          -8 -16 -27 -6 -21 hhcurveto
          -53 -15 37 116 153 36 19 36 21 26 -6 -7 16 hvcurveto
          8 23 2 21 15 vvcurveto
          32 -34 19 -49 -83 -95 -31 -240 -162 28 -61 61 -19 vhcurveto
          endchar
        </CharString>
        <CharString name="cedilla">
          -89 -221 53 64 47 hstem
          155 60 vstem
          148 -57 rmoveto
          11 59 rlineto
          -56 hlineto
          -19 -112 rlineto
          0 14 6 31 19 7 -11 -21 -17 -5 -15 -23 -23 -16 20 -7 -7 vhcurveto
          -7 -7 -9 -44 0 vvcurveto
          0 26 -15 34 57 33 43 50 50 -25 21 -26 vhcurveto
          endchar
        </CharString>
        <CharString name="cent">
          32 18 -21 507 -20 hstem
          73 110 vstem
          291 611 rmoveto
          -66 -35 -8 -36 hvcurveto
          -67 vlineto
          -63 -22 -54 -67 -179 vvcurveto
          -168 32 -51 58 -16 vhcurveto
          -122 vlineto
          65 36 5 35 hvcurveto
          77 vlineto
          35 6 30 20 20 vvcurveto
          15 -3 34 -6 19 vhcurveto
          -8 -16 -33 -6 -19 hhcurveto
          -51 -18 11 136 155 41 14 36 22 25 -6 -7 16 hvcurveto
          10 27 0 48 3 vvcurveto
          12 -18 12 -24 7 vhcurveto
          endchar
        </CharString>
        <CharString name="checy">
          3 21 -21 165 97 238 -20 hstem
          35 111 73 111 vstem
          330 500 rmoveto
          -111 0 0 -20 hvcurveto
          -215 vlineto
          -1 -10 -14 -2 -15 hhcurveto
          -29 -5 13 42 hvcurveto
          183 vlineto
          -111 0 0 -20 hvcurveto
          -174 vlineto
          -110 35 -31 84 24 22 2 3 19 vhcurveto
          -170 vlineto
          113 -2 0 20 hvcurveto
          endchar
        </CharString>
        <CharString name="circumflex">
          -89 550 167 hstem
          6 268 vstem
          6 580 rmoveto
          -21 17 24 -8 34 hhcurveto
          24 39 68 0 hvcurveto
          20 -38 33 -31 0 vvcurveto
          38 39 5 22 26 -98 100 0 hvcurveto
          10 -9 -12 4 -10 hhcurveto
          -8 -7 -1 -2 -7 hvcurveto
          endchar
        </CharString>
        <CharString name="colon">
          -181 -7 143 178 144 hstem
          24 141 vstem
          24 385 rmoveto
          -45 16 -26 55 45 25 32 39 44 -16 29 -54 -45 -26 -34 -39 vhcurveto
          -321 vmoveto
          -45 16 -26 55 45 25 32 39 43 -16 29 -54 -45 -26 -34 -38 vhcurveto
          endchar
        </CharString>
        <CharString name="comma">
          -181 -96 228 hstem
          29 135 vstem
          29 68 rmoveto
          -27 6 -20 22 -13 vhcurveto
          -4 -26 0 -10 -23 -39 rrcurveto
          -24 6 16 -5 20 hhcurveto
          21 71 72 84 46 -25 26 -46 -37 -27 -29 -35 hvcurveto
          endchar
        </CharString>
        <CharString name="commaaccent">
          -369 -266 229 hstem
          75 134 vstem
          75 -102 rmoveto
          -27 6 -20 22 -13 vhcurveto
          -4 -26 0 -10 -23 -39 rrcurveto
          -24 6 16 -5 20 hhcurveto
          21 70 73 83 47 -24 26 -46 -37 -27 -29 -36 hvcurveto
          endchar
        </CharString>
        <CharString name="copyright">
          111 319 77 292 71 hstem
          32 81 50 58 144 83 vstem
          32 542 rmoveto
          -149 64 -74 140 140 72 83 143 155 -63 59 -139 -136 -78 -68 -149 vhcurveto
          81 3 rmoveto
          108 55 35 76 86 35 -51 -92 -115 -63 -34 -64 -80 -45 38 111 vhcurveto
          184 100 rmoveto
          8 -24 9 -19 -41 -50 -16 -112 -95 24 -14 62 22 24 8 12 5 -1 20 -5 11 vhcurveto
          -3 -9 -15 -4 -10 hhcurveto
          -24 -10 4 54 75 20 5 18 11 13 -3 -2 9 hvcurveto
          3 11 2 20 7 vvcurveto
          endchar
        </CharString>
        <CharString name="currency">
          230 38 93 282 90 hstem
          98 111 185 107 vstem
          483 146 rmoveto
          13 36 5 45 55 vvcurveto
          41 -3 34 -8 28 vhcurveto
          88 88 rlineto
          3 3 1 3 4 vvcurveto
          14 -20 21 -37 37 vhcurveto
          -87 -87 rlineto
          24 -31 -45 11 -58 hhcurveto
          -62 -46 -12 -25 -32 hvcurveto
          -75 75 rlineto
          3 -3 -4 1 -3 hhcurveto
          -14 -21 -21 -37 -37 hvcurveto
          104 -104 rlineto
          -9 -32 -4 -38 -47 vvcurveto
          -49 5 -40 11 -32 vhcurveto
          -93 -94 rlineto
          -3 -3 -1 -3 -3 vvcurveto
          -14 21 -21 37 -37 vhcurveto
          98 98 rlineto
          -20 31 43 -10 55 hhcurveto
          52 41 10 21 31 hvcurveto
          85 -85 rlineto
          -3 2 4 -1 3 hhcurveto
          14 21 20 37 37 hvcurveto
          -287 94 rmoveto
          -70 -26 37 95 107 27 43 73 61 24 -37 -94 -108 -25 -43 -64 hvcurveto
          endchar
        </CharString>
        <CharString name="d">
          -10 -10 98 422 -20 245 -20 hstem
          20 125 72 111 vstem
          217 492 rmoveto
          10 -12 -20 8 -27 hhcurveto
          -78 -60 -78 -205 -212 77 -25 85 65 47 15 15 34 hvcurveto
          715 vlineto
          -92 -19 0 -49 hvcurveto
          -588 vmoveto
          -7 -9 -11 -3 -14 hhcurveto
          -26 -12 33 120 165 30 9 20 8 8 -1 -4 6 hvcurveto
          endchar
        </CharString>
        <CharString name="dagger">
          59 14 -21 714 -20 hstem
          22 383 vstem
          190 495 rmoveto
          -5 8 9 -3 9 hhcurveto
          12 12 6 17 5 hvcurveto
          31 173 rlineto
          15 -12 -21 9 -23 hhcurveto
          -31 -33 -14 -29 -3 1 -3 1 -4 hvcurveto
          96 -167 rmoveto
          -4 -8 -3 -9 -9 vvcurveto
          -13 6 -11 16 -5 vhcurveto
          113 -30 rlineto
          15 12 8 24 22 vvcurveto
          33 -12 31 -24 -5 -5 -2 -2 -6 vhcurveto
          -176 -86 rmoveto
          5 8 4 9 9 vvcurveto
          12 -6 11 -19 7 vhcurveto
          -114 33 rlineto
          -17 -14 -8 -24 -23 vvcurveto
          -29 16 -30 28 3 3 0 1 3 vhcurveto
          168 17 rmoveto
          6 -7 -11 4 -10 hhcurveto
          -13 -12 -7 -20 -3 hvcurveto
          -31 -386 rlineto
          -16 11 24 -9 23 hhcurveto
          33 31 18 36 -4 hvcurveto
          endchar
        </CharString>
        <CharString name="daggerdbl">
          59 17 -21 711 -20 hstem
          180 70 vstem
          190 495 rmoveto
          -5 8 9 -3 9 hhcurveto
          12 12 6 17 5 hvcurveto
          31 173 rlineto
          15 -12 -21 9 -23 hhcurveto
          -31 -33 -14 -29 -3 1 -3 1 -4 hvcurveto
          96 -167 rmoveto
          -4 -8 -3 -9 -9 vvcurveto
          -13 6 -11 16 -5 vhcurveto
          113 -30 rlineto
          15 12 8 24 22 vvcurveto
          33 -12 31 -24 -5 -5 -2 -2 -6 vhcurveto
          -176 -86 rmoveto
          5 8 4 9 9 vvcurveto
          12 -6 11 -19 7 vhcurveto
          -114 33 rlineto
          -17 -14 -8 -24 -23 vvcurveto
          -29 16 -30 28 3 3 0 1 3 vhcurveto
          105 -141 rmoveto
          -5 13 12 -3 10 hhcurveto
          21 14 10 18 hvcurveto
          142 vlineto
          6 -12 -12 3 -10 hhcurveto
          -21 -15 -11 -20 hvcurveto
          -6 -203 rmoveto
          4 9 3 9 9 vvcurveto
          12 -6 11 -16 6 vhcurveto
          -113 30 rlineto
          -16 -12 -8 -23 -23 vvcurveto
          -33 13 -31 24 5 5 1 2 5 vhcurveto
          176 86 rmoveto
          -5 -8 -3 -10 -8 vvcurveto
          -12 6 -12 19 -7 vhcurveto
          114 -33 rlineto
          16 14 8 24 23 vvcurveto
          30 -15 29 -29 -3 -3 0 -1 -3 vhcurveto
          -114 -89 rmoveto
          5 -8 -9 3 -8 hhcurveto
          -13 -12 -6 -18 -5 hvcurveto
          -30 -157 rlineto
          -15 11 22 -9 22 hhcurveto
          32 32 14 28 hvcurveto
          3 -1 4 4 vvcurveto
          endchar
        </CharString>
        <CharString name="dcaron">
          126 -10 98 422 -20 245 -20 hstem
          20 125 72 111 vstem
          217 492 rmoveto
          10 -12 -20 8 -27 hhcurveto
          -78 -60 -78 -205 -212 77 -25 85 65 47 15 15 34 hvcurveto
          715 vlineto
          -92 -19 0 -49 hvcurveto
          150 -55 rmoveto
          -26 6 -20 22 -13 vhcurveto
          -4 -26 0 -11 -23 -39 rrcurveto
          -24 6 16 -5 20 hhcurveto
          21 70 73 84 46 -24 26 -46 -37 -27 -29 -36 hvcurveto
          -150 -533 rmoveto
          -7 -9 -11 -3 -14 hhcurveto
          -26 -12 33 120 165 30 9 20 8 8 -1 -4 6 hvcurveto
          endchar
        </CharString>
        <CharString name="dcroat">
          22 -10 98 422 -20 68 177 hstem
          20 125 72 111 vstem
          328 662 rmoveto
          73 vlineto
          -92 -19 0 -49 hvcurveto
          -24 -46 vlineto
          -27 -17 -23 -32 -16 1 -15 7 -18 hvcurveto
          82 -66 hlineto
          10 -12 -20 8 -27 hhcurveto
          -78 -60 -78 -205 -212 77 -25 85 65 47 15 15 34 hvcurveto
          538 39 vlineto
          25 16 24 33 15 -3 16 -8 16 hvcurveto
          -180 -564 rmoveto
          -7 -9 -11 -3 -14 hhcurveto
          -26 -12 33 120 165 30 9 20 8 8 -1 -4 6 hvcurveto
          endchar
        </CharString>
        <CharString name="decy">
          75 0 104 304 92 hstem
          28 97 143 111 vstem
          429 104 rmoveto
          -50 396 -205 hlineto
          -51 -4 -3 -30 -1 hvcurveto
          -7 -208 -14 -108 -28 -47 rrcurveto
          -41 -229 hlineto
          -28 11 -4 55 vhcurveto
          14 53 13 45 4 59 rrcurveto
          206 hlineto
          4 -59 13 -45 14 -53 rrcurveto
          56 11 4 28 hvcurveto
          -161 533 rmoveto
          -304 -95 vlineto
          22 50 12 65 9 189 rrcurveto
          endchar
        </CharString>
        <CharString name="degree">
          -26 541 67 74 68 hstem
          68 71 68 69 vstem
          68 645 rmoveto
          -81 33 -23 68 70 37 34 72 80 -32 23 -69 -68 -39 -32 -73 vhcurveto
          71 hmoveto
          26 13 11 23 21 11 -11 -25 -30 -16 -8 -20 -21 -11 12 25 vhcurveto
          endchar
        </CharString>
        <CharString name="dieresis">
          -89 550 150 hstem
          150 108 vstem
          79 700 rmoveto
          -40 -18 -30 -44 -59 20 -17 31 38 20 29 52 51 -12 18 -39 hvcurveto
          130 hmoveto
          -40 -19 -30 -44 -59 20 -17 32 36 20 29 52 51 -11 18 -38 hvcurveto
          endchar
        </CharString>
        <CharString name="divide">
          32 60 124 50 96 46 124 hstem
          140 122 vstem
          140 438 rmoveto
          -39 14 -23 46 39 23 28 34 37 -15 25 -47 -39 -21 -29 -33 vhcurveto
          215 -204 rmoveto
          20 0 30 66 hvcurveto
          -330 hlineto
          -20 0 -30 -66 hvcurveto
          115 -113 rmoveto
          -38 14 -23 46 39 23 28 33 38 -15 25 -47 -39 -21 -29 -34 vhcurveto
          endchar
        </CharString>
        <CharString name="divisionslash">
          -174 11 -21 720 -20 hstem
          -76 379 vstem
          303 673 rmoveto
          26 -25 -29 11 -23 hhcurveto
          -24 -10 -13 -14 -4 hvcurveto
          -264 -656 rlineto
          -24 25 34 -13 21 hhcurveto
          19 10 11 10 3 hvcurveto
          endchar
        </CharString>
        <CharString name="djecy">
          2 -184 105 100 -21 510 -20 81 164 hstem
          37 111 73 115 vstem
          148 571 rmoveto
          92 hlineto
          26 16 21 29 13 -3 13 -8 13 hvcurveto
          -123 75 hlineto
          -91 -20 0 -49 hvcurveto
          -26 -21 vlineto
          -27 -19 -19 -28 3 hvcurveto
          -13 1 -13 7 -16 vhcurveto
          56 -571 hlineto
          111 0 0 20 hvcurveto
          375 vlineto
          10 15 13 3 13 hhcurveto
          25 7 -15 -47 hvcurveto
          -236 vlineto
          -149 -11 -40 -67 -21 -21 3 6 -17 vhcurveto
          -8 -12 -5 -16 -15 vvcurveto
          -35 24 -36 63 135 40 85 208 3 vhcurveto
          271 vlineto
          101 -27 29 -65 -33 -39 -12 -23 -24 vhcurveto
          endchar
        </CharString>
        <CharString name="dollar">
          32 20 -21 521 95 123 -20 hstem
          158 101 vstem
          193 410 rmoveto
          -27 31 -7 13 27 vvcurveto
          32 32 7 50 39 39 -10 -7 11 vhcurveto
          21 24 6 36 15 vvcurveto
          12 -25 19 -73 6 vhcurveto
          123 vlineto
          -66 -35 -7 -36 hvcurveto
          -82 vlineto
          -79 -12 -43 -47 -76 vvcurveto
          -31 10 -37 33 -39 vhcurveto
          112 -123 rlineto
          32 -38 10 -16 -32 vvcurveto
          -43 -28 -17 -40 -45 -37 12 16 -21 vhcurveto
          -15 -23 -10 -56 -12 vvcurveto
          -17 31 -23 70 -6 vhcurveto
          -116 vlineto
          65 36 5 36 hvcurveto
          81 vlineto
          92 22 26 68 72 vvcurveto
          49 -16 38 -30 34 vhcurveto
          endchar
        </CharString>
        <CharString name="dotaccent">
          -89 704 -20 hstem
          83 113 vstem
          83 626 rmoveto
          -62 21 -18 33 39 20 32 53 54 -12 19 -40 -42 -19 -32 -46 vhcurveto
          endchar
        </CharString>
        <CharString name="dotlessi">
          -189 21 -21 500 -20 hstem
          33 113 vstem
          146 500 rmoveto
          -91 -22 0 -49 hvcurveto
          -451 vlineto
          112 1 0 20 hvcurveto
          endchar
        </CharString>
        <CharString name="dotlessj">
          -182 -197 101 596 -20 hstem
          41 111 vstem
          152 500 rmoveto
          -90 -21 0 -49 hvcurveto
          -472 vlineto
          -58 -8 -17 -36 -25 -25 3 10 -22 vhcurveto
          -11 -14 -4 -20 -20 vvcurveto
          -41 27 -19 77 113 25 77 84 vhcurveto
          endchar
        </CharString>
        <CharString name="dzecy">
          -50 -10 99 326 95 hstem
          177 127 vstem
          154 188 rmoveto
          20 -23 3 -19 -14 vvcurveto
          -26 -17 -17 -35 -29 -31 7 15 -28 vhcurveto
          -13 -24 -5 -22 -16 vvcurveto
          -45 53 -14 65 102 65 54 90 50 -10 29 -40 46 vhcurveto
          -74 75 rlineto
          -27 27 -3 12 11 vvcurveto
          20 16 11 32 31 28 -6 -15 28 vhcurveto
          13 15 8 21 17 vvcurveto
          25 -11 38 -112 -123 -42 -54 -70 -29 13 -40 36 -37 vhcurveto
          endchar
        </CharString>
        <CharString name="dzhecy">
          10 0 104 396 -20 hstem
          42 111 73 111 vstem
          337 500 rmoveto
          -111 0 0 -20 hvcurveto
          -376 -73 396 vlineto
          -111 0 0 -20 hvcurveto
          -480 96 vlineto
          10 -145 rlineto
          -3 14 -4 16 21 24 6 21 2 vhcurveto
          10 125 rlineto
          59 hlineto
          41 2 4 19 hvcurveto
          endchar
        </CharString>
        <CharString name="e">
          -24 -10 108 93 87 136 96 hstem
          20 116 80 108 vstem
          202 98 rmoveto
          -48 -14 28 65 -4 hvcurveto
          50 1 75 3 49 10 rrcurveto
          10 39 4 55 48 vvcurveto
          116 -48 47 -80 -93 -83 -42 -242 -190 64 -46 91 78 64 22 40 23 -3 31 -6 20 vhcurveto
          -17 -35 -35 -11 -36 hhcurveto
          -20 316 rmoveto
          25 9 -11 -64 -16 -1 -24 -4 -12 hvcurveto
          -7 -15 -32 -2 -28 hhcurveto
          92 3 12 44 31 hhcurveto
          endchar
        </CharString>
        <CharString name="eacute">
          -24 -10 108 93 87 136 96 hstem
          20 116 80 108 vstem
          134 549 rmoveto
          12 1 102 68 25 28 rrcurveto
          37 -6 -20 45 -25 hhcurveto
          -11 -85 -71 -47 -35 hvcurveto
          0 14 -61 29 vhcurveto
          68 -451 rmoveto
          -48 -14 28 65 -4 hvcurveto
          50 1 75 3 49 10 rrcurveto
          10 39 4 55 48 vvcurveto
          116 -48 47 -80 -93 -83 -42 -242 -190 64 -46 91 78 64 22 40 23 -3 31 -6 20 vhcurveto
          -17 -35 -35 -11 -36 hhcurveto
          -20 316 rmoveto
          25 9 -11 -64 -16 -1 -24 -4 -12 hvcurveto
          -7 -15 -32 -2 -28 hhcurveto
          92 3 12 44 31 hhcurveto
          endchar
        </CharString>
        <CharString name="ecaron">
          -24 -10 108 93 87 136 96 hstem
          20 116 80 108 vstem
          178 542 rmoveto
          19 94 99 25 16 -17 18 -27 14 hvcurveto
          0 -30 -16 -34 -53 vhcurveto
          0 -58 75 -23 -15 -22 -38 -32 -11 vhcurveto
          -32 22 79 -76 23 hhcurveto
          24 -444 rmoveto
          -48 -14 28 65 -4 hvcurveto
          50 1 75 3 49 10 rrcurveto
          10 39 4 55 48 vvcurveto
          116 -48 47 -80 -93 -83 -42 -242 -190 64 -46 91 78 64 22 40 23 -3 31 -6 20 vhcurveto
          -17 -35 -35 -11 -36 hhcurveto
          -20 316 rmoveto
          25 9 -11 -64 -16 -1 -24 -4 -12 hvcurveto
          -7 -15 -32 -2 -28 hhcurveto
          92 3 12 44 31 hhcurveto
          endchar
        </CharString>
        <CharString name="ecircumflex">
          -24 -10 108 93 87 136 96 hstem
          20 116 80 108 vstem
          38 580 rmoveto
          -21 17 24 -8 35 hhcurveto
          24 38 68 0 hvcurveto
          20 -38 34 -31 0 vvcurveto
          37 39 5 22 26 -98 100 0 hvcurveto
          10 -9 -12 4 -10 hhcurveto
          -8 -7 -1 -2 -7 hvcurveto
          47 -616 rmoveto
          -48 -14 28 65 -4 hvcurveto
          50 1 75 3 49 10 rrcurveto
          10 39 4 55 48 vvcurveto
          116 -48 47 -80 -93 -83 -42 -242 -190 64 -46 91 78 64 22 40 23 -3 31 -6 20 vhcurveto
          -17 -35 -35 -11 -36 hhcurveto
          -20 316 rmoveto
          25 9 -11 -64 -16 -1 -24 -4 -12 hvcurveto
          -7 -15 -32 -2 -28 hhcurveto
          92 3 12 44 31 hhcurveto
          endchar
        </CharString>
        <CharString name="ecy">
          -76 -15 98 119 95 116 97 hstem
          20 117 vstem
          247 202 rmoveto
          85 -1 10 -22 vhcurveto
          -87 hlineto
          113 5 31 3 33 hhcurveto
          21 26 -6 -7 16 hvcurveto
          6 16 6 19 17 vvcurveto
          36 -31 22 -63 -71 -96 -16 -235 -224 46 -50 122 44 51 24 25 15 -3 27 -6 24 vhcurveto
          -10 -20 -30 -7 -24 hhcurveto
          -41 -17 29 90 -4 hvcurveto
          endchar
        </CharString>
        <CharString name="edieresis">
          -24 -10 108 93 87 136 96 40 150 hstem
          20 116 80 108 vstem
          202 98 rmoveto
          -48 -14 28 65 -4 hvcurveto
          50 1 75 3 49 10 rrcurveto
          10 39 4 55 48 vvcurveto
          116 -48 47 -80 -93 -83 -42 -242 -190 64 -46 91 78 64 22 40 23 -3 31 -6 20 vhcurveto
          -17 -35 -35 -11 -36 hhcurveto
          -20 316 rmoveto
          25 9 -11 -64 -16 -1 -24 -4 -12 hvcurveto
          -7 -15 -32 -2 -28 hhcurveto
          92 3 12 44 31 hhcurveto
          -78 136 rmoveto
          38 20 29 52 51 -12 18 -39 -39 -18 -30 -44 -59 20 -17 30 hvcurveto
          130 hmoveto
          37 20 29 52 51 -11 18 -39 -40 -18 -30 -44 hvcurveto
          -59 -1 20 -17 32 hhcurveto
          endchar
        </CharString>
        <CharString name="edotaccent">
          -24 -10 108 93 87 136 96 194 -20 hstem
          20 116 80 108 vstem
          169 546 rmoveto
          39 21 32 53 54 -12 19 -41 -41 -19 -32 -46 -62 21 -18 32 hvcurveto
          33 -448 rmoveto
          -48 -14 28 65 -4 hvcurveto
          50 1 75 3 49 10 rrcurveto
          10 39 4 55 48 vvcurveto
          116 -48 47 -80 -93 -83 -42 -242 -190 64 -46 91 78 64 22 40 23 -3 31 -6 20 vhcurveto
          -17 -35 -35 -11 -36 hhcurveto
          -20 316 rmoveto
          25 9 -11 -64 -16 -1 -24 -4 -12 hvcurveto
          -7 -15 -32 -2 -28 hhcurveto
          92 3 12 44 31 hhcurveto
          endchar
        </CharString>
        <CharString name="efcy">
          146 -173 -21 208 -21 515 -20 247 -20 hstem
          31 112 64 99 71 112 vstem
          306 735 rmoveto
          -82 -17 0 -46 hvcurveto
          -183 vlineto
          -127 -17 -49 -88 -150 vvcurveto
          -199 55 -53 121 -8 vhcurveto
          -185 vlineto
          -3 21 12 -1 17 hhcurveto
          44 5 10 36 hvcurveto
          145 vlineto
          130 14 53 76 172 vvcurveto
          165 -50 76 -133 12 vhcurveto
          -89 vmoveto
          66 -14 5 -52 -101 vvcurveto
          -99 -12 -54 -59 -17 vhcurveto
          -99 hmoveto
          -57 16 -7 52 101 vvcurveto
          97 10 53 54 16 vhcurveto
          endchar
        </CharString>
        <CharString name="egrave">
          -24 -10 108 93 87 136 96 hstem
          20 116 80 108 vstem
          230 539 rmoveto
          29 14 61 0 hvcurveto
          47 -34 -85 71 -12 hhcurveto
          -25 -20 -45 -36 -6 hvcurveto
          25 -29 103 -68 11 -1 rrcurveto
          -28 -441 rmoveto
          -48 -14 28 65 -4 hvcurveto
          50 1 75 3 49 10 rrcurveto
          10 39 4 55 48 vvcurveto
          116 -48 47 -80 -93 -83 -42 -242 -190 64 -46 91 78 64 22 40 23 -3 31 -6 20 vhcurveto
          -17 -35 -35 -11 -36 hhcurveto
          -20 316 rmoveto
          25 9 -11 -64 -16 -1 -24 -4 -12 hvcurveto
          -7 -15 -32 -2 -28 hhcurveto
          92 3 12 44 31 hhcurveto
          endchar
        </CharString>
        <CharString name="eight">
          32 -7 106 503 104 hstem
          29 112 137 103 vstem
          330 319 rmoveto
          -13 15 -16 16 -16 15 rrcurveto
          51 40 45 51 88 vvcurveto
          122 -77 40 -106 -94 -75 -60 -116 -35 10 -33 17 -23 vhcurveto
          15 -23 23 -21 26 -21 rrcurveto
          -58 -42 -40 -64 -82 vvcurveto
          -102 47 -91 139 117 57 94 96 50 -16 44 -36 42 vhcurveto
          -116 283 rmoveto
          41 23 -33 -29 -46 -26 -35 -39 -32 hvcurveto
          -20 18 -19 16 -11 14 rrcurveto
          -12 15 -10 18 29 vvcurveto
          45 32 20 41 vhcurveto
          -14 -503 rmoveto
          -41 -34 32 63 52 32 34 41 31 hvcurveto
          17 -14 16 -14 13 -15 rrcurveto
          14 -17 15 -19 -46 vvcurveto
          -57 -32 -30 -41 vhcurveto
          endchar
        </CharString>
        <CharString name="elcy">
          33 21 -21 408 92 hstem
          247 113 vstem
          360 500 rmoveto
          -170 hlineto
          -91 -2 -5 -27 -1 hvcurveto
          -298 -16 -6 -87 -72 hhcurveto
          -1 -8 -1 -8 -7 vvcurveto
          -45 24 -20 36 89 36 113 300 15 vhcurveto
          47 -408 hlineto
          118 -5 0 20 hvcurveto
          endchar
        </CharString>
        <CharString name="ellipsis">
          192 -7 143 hstem
          26 141 44 141 43 141 vstem
          26 64 rmoveto
          -45 16 -26 55 44 26 32 39 43 -17 29 -53 -45 -26 -34 -38 vhcurveto
          185 hmoveto
          -45 16 -26 54 45 26 32 39 43 -17 29 -54 -44 -26 -34 -38 vhcurveto
          184 hmoveto
          -45 16 -26 55 45 25 32 39 43 -17 29 -53 -45 -26 -34 -38 vhcurveto
          endchar
        </CharString>
        <CharString name="emacron">
          -24 -10 108 93 87 136 96 58 104 hstem
          20 116 80 108 vstem
          271 568 rmoveto
          26 16 24 33 15 -3 16 -8 16 hvcurveto
          -226 hlineto
          -28 -17 -23 -32 -16 1 -15 7 -18 hvcurveto
          163 -470 rmoveto
          -48 -14 28 65 -4 hvcurveto
          50 1 75 3 49 10 rrcurveto
          10 39 4 55 48 vvcurveto
          116 -48 47 -80 -93 -83 -42 -242 -190 64 -46 91 78 64 22 40 23 -3 31 -6 20 vhcurveto
          -17 -35 -35 -11 -36 hhcurveto
          -20 316 rmoveto
          25 9 -11 -64 -16 -1 -24 -4 -12 hvcurveto
          -7 -15 -32 -2 -28 hhcurveto
          92 3 12 44 31 hhcurveto
          endchar
        </CharString>
        <CharString name="emcy">
          105 21 -21 486 14 hstem
          42 98 190 102 vstem
          432 500 rmoveto
          -110 hlineto
          -11 -2 -4 -10 -5 hvcurveto
          -49 -166 -11 -38 -6 -28 1 -6 rlinecurve
          -2 6 -7 28 -12 37 -55 181 rcurveline
          -104 hlineto
          -17 0 -14 0 hvcurveto
          -486 vlineto
          89 9 1 13 hvcurveto
          158 vlineto
          1 22 0 20 18 vvcurveto
          52 -2 41 -3 27 vhcurveto
          2 vlineto
          7 -22 6 -24 6 -22 8 -29 7 -25 4 -12 34 -102 rcurveline
          45 hlineto
          4 2 1 3 3 hvcurveto
          34 98 9 25 26 80 5 28 rlinecurve
          -3 -37 -3 -65 -81 vvcurveto
          -170 vlineto
          98 4 0 14 hvcurveto
          endchar
        </CharString>
        <CharString name="emdash">
          331 234 96 hstem
          6 688 vstem
          674 234 rmoveto
          20 0 30 66 hvcurveto
          -668 hlineto
          -20 0 -30 -66 hvcurveto
          endchar
        </CharString>
        <CharString name="ency">
          14 21 -21 203 95 202 -20 hstem
          42 113 73 113 vstem
          341 500 rmoveto
          -111 -2 0 -20 hvcurveto
          -182 -73 202 vlineto
          -116 3 0 -20 hvcurveto
          -480 vlineto
          115 -2 0 20 hvcurveto
          183 73 -203 vlineto
          116 -3 0 20 hvcurveto
          endchar
        </CharString>
        <CharString name="endash">
          41 234 96 hstem
          30 350 vstem
          360 234 rmoveto
          20 0 30 66 hvcurveto
          -330 hlineto
          -20 0 -30 -66 hvcurveto
          endchar
        </CharString>
        <CharString name="endescendercy">
          37 0 104 99 95 202 -20 hstem
          42 113 73 113 vstem
          391 104 rmoveto
          -50 396 hlineto
          -111 -2 0 -20 hvcurveto
          -182 -73 202 vlineto
          -116 3 0 -20 hvcurveto
          -480 vlineto
          115 -2 0 20 hvcurveto
          183 73 -203 66 vlineto
          4 -59 13 -45 14 -53 rrcurveto
          55 11 4 28 hvcurveto
          endchar
        </CharString>
        <CharString name="eogonek">
          -24 -195 77 108 108 93 87 136 96 hstem
          20 116 80 108 vstem
          196 510 rmoveto
          -93 -83 -42 -242 -186 62 -49 89 -1 hvcurveto
          4 hlineto
          -14 -27 -10 -34 -35 vvcurveto
          -70 41 -19 48 33 23 6 16 10 vhcurveto
          2 5 2 6 8 vvcurveto
          10 -3 18 -7 15 vhcurveto
          -6 -10 -8 -1 -8 hhcurveto
          -18 -7 9 19 39 22 43 29 28 hvcurveto
          10 10 7 10 12 vvcurveto
          23 -3 31 -6 20 vhcurveto
          -17 -35 -35 -11 -36 hhcurveto
          -48 -14 28 65 -4 hvcurveto
          50 1 75 3 49 10 rrcurveto
          10 39 4 55 48 vvcurveto
          116 -48 47 -80 vhcurveto
          -14 -96 rmoveto
          25 9 -11 -64 -16 -1 -24 -4 -12 hvcurveto
          -7 -15 -33 -2 -27 hhcurveto
          93 2 13 43 31 hhcurveto
          endchar
        </CharString>
        <CharString name="equal">
          32 135 95 104 95 hstem
          25 350 vstem
          355 334 rmoveto
          20 0 30 65 hvcurveto
          -330 hlineto
          -20 0 -29 -66 hvcurveto
          330 -199 rmoveto
          20 0 29 66 hvcurveto
          -330 hlineto
          -20 0 -30 -65 hvcurveto
          endchar
        </CharString>
        <CharString name="ercy">
          -6 -176 -21 208 -21 425 95 hstem
          33 111 74 124 vstem
          33 -148 rmoveto
          -39 15 -10 39 18 23 3 6 16 vhcurveto
          197 vlineto
          -13 16 21 -6 30 hhcurveto
          72 59 49 268 164 -66 39 -95 -53 -56 -15 -24 -39 hvcurveto
          111 -68 rmoveto
          7 9 11 5 11 hhcurveto
          30 13 -18 -97 -191 -23 -21 -22 -11 -8 5 14 -10 hvcurveto
          endchar
        </CharString>
        <CharString name="ereversedcy">
          -74 -15 98 119 95 121 97 hstem
          156 118 vstem
          70 297 rmoveto
          -22 -1 -10 -85 hvcurveto
          109 hlineto
          -90 -4 -17 -29 -38 hhcurveto
          -22 -43 9 8 -14 hvcurveto
          -6 -21 -3 -26 -13 vvcurveto
          -33 43 -22 65 108 49 60 196 245 -77 29 -95 -45 -43 -6 -49 -13 3 -21 6 -21 vhcurveto
          7 16 24 6 29 hhcurveto
          30 30 -7 -114 5 hvcurveto
          endchar
        </CharString>
        <CharString name="escy">
          -77 -10 98 325 97 hstem
          20 116 vstem
          281 459 rmoveto
          32 -34 19 -49 -83 -95 -31 -240 -207 46 -42 102 64 45 21 33 17 -3 17 -6 24 vhcurveto
          -8 -16 -27 -6 -21 hhcurveto
          -53 -15 37 116 153 36 19 36 21 26 -6 -7 16 hvcurveto
          8 23 2 21 15 vvcurveto
          endchar
        </CharString>
        <CharString name="estimated">
          440 18 18 276 16 275 18 hstem
          70 122 426 122 vstem
          740 312 rmoveto
          7 vlineto
          167 -150 135 -185 -185 -150 -135 -167 -166 150 -135 185 107 98 47 70 60 vhcurveto
          -49 hlineto
          -60 -51 -78 -39 -86 hhcurveto
          -81 -74 34 55 -51 hvcurveto
          -4 5 -4 6 8 vvcurveto
          164 vlineto
          3 2 1 3 vhcurveto
          421 21 rmoveto
          -3 -2 -2 -3 vhcurveto
          -416 hlineto
          -3 -2 2 3 hvcurveto
          162 vlineto
          8 4 7 5 5 vhcurveto
          54 52 72 34 81 hhcurveto
          79 72 -33 -52 52 hvcurveto
          5 -5 4 -7 -8 vvcurveto
          endchar
        </CharString>
        <CharString name="eth">
          17 -10 91 331 98 235 -20 hstem
          20 114 118 113 vstem
          328 625 rmoveto
          7 2 3 5 8 vvcurveto
          15 -10 26 -16 39 vhcurveto
          -59 -23 -9 11 -10 11 -10 9 rlinecurve
          12 -10 -15 5 -15 hhcurveto
          -31 -33 -20 -30 -18 hvcurveto
          14 -13 14 -14 12 -13 -49 -19 rcurveline
          -7 -3 -3 -5 -8 vvcurveto
          -16 10 -25 16 -39 vhcurveto
          91 35 12 -24 11 -27 8 -31 rlinecurve
          11 -16 -20 6 -27 hhcurveto
          -86 -62 -90 -162 -202 55 -66 123 140 27 134 165 139 -21 107 -39 81 hvcurveto
          -110 -535 rmoveto
          -40 -21 50 106 83 16 92 50 19 15 -7 -20 15 hvcurveto
          2 -32 1 -35 -40 vvcurveto
          -116 -4 -81 -53 vhcurveto
          endchar
        </CharString>
        <CharString name="euro">
          32 -9 108 85 92 48 92 90 101 hstem
          92 119 vstem
          275 184 rmoveto
          36 5 26 66 hvcurveto
          -105 9 hlineto
          14 1 13 12 vvcurveto
          91 hlineto
          36 5 26 66 hvcurveto
          -118 hlineto
          74 22 40 16 29 hhcurveto
          21 26 -7 -8 11 hvcurveto
          10 15 6 28 30 vvcurveto
          18 -18 25 -84 -71 -84 -32 -159 -30 vhcurveto
          -53 hlineto
          -36 -5 -26 -66 hvcurveto
          83 hlineto
          -14 -1 -16 -16 vvcurveto
          -2 -41 vlineto
          -36 -5 -26 -66 hvcurveto
          86 hlineto
          -160 14 56 -33 96 hhcurveto
          70 45 28 25 31 -7 23 -7 14 hvcurveto
          -9 -19 -27 -4 -32 hhcurveto
          -41 -20 14 71 -9 hvcurveto
          endchar
        </CharString>
        <CharString name="exclam">
          -167 -8 143 571 -20 hstem
          30 141 vstem
          47 240 rmoveto
          88 20 2 50 3 hvcurveto
          25 414 rlineto
          -136 -21 -2 -31 1 hvcurveto
          3 -610 rmoveto
          -45 16 -26 55 45 25 32 39 43 -17 29 -53 -45 -26 -34 -38 vhcurveto
          endchar
        </CharString>
        <CharString name="exclamdown">
          -167 -176 -21 561 143 hstem
          37 141 vstem
          178 436 rmoveto
          45 -16 26 -54 -45 -26 -32 -39 -43 17 -29 54 45 25 34 38 vhcurveto
          -16 -171 rmoveto
          -87 -21 -2 -50 -3 hvcurveto
          -24 -410 rlineto
          136 21 2 31 -1 hvcurveto
          endchar
        </CharString>
        <CharString name="f">
          -107 21 -21 408 92 139 99 hstem
          70 111 vstem
          70 408 rmoveto
          -408 91 vlineto
          20 0 20 0 hvcurveto
          388 52 vlineto
          19 2 6 86 hvcurveto
          -73 69 hlineto
          57 34 13 50 17 26 -1 -12 25 vhcurveto
          7 19 4 24 17 vvcurveto
          35 -38 17 -62 -81 -93 -26 -155 vhcurveto
          -57 -33 vlineto
          -27 0 -6 -86 hvcurveto
          endchar
        </CharString>
        <CharString name="f.ss02">
          -112 21 -21 408 92 147 93 hstem
          65 111 vstem
          65 408 rmoveto
          -408 92 vlineto
          19 0 20 0 hvcurveto
          388 52 vlineto
          19 2 6 86 hvcurveto
          -73 99 hlineto
          34 10 14 28 11 15 -3 -6 14 vhcurveto
          7 19 4 24 13 vvcurveto
          29 -15 17 -65 -68 -52 -28 -103 vhcurveto
          -109 -33 vlineto
          -27 0 -6 -86 hvcurveto
          endchar
        </CharString>
        <CharString name="f_f">
          81 21 -21 408 92 139 99 hstem
          70 111 80 111 vstem
          70 500 rmoveto
          -33 hlineto
          -27 0 -6 -86 hvcurveto
          60 -408 91 hlineto
          20 0 20 0 hvcurveto
          388 80 -408 91 vlineto
          20 0 20 0 hvcurveto
          388 51 vlineto
          19 2 6 86 hvcurveto
          -72 69 hlineto
          57 33 13 50 17 26 -1 -12 25 vhcurveto
          7 19 4 23 10 vvcurveto
          43 -27 17 -72 -38 -41 -6 -22 -32 vhcurveto
          14 -26 -33 10 -37 hhcurveto
          -64 -94 -22 -148 hvcurveto
          191 -64 rmoveto
          -33 hlineto
          -47 79 hlineto
          57 34 5 18 16 12 -3 -3 10 vhcurveto
          -7 -21 -3 -26 -31 vvcurveto
          endchar
        </CharString>
        <CharString name="f_f_i">
          225 21 -21 408 92 139 99 hstem
          65 111 80 111 82 113 vstem
          65 500 rmoveto
          -33 hlineto
          -27 0 -6 -86 hvcurveto
          60 -408 92 hlineto
          19 0 20 0 hvcurveto
          388 80 -408 91 vlineto
          20 0 20 0 hvcurveto
          388 32 vlineto
          18 2 6 86 hvcurveto
          -52 61 hlineto
          68 33 10 53 40 46 -11 -17 29 vhcurveto
          7 19 4 29 16 vvcurveto
          43 -45 20 -86 -45 -46 -6 -23 -36 vhcurveto
          15 -26 -34 10 -38 hhcurveto
          -64 -94 -22 -148 hvcurveto
          191 -64 rmoveto
          -80 79 hlineto
          57 34 5 18 16 12 -3 -3 11 vhcurveto
          -7 -22 -4 -25 -31 vvcurveto
          193 -557 rmoveto
          112 1 0 20 hvcurveto
          480 vlineto
          -91 -22 0 -49 hvcurveto
          endchar
        </CharString>
        <CharString name="f_f_l">
          236 21 -21 408 92 210 -20 hstem
          65 111 80 111 94 111 vstem
          572 698 rmoveto
          18 -29 -51 23 -70 hhcurveto
          -31 -39 -6 -23 -32 hvcurveto
          14 -27 -32 10 -38 hhcurveto
          -64 -94 -22 -148 hvcurveto
          -64 -33 vlineto
          -27 0 -6 -86 hvcurveto
          60 -408 92 hlineto
          19 0 20 0 hvcurveto
          388 80 -408 91 vlineto
          20 0 20 0 hvcurveto
          388 31 vlineto
          18 2 6 86 hvcurveto
          -51 73 hlineto
          57 33 10 30 13 10 -2 -2 8 vhcurveto
          -636 vlineto
          111 0 0 20 hvcurveto
          677 -1 vlineto
          -315 -197 rmoveto
          -80 79 hlineto
          57 34 5 18 16 12 -3 -3 11 vhcurveto
          -7 -22 -4 -25 -31 vvcurveto
          endchar
        </CharString>
        <CharString name="fi">
          40 21 -21 408 92 139 99 hstem
          70 111 82 113 vstem
          70 408 rmoveto
          -408 91 vlineto
          20 0 20 0 hvcurveto
          388 32 vlineto
          19 2 6 86 hvcurveto
          -53 61 hlineto
          68 34 10 53 40 46 -11 -17 28 vhcurveto
          7 19 4 29 16 vvcurveto
          43 -45 20 -85 -95 -98 -26 -155 vhcurveto
          -57 -33 vlineto
          -27 0 -6 -86 hvcurveto
          366 92 rmoveto
          -91 -22 0 -49 hvcurveto
          -451 vlineto
          112 1 0 20 hvcurveto
          endchar
        </CharString>
        <CharString name="firsttonechinese">
          -89 568 104 hstem
          -1 282 vstem
          239 568 rmoveto
          26 16 24 33 15 -3 16 -8 16 hvcurveto
          -226 hlineto
          -28 -17 -23 -32 -16 1 -15 7 -18 hvcurveto
          endchar
        </CharString>
        <CharString name="five">
          32 -100 103 293 91 115 98 hstem
          252 119 vstem
          65 600 rmoveto
          -31 -315 rlineto
          7 28 30 4 31 hhcurveto
          108 21 -30 -100 -72 -41 -91 -86 -36 -28 9 20 -21 hvcurveto
          -9 -27 -3 -21 -42 vvcurveto
          -14 29 -28 82 149 83 115 179 174 -105 19 -75 -19 -15 -2 -2 -10 vhcurveto
          12 125 rlineto
          0 108 -6 49 49 6 18 80 vhcurveto
          endchar
        </CharString>
        <CharString name="five.001">
          32 -100 103 293 91 115 98 hstem
          252 119 vstem
          65 600 rmoveto
          -31 -315 rlineto
          7 28 30 4 31 hhcurveto
          108 21 -30 -100 -72 -41 -91 -86 -36 -28 9 20 -21 hvcurveto
          -9 -27 -3 -21 -42 vvcurveto
          -14 29 -28 82 149 83 115 179 174 -105 19 -75 -19 -15 -2 -2 -10 vhcurveto
          12 125 rlineto
          0 108 -6 49 49 6 18 80 vhcurveto
          endchar
        </CharString>
        <CharString name="fl">
          50 21 -21 408 92 149 89 hstem
          70 111 93 111 vstem
          385 696 rmoveto
          23 -35 -56 19 -58 hhcurveto
          -68 -98 -26 -155 hvcurveto
          -57 -33 vlineto
          -27 0 -6 -86 hvcurveto
          60 -408 91 hlineto
          20 0 20 0 hvcurveto
          388 38 vlineto
          19 2 6 86 hvcurveto
          -59 79 hlineto
          57 34 13 29 8 11 -2 -3 11 vhcurveto
          -644 91 vlineto
          20 0 20 0 hvcurveto
          endchar
        </CharString>
        <CharString name="florin">
          87 -197 99 503 95 139 99 hstem
          173 111 vstem
          173 500 rmoveto
          -88 hlineto
          -20 0 -30 -65 hvcurveto
          108 -436 hlineto
          -57 -34 -10 -50 -17 -26 1 12 -25 vhcurveto
          -7 -19 -4 -16 -18 vvcurveto
          -34 12 -25 88 81 93 23 155 vhcurveto
          424 111 vlineto
          20 0 29 66 hvcurveto
          -131 72 hlineto
          57 33 10 50 17 26 -1 -12 25 vhcurveto
          7 19 4 16 18 vvcurveto
          34 -12 25 -88 -80 -93 -23 -155 vhcurveto
          endchar
        </CharString>
        <CharString name="four">
          32 21 -21 103 103 hstem
          215.5 103.5 vstem
          319 592 rmoveto
          8 -12 -22 7 -27 hhcurveto
          -19 -15 -7 -11 -14 hvcurveto
          -49 -38 -145 -306 -36 vvcurveto
          -32 7 -43 31 -31 vhcurveto
          154 -103 hlineto
          110 1 0 32 hvcurveto
          71 30 vlineto
          26 10 36 40 23 -5 9 0 hvcurveto
          0 -28 -5 -33 vhcurveto
          -111 hmoveto
          -97 hlineto
          15 61 61 143 36 44 rrcurveto
          endchar
        </CharString>
        <CharString name="four.dnom">
          11 20 -21 66 97 hstem
          208 96 vstem
          304 170 rmoveto
          245 vlineto
          3 -12 -19 3 -15 hhcurveto
          -34 -33 -6 -39 -34 hvcurveto
          -43 -46 -59 -96 -22 -76 rrcurveto
          -4 -13 -2 -11 -11 vvcurveto
          -21 6 -22 14 -15 vhcurveto
          154 -66 hlineto
          -4 17 15 -2 13 hhcurveto
          39 19 11 21 hvcurveto
          40 21 vlineto
          20 15 20 35 20 -4 17 -5 13 hvcurveto
          -146 -8 rmoveto
          -79 hlineto
          12 47 35 68 38 24 rrcurveto
          endchar
        </CharString>
        <CharString name="four.numr">
          11 354 97 259 -20 hstem
          208 96 vstem
          304 459 rmoveto
          245 vlineto
          3 -12 -19 3 -15 hhcurveto
          -34 -33 -6 -39 -34 hvcurveto
          -43 -46 -59 -96 -22 -76 rrcurveto
          -4 -13 -2 -11 -11 vvcurveto
          -21 6 -22 14 -15 vhcurveto
          154 -66 hlineto
          -4 17 15 -2 13 hhcurveto
          39 19 11 21 hvcurveto
          40 21 vlineto
          20 15 20 35 20 -4 17 -5 13 hvcurveto
          -146 -8 rmoveto
          -79 hlineto
          12 47 35 68 38 24 rrcurveto
          endchar
        </CharString>
        <CharString name="foursuperior">
          12 354 97 259 -20 hstem
          208 96 vstem
          304 459 rmoveto
          245 vlineto
          3 -12 -19 3 -15 hhcurveto
          -34 -33 -6 -39 -34 hvcurveto
          -43 -46 -58 -96 -23 -76 rrcurveto
          -4 -13 -2 -11 -11 vvcurveto
          -21 6 -22 14 -15 vhcurveto
          154 -66 hlineto
          -4 17 16 -2 12 hhcurveto
          39 19 11 21 hvcurveto
          40 22 vlineto
          19 15 20 35 20 -4 17 -5 13 hvcurveto
          -146 -8 rmoveto
          -79 hlineto
          12 47 36 68 37 24 rrcurveto
          endchar
        </CharString>
        <CharString name="fraction">
          -174 11 -21 720 -20 hstem
          -76 379 vstem
          303 673 rmoveto
          26 -25 -29 11 -23 hhcurveto
          -24 -10 -13 -14 -4 hvcurveto
          -264 -656 rlineto
          -24 25 34 -13 21 hhcurveto
          19 10 11 10 3 hvcurveto
          endchar
        </CharString>
        <CharString name="g">
          13 -196 101 249 82 170 95 hstem
          27 118 88 112 vstem
          246 501 rmoveto
          6 -17 -18 3 -15 hhcurveto
          -104 -65 -44 -142 -63 17 -53 43 -29 hvcurveto
          -44 -36 -19 -30 -30 vvcurveto
          -26 20 -18 34 -10 vhcurveto
          -41 -28 -27 -39 -46 vvcurveto
          -51 25 -61 137 135 55 80 97 79 -47 31 -85 14 vhcurveto
          -14 3 -14 1 -12 1 rrcurveto
          -28 3 -19 2 12 vvcurveto
          8 7 11 7 9 vhcurveto
          -1 8 9 0 9 hhcurveto
          116 46 55 108 40 -9 29 -15 23 hvcurveto
          -2 8 7 -1 6 hhcurveto
          20 15 12 29 24 -6 18 -6 12 hvcurveto
          -177 -265 rmoveto
          -33 -10 22 71 79 19 24 27 31 11 -22 -63 -91 -14 -20 -31 hvcurveto
          61 -270 rmoveto
          -25 -15 -36 -50 -46 -13 14 26 28 17 27 22 18 vhcurveto
          78 -8 7 -13 -31 vvcurveto
          endchar
        </CharString>
        <CharString name="g.ss01">
          2 -200 104 87 98 334 90 hstem
          28 125 76 108 vstem
          337 486 rmoveto
          16 -28 -40 11 -34 hhcurveto
          -116 -91 -62 -220 -172 27 -68 92 42 26 16 16 11 hvcurveto
          -54 vlineto
          -51 -38 -14 -22 -45 -30 11 21 -34 vhcurveto
          -15 -23 -7 -22 -22 vvcurveto
          -37 46 -32 83 105 68 49 106 vhcurveto
          -108 208 rmoveto
          -53 -16 -21 -24 -25 -11 39 120 132 17 43 34 7 8 -1 -6 10 vhcurveto
          endchar
        </CharString>
        <CharString name="gbreve">
          13 -196 101 249 82 170 95 41 106 hstem
          27 118 88 112 vstem
          246 501 rmoveto
          6 -17 -18 3 -15 hhcurveto
          -104 -65 -44 -142 -63 17 -53 43 -29 hvcurveto
          -43 -35 -19 -29 -1 -29 -1 -28 20 -18 35 -11 rrcurveto
          -41 -28 -27 -39 -46 vvcurveto
          -51 25 -61 137 135 55 80 97 79 -47 31 -85 14 vhcurveto
          -48 8 -39 -2 16 vvcurveto
          8 7 11 7 9 vhcurveto
          -1 8 9 0 9 hhcurveto
          116 46 55 108 40 -9 29 -15 23 hvcurveto
          -2 8 7 -1 6 hhcurveto
          20 15 12 29 24 -6 18 -6 12 hvcurveto
          -177 -265 rmoveto
          -33 -10 22 71 79 19 24 27 31 11 -22 -63 -91 -14 -20 -31 hvcurveto
          61 -270 rmoveto
          -25 -15 -36 -50 -46 -13 14 26 28 17 27 22 18 vhcurveto
          78 -8 7 -13 -31 vvcurveto
          -64 576 rmoveto
          74 45 46 67 25 hvcurveto
          -7 36 -45 43 -20 -32 rrcurveto
          -24 -14 -17 -30 -40 hhcurveto
          -39 -26 41 28 -11 hvcurveto
          -42 -17 -14 -18 -28 vvcurveto
          -55 68 -57 63 vhcurveto
          endchar
        </CharString>
        <CharString name="gcommaaccent">
          13 -196 101 249 82 170 95 244 -20 hstem
          27 118 88 112 vstem
          246 501 rmoveto
          6 -17 -18 3 -15 hhcurveto
          -104 -65 -44 -142 -63 17 -53 43 -29 hvcurveto
          -44 -36 -19 -30 -30 vvcurveto
          -26 20 -18 34 -10 vhcurveto
          -41 -28 -27 -39 -46 vvcurveto
          -51 25 -61 137 135 55 80 97 79 -47 31 -85 14 vhcurveto
          -14 3 -14 1 -12 1 rrcurveto
          -28 3 -19 2 12 vvcurveto
          8 7 11 7 9 vhcurveto
          -1 8 9 0 9 hhcurveto
          116 46 55 108 40 -9 29 -15 23 hvcurveto
          -2 8 7 -1 6 hhcurveto
          20 15 12 29 24 -6 18 -6 12 hvcurveto
          -177 -265 rmoveto
          -33 -10 22 71 79 19 24 27 31 11 -22 -63 -91 -14 -20 -31 hvcurveto
          61 -270 rmoveto
          -25 -15 -36 -50 -46 -13 14 26 28 17 27 22 18 vhcurveto
          78 -8 7 -13 -31 vvcurveto
          -64 562 rmoveto
          35 26 27 34 26 -6 19 -21 12 hvcurveto
          4 25 0 10 22 37 rrcurveto
          22 -6 -15 5 -19 hhcurveto
          -20 -67 -69 -79 -45 23 -24 44 hvcurveto
          endchar
        </CharString>
        <CharString name="gecy">
          -82 21 -21 408 92 hstem
          42 111 vstem
          42 hmoveto
          111 0 0 22 hvcurveto
          386 94 vlineto
          29 1 8 84 hvcurveto
          -200 hlineto
          -25 -10 -3 -25 hvcurveto
          endchar
        </CharString>
        <CharString name="germandbls">
          89 -9 99 512 103 hstem
          36 116 vstem
          36 97 rmoveto
          1 -7 0 -7 -7 vvcurveto
          -46 -11 -26 0 vhcurveto
          0 18 -14 43 55 10 21 52 vhcurveto
          426 vlineto
          11 -1 10 10 vvcurveto
          56 12 26 45 52 29 -16 -27 -22 -16 -15 -19 -17 vhcurveto
          -25 -23 -29 -26 -51 vvcurveto
          -55 36 -46 33 -43 vhcurveto
          31 -40 29 -38 -42 vvcurveto
          -32 -16 -19 -35 -39 -26 22 0 vhcurveto
          -13 -15 -14 -19 -39 vvcurveto
          -24 37 -24 84 94 54 62 88 89 -50 61 -38 46 vhcurveto
          -24 29 -20 23 22 vvcurveto
          28 18 15 19 15 vhcurveto
          23 20 26 21 49 vvcurveto
          80 -60 66 -147 -101 -65 -50 -105 vhcurveto
          endchar
        </CharString>
        <CharString name="germandbls.ss05">
          102 13 -21 416 92 140 95 hstem
          31 112 192 121 vstem
          417 409 rmoveto
          13 33 2 23 15 vvcurveto
          14 -2 6 0 vhcurveto
          -287 27 hlineto
          78 8 35 59 33 22 -4 -29 38 vhcurveto
          0 28 46 26 23 -51 33 -67 -121 -61 -42 -105 hvcurveto
          -500 vlineto
          -39 -8 -43 0 vhcurveto
          0 12 -14 43 49 16 23 68 vhcurveto
          325 155 vlineto
          -86 -211 33 -2 23 -7 20 -9 rlinecurve
          29 -15 18 -26 -52 vvcurveto
          -76 -46 -37 -40 -28 -22 9 17 -18 vhcurveto
          -17 -28 -9 -31 -21 vvcurveto
          -22 26 -30 79 132 64 106 121 66 -16 65 -80 34 vhcurveto
          endchar
        </CharString>
        <CharString name="gheupturncy">
          -92 21 -21 408 92 hstem
          42 111 vstem
          77 500 rmoveto
          -25 -10 -3 -25 hvcurveto
          -472 vlineto
          111 0 0 22 hvcurveto
          386 94 vlineto
          29 1 8 84 hvcurveto
          86 vlineto
          38 -10 5 -56 vhcurveto
          -14 -43 -12 -59 -4 -27 rrcurveto
          endchar
        </CharString>
        <CharString name="gjecy">
          -82 21 -21 408 92 hstem
          42 111 vstem
          108 549 rmoveto
          12 1 103 68 24 28 rrcurveto
          37 -6 -19 45 -25 hhcurveto
          -12 -85 -71 -47 -34 hvcurveto
          0 14 -61 28 vhcurveto
          -66 -549 rmoveto
          111 0 0 22 hvcurveto
          386 94 vlineto
          29 1 8 84 hvcurveto
          -200 hlineto
          -25 -10 -3 -25 hvcurveto
          endchar
        </CharString>
        <CharString name="grave">
          -89 539 179 hstem
          49 182 vstem
          100 718 rmoveto
          -25 -20 -45 -36 -6 hvcurveto
          25 -29 102 -68 12 -1 rrcurveto
          29 14 61 0 hvcurveto
          47 -35 -85 71 -11 hhcurveto
          endchar
        </CharString>
        <CharString name="greater">
          31 64 362 hstem
          38 335 vstem
          229 252 rmoveto
          -171 -82 rlineto
          -13 -6 -5 -12 -15 vvcurveto
          1 -22 15 -29 23 -22 258 125 rcurveline
          25 12 11 23 24 vvcurveto
          22 -7 24 -11 19 vhcurveto
          -236 105 rlineto
          5 -13 -11 3 -7 hhcurveto
          -23 -25 -42 -43 -2 hvcurveto
          endchar
        </CharString>
        <CharString name="greaterequal">
          36 0 95 hstem
          35 335 vstem
          226 317 rmoveto
          -171 -83 rlineto
          -13 -6 -5 -12 -15 vvcurveto
          1 -21 15 -30 23 -22 258 125 rcurveline
          25 12 11 23 25 vvcurveto
          21 -7 24 -11 19 vhcurveto
          -236 105 rlineto
          5 -13 -11 3 -7 hhcurveto
          -23 -25 -41 -44 -2 hvcurveto
          314 -405 rmoveto
          20 0 30 65 hvcurveto
          -310 hlineto
          -20 0 -29 -66 hvcurveto
          endchar
        </CharString>
        <CharString name="guillemotleft">
          45 21 -21 500 -20 hstem
          6 388 vstem
          6 250 rmoveto
          -46 143 -204 0 42 24 62 0 53 -106 135 0 0 105 143 51 0 -23 56 -43 0 -142 -206 -44 vhcurveto
          184 1 rmoveto
          -43 139 -181 0 41 24 58 0 50 -100 116 0 0 99 125 48 0 -23 52 -41 0 -139 -183 -42 vhcurveto
          endchar
        </CharString>
        <CharString name="guillemotright">
          45 21 -21 hstem
          20 388 vstem
          408 250 rmoveto
          44 -142 206 0 0 -66 -18 -38 -51 105 -143 0 0 -106 -135 -53 -44 66 -18 0 0 143 204 46 vhcurveto
          -186 hmoveto
          44 -142 186 0 0 -59 -18 -38 -34 48 -67 29 -40 vhcurveto
          -20 14 10 -13 -3 hhcurveto
          0 -99 -112 -53 -44 60 -18 0 0 142 181 46 hvcurveto
          endchar
        </CharString>
        <CharString name="guilsinglleft">
          -134 21 -21 500 -20 hstem
          6 209 vstem
          6 250 rmoveto
          -46 143 -204 0 42 24 62 0 53 -106 135 0 0 105 143 51 0 -23 56 -43 0 -142 -206 -44 vhcurveto
          endchar
        </CharString>
        <CharString name="guilsinglright">
          -134 21 -21 hstem
          20 209 vstem
          229 250 rmoveto
          44 -142 206 0 0 -66 -18 -38 -51 105 -143 0 0 -106 -135 -53 -44 67 -18 0 0 142 204 46 vhcurveto
          endchar
        </CharString>
        <CharString name="h">
          -7 21 -21 510 -20 245 -20 hstem
          33 111 73 115 vstem
          33 hmoveto
          111 0 0 20 hvcurveto
          375 vlineto
          10 15 13 3 13 hhcurveto
          30 2 -31 -31 hvcurveto
          -346 vlineto
          108 7 0 20 hvcurveto
          361 vlineto
          85 -15 44 -77 -33 -39 -12 -23 -24 vhcurveto
          260 vlineto
          -91 -20 0 -49 hvcurveto
          endchar
        </CharString>
        <CharString name="hacy">
          11 21 -21 500 -20 hstem
          7 365 vstem
          259 267 rmoveto
          111 233 rlineto
          -112 -1 0 -19 -8 hvcurveto
          -15 -36 -13 -33 -15 -46 -8 -27 rlinecurve
          -9 27 -15 47 -12 32 -23 55 rcurveline
          -125 0 0 -18 8 hvcurveto
          103 -223 -118 -259 rlineto
          101 14 0 21 8 hvcurveto
          11 28 13 33 15 49 11 35 rlinecurve
          12 -35 17 -50 14 -32 21 -49 rcurveline
          134 1 -1 25 -11 hvcurveto
          endchar
        </CharString>
        <CharString name="hardsigncy">
          41 0 88 145 83 90 94 hstem
          97 106 67 125 vstem
          203 316 rmoveto
          184 -174 vlineto
          -21 0 -7 -87 hvcurveto
          89 -406 107 hlineto
          112 3 79 34 140 vvcurveto
          110 -54 29 -105 vhcurveto
          -33 -85 rmoveto
          0 7 2 14 30 16 -4 -57 -61 -18 -23 -29 -14 -6 1 0 vhcurveto
          endchar
        </CharString>
        <CharString name="hungarumlaut">
          -89 539 181 hstem
          -9 297 vstem
          78 720 rmoveto
          -11 -4 -57 -82 -19 -48 rrcurveto
          0 31 -54 29 7 vhcurveto
          9 4 74 82 15 31 -16 32 -31 38 -24 -6 rrcurveto
          140 hmoveto
          -12 -4 -56 -82 -18 -48 rrcurveto
          0 30 -54 28 7 vhcurveto
          10 4 74 82 14 31 -15 32 -31 38 -24 -6 rrcurveto
          endchar
        </CharString>
        <CharString name="hyphen">
          -105 234 96 hstem
          30 204 vstem
          214 234 rmoveto
          20 0 30 66 hvcurveto
          -184 hlineto
          -20 0 -30 -66 hvcurveto
          endchar
        </CharString>
        <CharString name="i">
          -189 21 -21 500 -20 224 -20 hstem
          33 113 vstem
          33 626 rmoveto
          -62 21 -18 33 39 20 32 53 vhcurveto
          54 1 -12 19 -41 hhcurveto
          -42 -19 -32 -46 hvcurveto
          113 -126 rmoveto
          -91 -22 0 -49 hvcurveto
          -451 vlineto
          112 1 0 20 hvcurveto
          endchar
        </CharString>
        <CharString name="iacute">
          -189 21 -21 500 -20 hstem
          33 113 vstem
          52 549 rmoveto
          11 1 103 68 25 28 rrcurveto
          37 -6 -20 45 -25 hhcurveto
          -12 -85 -71 -47 -34 hvcurveto
          0 14 -61 29 vhcurveto
          94 -49 rmoveto
          -91 -22 0 -49 hvcurveto
          -451 vlineto
          112 1 0 20 hvcurveto
          endchar
        </CharString>
        <CharString name="iacy">
          -1 21 -21 189 91 129 91 hstem
          216 110 vstem
          215 500 rmoveto
          -124 -69 -40 -104 -82 43 -46 38 -19 hvcurveto
          -42 -22 -18 -23 -6 -43 -19 -122 rcurveline
          -2 24 22 -2 23 hhcurveto
          44 3 4 18 2 hvcurveto
          13 92 rlineto
          53 7 13 27 27 hhcurveto
          20 -172 hlineto
          -17 3 0 107 vhcurveto
          482 vlineto
          0 0 18 -19 vhcurveto
          -91 -217 rmoveto
          -2 -8 -8 -1 -8 hhcurveto
          -23 -26 9 64 46 14 10 34 9 8 -1 -2 8 hvcurveto
          endchar
        </CharString>
        <CharString name="icircumflex">
          -189 21 -21 500 -20 223 14 hstem
          33 113 vstem
          -44 580 rmoveto
          -21 17 24 -8 35 hhcurveto
          23 39 68 0 hvcurveto
          20 -38 33 -31 0 vvcurveto
          38 39 5 22 26 -98 100 0 hvcurveto
          10 -9 -12 4 -10 hhcurveto
          -8 -7 -1 -2 -7 hvcurveto
          73 -214 rmoveto
          -91 -22 0 -49 hvcurveto
          -451 vlineto
          112 1 0 20 hvcurveto
          endchar
        </CharString>
        <CharString name="icy">
          -189 21 -21 500 -20 224 -20 hstem
          33 113 vstem
          33 626 rmoveto
          -62 21 -18 33 39 20 32 53 vhcurveto
          54 1 -12 19 -41 hhcurveto
          -42 -19 -32 -46 hvcurveto
          113 -126 rmoveto
          -91 -22 0 -49 hvcurveto
          -451 vlineto
          112 1 0 20 hvcurveto
          endchar
        </CharString>
        <CharString name="idieresis">
          -189 21 -21 500 -20 70 150 hstem
          33 113 vstem
          29 700 rmoveto
          -40 -17 -30 -44 -1 hvcurveto
          -59 20 -17 31 38 20 29 52 51 -12 18 -39 vhcurveto
          130 hmoveto
          -40 -19 -30 -44 -59 20 -17 32 37 19 29 52 51 -11 18 -38 hvcurveto
          -13 -200 rmoveto
          -91 -22 0 -49 hvcurveto
          -451 vlineto
          112 1 0 20 hvcurveto
          endchar
        </CharString>
        <CharString name="iecy">
          -24 -10 108 93 87 136 96 hstem
          20 116 80 108 vstem
          202 98 rmoveto
          -48 -14 28 65 -4 hvcurveto
          50 1 75 3 49 10 rrcurveto
          10 39 4 55 48 vvcurveto
          116 -48 47 -80 -93 -83 -42 -242 -190 64 -46 91 78 64 22 40 23 -3 31 -6 20 vhcurveto
          -17 -35 -35 -11 -36 hhcurveto
          -20 316 rmoveto
          25 9 -11 -64 -16 -1 -24 -4 -12 hvcurveto
          -7 -15 -32 -2 -28 hhcurveto
          92 3 12 44 31 hhcurveto
          endchar
        </CharString>
        <CharString name="iegravecy">
          -24 -10 108 93 87 136 96 hstem
          20 116 80 108 vstem
          230 539 rmoveto
          29 14 61 0 hvcurveto
          47 -34 -85 71 -12 hhcurveto
          -25 -20 -45 -36 -6 hvcurveto
          25 -29 103 -68 11 -1 rrcurveto
          -28 -441 rmoveto
          -48 -14 28 65 -4 hvcurveto
          50 1 75 3 49 10 rrcurveto
          10 39 4 55 48 vvcurveto
          116 -48 47 -80 -93 -83 -42 -242 -190 64 -46 91 78 64 22 40 23 -3 31 -6 20 vhcurveto
          -17 -35 -35 -11 -36 hhcurveto
          -20 316 rmoveto
          25 9 -11 -64 -16 -1 -24 -4 -12 hvcurveto
          -7 -15 -32 -2 -28 hhcurveto
          92 3 12 44 31 hhcurveto
          endchar
        </CharString>
        <CharString name="igrave">
          -189 21 -21 500 -20 hstem
          33 113 vstem
          60 718 rmoveto
          -25 -20 -45 -36 -6 hvcurveto
          25 -29 102 -68 12 -1 rrcurveto
          29 14 61 0 hvcurveto
          47 -35 -85 71 -11 hhcurveto
          86 -218 rmoveto
          -91 -22 0 -49 hvcurveto
          -451 vlineto
          112 1 0 20 hvcurveto
          endchar
        </CharString>
        <CharString name="iicy">
          26 21 -21 500 -20 hstem
          42 103 104 103 vstem
          182 309 rmoveto
          -8 -17 -34 -88 -13 -39 1 14 3 19 3 19 rrcurveto
          5 37 6 40 21 vvcurveto
          185 vlineto
          -94 -9 0 -20 hvcurveto
          -480 vlineto
          80 4 0 26 12 hvcurveto
          75 169 7 15 40 105 9 33 rlinecurve
          -1 -20 -5 -31 -4 -29 rrcurveto
          -5 -32 -5 -31 -15 vvcurveto
          -190 vlineto
          103 0 1 19 hvcurveto
          480 vlineto
          -81 -4 0 -26 -12 hvcurveto
          endchar
        </CharString>
        <CharString name="iigravecy">
          26 21 -21 500 -20 hstem
          42 103 104 103 vstem
          167 718 rmoveto
          -25 -20 -45 -36 -6 hvcurveto
          25 -29 103 -68 11 -1 rrcurveto
          29 14 61 0 hvcurveto
          47 -34 -85 71 -12 hhcurveto
          15 -409 rmoveto
          -8 -17 -34 -88 -13 -39 rrcurveto
          5 42 13 76 32 vvcurveto
          185 vlineto
          -94 -9 0 -20 hvcurveto
          -480 vlineto
          80 4 0 26 12 hvcurveto
          75 169 7 15 40 105 9 33 rlinecurve
          -3 -43 -17 -87 -28 vvcurveto
          -190 vlineto
          103 0 1 19 hvcurveto
          480 vlineto
          -81 -4 0 -26 -12 hvcurveto
          endchar
        </CharString>
        <CharString name="iishortcy">
          26 21 -21 500 -20 79 74 hstem
          42 103 104 103 vstem
          119 717 rmoveto
          -48 -14 -17 -19 -28 vvcurveto
          -53 5 53 -44 74 hhcurveto
          87 32 40 62 28 hvcurveto
          -9 32 -60 35 -7 -24 rrcurveto
          -44 -13 -12 -27 -42 hhcurveto
          -43 -14 25 59 -14 hvcurveto
          63 -408 rmoveto
          -8 -17 -34 -88 -13 -39 rrcurveto
          5 42 13 76 32 vvcurveto
          185 vlineto
          -94 -9 0 -20 hvcurveto
          -480 vlineto
          80 4 0 26 12 hvcurveto
          75 169 7 15 40 105 9 33 rlinecurve
          -3 -43 -17 -87 -28 vvcurveto
          -190 vlineto
          103 0 1 19 hvcurveto
          480 vlineto
          -81 -4 0 -26 -12 hvcurveto
          endchar
        </CharString>
        <CharString name="ij">
          -2 -197 101 117 -21 500 -20 66 158 hstem
          33 113 75 111 vstem
          33 626 rmoveto
          -62 21 -18 33 39 20 32 53 vhcurveto
          54 1 -12 19 -41 hhcurveto
          -42 -19 -32 -46 hvcurveto
          113 -126 rmoveto
          -91 -22 0 -49 hvcurveto
          -451 vlineto
          112 1 0 20 hvcurveto
          71 606 rmoveto
          -62 21 -18 33 39 20 32 53 54 -12 19 -40 -42 -19 -32 -46 vhcurveto
          115 -126 rmoveto
          -90 -21 0 -49 hvcurveto
          -472 vlineto
          -58 -8 -17 -36 -26 -24 3 10 -23 vhcurveto
          -11 -14 -4 -20 -20 vvcurveto
          -41 28 -19 77 112 26 77 84 vhcurveto
          endchar
        </CharString>
        <CharString name="imacron">
          -189 21 -21 500 -20 88 104 hstem
          33 113 vstem
          189 568 rmoveto
          26 16 24 33 15 -3 16 -8 16 hvcurveto
          -226 hlineto
          -28 -17 -23 -32 -16 1 -15 7 -18 hvcurveto
          189 -68 rmoveto
          -91 -22 0 -49 hvcurveto
          -451 vlineto
          112 1 0 20 hvcurveto
          endchar
        </CharString>
        <CharString name="increment">
          68 0 102 600 -20 hstem
          2 432 vstem
          2 4 rmoveto
          -3 26 30 -1 14 hhcurveto
          312 hlineto
          45 8 7 13 -3 hvcurveto
          -167 678 rlineto
          3 -14 -20 1 -19 hhcurveto
          -26 -16 -6 -15 -3 hvcurveto
          130 -579 rmoveto
          -159 hlineto
          53 252 11 54 9 73 7 62 rlinecurve
          6 -62 9 -73 11 -54 rrcurveto
          endchar
        </CharString>
        <CharString name="infinity">
          219 105 102 88 109 hstem
          27 110 314 109 vstem
          427 404 rmoveto
          -56 -39 -34 -40 -32 hvcurveto
          47 -35 -36 27 -65 hhcurveto
          -96 -41 -57 -96 -93 49 -53 86 50 41 31 38 36 hvcurveto
          -47 32 47 -24 55 hhcurveto
          10 9 1 1 9 hvcurveto
          64 9 45 41 99 vvcurveto
          100 -54 50 -79 vhcurveto
          -19 -194 rmoveto
          -25 -14 22 22 -13 hvcurveto
          8 10 7 8 7 8 4 5 4 4 7 4 rrcurveto
          3 6 6 3 10 hhcurveto
          23 13 -17 -27 -28 -16 -17 -27 hvcurveto
          -231 -3 rmoveto
          -28 -12 21 25 21 14 21 30 8 7 -3 -4 7 hvcurveto
          14 -8 13 -15 9 -17 rrcurveto
          -24 -20 -19 -17 -23 hhcurveto
          endchar
        </CharString>
        <CharString name="integral">
          87 -197 99 737 99 hstem
          173 111 vstem
          173 -31 rmoveto
          -57 -34 -10 -50 -17 -26 1 12 -25 vhcurveto
          -7 -19 -4 -16 -18 vvcurveto
          -34 12 -25 88 81 93 23 155 vhcurveto
          591 vlineto
          57 33 10 50 17 26 -1 -12 25 vhcurveto
          7 19 4 16 18 vvcurveto
          34 -12 25 -88 -80 -93 -23 -155 vhcurveto
          endchar
        </CharString>
        <CharString name="iocy">
          -24 -10 108 93 87 136 96 40 150 hstem
          20 116 80 108 vstem
          202 98 rmoveto
          -48 -14 28 65 -4 hvcurveto
          50 1 75 3 49 10 rrcurveto
          10 39 4 55 48 vvcurveto
          116 -48 47 -80 -93 -83 -42 -242 -190 64 -46 91 78 64 22 40 23 -3 31 -6 20 vhcurveto
          -17 -35 -35 -11 -36 hhcurveto
          -20 316 rmoveto
          25 9 -11 -64 -16 -1 -24 -4 -12 hvcurveto
          -7 -15 -32 -2 -28 hhcurveto
          92 3 12 44 31 hhcurveto
          -78 136 rmoveto
          38 20 29 52 51 -12 18 -39 -39 -18 -30 -44 -59 20 -17 30 hvcurveto
          130 hmoveto
          37 20 29 52 51 -11 18 -39 -40 -18 -30 -44 hvcurveto
          -59 -1 20 -17 32 hhcurveto
          endchar
        </CharString>
        <CharString name="iogonek">
          -189 -195 77 618 -20 224 -20 hstem
          33 113 vstem
          33 626 rmoveto
          -62 21 -18 33 39 20 32 53 vhcurveto
          54 1 -12 19 -41 hhcurveto
          -42 -19 -32 -46 hvcurveto
          113 -126 rmoveto
          -111 -2 0 -49 hvcurveto
          -451 vlineto
          -21 -30 -22 -32 -48 vvcurveto
          -66 43 -19 49 37 31 11 30 10 -4 19 -7 14 vhcurveto
          -5 -7 -8 -2 -10 hhcurveto
          -19 -7 9 18 36 30 34 17 18 hvcurveto
          9 9 2 5 9 vvcurveto
          endchar
        </CharString>
        <CharString name="iucy">
          166 -10 89 125 92 125 89 hstem
          42 107 49 117 82 118 vstem
          149 296 rmoveto
          204 vlineto
          -107 0 0 -20 hvcurveto
          -480 vlineto
          109 -2 0 20 hvcurveto
          184 49 vlineto
          -183 7 49 -31 97 hhcurveto
          108 56 73 192 202 -49 53 -107 -94 -57 -65 -149 -10 hvcurveto
          156 -217 rmoveto
          -26 -13 15 158 143 17 26 23 32 10 -23 -146 -154 -21 -19 -22 hvcurveto
          endchar
        </CharString>
        <CharString name="j">
          -182 -197 101 596 -20 224 -20 hstem
          41 111 vstem
          37 626 rmoveto
          -62 21 -18 33 39 21 32 53 54 -12 19 -41 -42 -19 -32 -46 vhcurveto
          115 -126 rmoveto
          -90 -21 0 -49 hvcurveto
          -472 vlineto
          -58 -8 -17 -36 -25 -25 3 10 -22 vhcurveto
          -11 -14 -4 -20 -20 vvcurveto
          -41 27 -19 77 113 25 77 84 vhcurveto
          endchar
        </CharString>
        <CharString name="jecy">
          -182 -197 101 596 -20 224 -20 hstem
          41 111 vstem
          37 626 rmoveto
          -62 21 -18 33 39 21 32 53 54 -12 19 -41 -42 -19 -32 -46 vhcurveto
          115 -126 rmoveto
          -90 -21 0 -49 hvcurveto
          -472 vlineto
          -58 -8 -17 -36 -25 -25 3 10 -22 vhcurveto
          -11 -14 -4 -20 -20 vvcurveto
          -41 27 -19 77 113 25 77 84 vhcurveto
          endchar
        </CharString>
        <CharString name="k">
          -8 21 -21 510 -20 245 -20 hstem
          33 112 79 125 vstem
          33 hmoveto
          113 -1 0 20 hvcurveto
          187 vlineto
          0 15 15 20 34 10 -50 -74 -31 -2 -34 -3 -33 vhcurveto
          124 1 0 17 2 hvcurveto
          2 22 1 23 21 vvcurveto
          82 -20 71 -53 38 vhcurveto
          23 24 36 52 75 vvcurveto
          39 -15 46 -68 -42 -37 -13 -16 -28 vhcurveto
          254 vlineto
          -91 -21 0 -49 hvcurveto
          112 -304 rmoveto
          18 13 14 11 18 hhcurveto
          14 6 -10 -18 -49 -23 -29 -42 -24 hvcurveto
          endchar
        </CharString>
        <CharString name="kacy">
          -8 21 -21 220 98 184 -20 hstem
          42 109 vstem
          204 363 rmoveto
          -33 -6 -16 -12 -21 hhcurveto
          -10 182 hlineto
          -109 0 0 -18 hvcurveto
          -482 vlineto
          109 0 0 18 hvcurveto
          202 5 vlineto
          44 8 -17 -73 5 hvcurveto
          8 -129 rlineto
          -2 26 23 -1 22 hhcurveto
          38 6 4 16 hvcurveto
          -9 122 -6 69 -24 51 -39 20 rlinecurve
          19 11 18 20 10 35 34 132 rcurveline
          1 4 1 3 2 vvcurveto
          12 -13 3 -31 -18 -23 -2 -6 -26 vhcurveto
          endchar
        </CharString>
        <CharString name="kadescendercy">
          12 21 -21 214 106 181 -20 hstem
          42 113 74 153 vstem
          382 104 rmoveto
          -33 hlineto
          -6 82 -19 69 -54 25 51 22 17 88 18 86 rrcurveto
          21 4 -11 4 -39 hhcurveto
          -19 -24 -2 -6 -26 hvcurveto
          -183 -21 -25 10 -29 hhcurveto
          -11 180 hlineto
          -113 0 0 -18 hvcurveto
          -482 vlineto
          113 0 0 18 hvcurveto
          196 8 vlineto
          44 23 15 -228 -1 hvcurveto
          56 -3 4 -58 13 -44 13 -53 rlinecurve
          56 11 4 28 hvcurveto
          endchar
        </CharString>
        <CharString name="kcommaaccent">
          -8 21 -21 510 -20 245 -20 hstem
          33 112 79 125 vstem
          33 hmoveto
          113 -1 0 20 hvcurveto
          187 vlineto
          0 12 11 16 3 vhcurveto
          39 7 12 -49 -77 vvcurveto
          -32 -2 -36 -3 -34 vhcurveto
          124 1 0 17 2 hvcurveto
          2 23 1 23 22 vvcurveto
          -1 81 -20 70 -52 38 rrcurveto
          23 24 36 52 75 vvcurveto
          39 -15 46 -68 -42 -37 -13 -16 -28 vhcurveto
          254 vlineto
          -91 -21 0 -49 hvcurveto
          112 -304 rmoveto
          18 13 14 11 18 hhcurveto
          14 6 -10 -18 -49 -23 -29 -42 -24 hvcurveto
          -29 -383 rmoveto
          -27 6 -20 22 -13 vhcurveto
          -4 -26 0 -10 -23 -39 rrcurveto
          -24 6 16 -5 20 hhcurveto
          21 70 73 83 47 -25 26 -45 -37 -27 -29 -36 hvcurveto
          endchar
        </CharString>
        <CharString name="kjecy">
          -8 21 -21 220 98 184 -20 hstem
          42 109 vstem
          140 549 rmoveto
          12 1 102 68 25 28 rrcurveto
          37 -6 -20 45 -25 hhcurveto
          -11 -85 -71 -47 -35 hvcurveto
          0 14 -61 29 vhcurveto
          64 -186 rmoveto
          -33 -6 -16 -12 -21 hhcurveto
          -10 182 hlineto
          -109 0 0 -18 hvcurveto
          -482 vlineto
          109 0 0 18 hvcurveto
          202 5 vlineto
          44 8 -17 -73 5 hvcurveto
          8 -129 rlineto
          -2 26 23 -1 22 hhcurveto
          38 6 4 16 hvcurveto
          -9 122 -6 69 -24 51 -39 20 rlinecurve
          19 11 18 20 10 35 34 132 rcurveline
          20 6 -10 4 -38 hhcurveto
          -18 -23 -2 -6 -26 hvcurveto
          endchar
        </CharString>
        <CharString name="l">
          -191 21 -21 735 -20 hstem
          33 111 vstem
          144 735 rmoveto
          -90 -21 0 -49 hvcurveto
          -686 vlineto
          111 0 0 20 hvcurveto
          endchar
        </CharString>
        <CharString name="lacute">
          -191 21 -21 735 -20 hstem
          33 111 vstem
          51 784 rmoveto
          11 1 103 68 25 28 rrcurveto
          37 -6 -20 45 -25 hhcurveto
          -12 -85 -71 -47 -34 hvcurveto
          0 14 -61 29 vhcurveto
          93 -49 rmoveto
          -90 -21 0 -49 hvcurveto
          -686 vlineto
          111 0 0 20 hvcurveto
          endchar
        </CharString>
        <CharString name="lcaron">
          -191 21 -21 735 -20 hstem
          33 111 vstem
          144 735 rmoveto
          -90 -21 0 -49 hvcurveto
          -686 vlineto
          111 0 0 20 hvcurveto
          endchar
        </CharString>
        <CharString name="lcommaaccent">
          -191 21 -21 735 -20 hstem
          33 111 vstem
          144 735 rmoveto
          -90 -21 0 -49 hvcurveto
          -686 vlineto
          111 0 0 20 hvcurveto
          -120 -122 rmoveto
          -27 6 -20 22 -13 vhcurveto
          -4 -26 0 -10 -23 -39 rrcurveto
          -24 6 16 -5 19 hhcurveto
          21 71 73 83 47 -25 26 -46 -36 -27 -29 -36 hvcurveto
          endchar
        </CharString>
        <CharString name="ldot">
          -87 21 -21 197 144 394 -20 hstem
          33 111 vstem
          144 735 rmoveto
          -90 -21 0 -49 hvcurveto
          -686 vlineto
          111 0 0 20 hvcurveto
          16 248 rmoveto
          -45 16 -26 54 45 26 32 39 44 -17 29 -54 -44 -26 -34 -39 vhcurveto
          endchar
        </CharString>
        <CharString name="less">
          31 79 361 hstem
          33 335 vstem
          177 252 rmoveto
          170 83 rlineto
          14 6 5 10 15 vvcurveto
          -1 23 -15 30 -24 21 -258 -124 rcurveline
          -24 -12 -11 -23 -25 vvcurveto
          -22 7 -24 11 -18 vhcurveto
          236 -105 rlineto
          -5 13 11 -3 7 hhcurveto
          23 25 40 45 2 hvcurveto
          endchar
        </CharString>
        <CharString name="lessequal">
          36 0 95 hstem
          35 335 vstem
          179 303 rmoveto
          170 82 rlineto
          14 6 5 11 15 vvcurveto
          -1 23 -15 29 -24 21 -258 -124 rcurveline
          -24 -12 -11 -23 -24 vvcurveto
          -22 7 -24 11 -19 vhcurveto
          236 -105 rlineto
          -5 13 11 -3 7 hhcurveto
          23 25 41 44 2 hvcurveto
          -21 -214 rmoveto
          20 0 30 65 hvcurveto
          -312 hlineto
          -20 0 -29 -66 hvcurveto
          endchar
        </CharString>
        <CharString name="literSign">
          -191 21 -21 735 -20 hstem
          33 111 vstem
          144 735 rmoveto
          -90 -21 0 -49 hvcurveto
          -686 vlineto
          111 0 0 20 hvcurveto
          endchar
        </CharString>
        <CharString name="ljecy">
          177 0 88 145 83 92 92 hstem
          88 104 47 113 66 126 vstem
          352 316 rmoveto
          184 -169 vlineto
          -92 -2 -5 -27 -1 hvcurveto
          -298 -16 -6 -87 -72 hhcurveto
          -1 -8 -1 -8 -7 vvcurveto
          -45 24 -20 37 89 35 113 300 15 vhcurveto
          47 -408 97 hlineto
          121 87 31 146 110 -54 29 -105 hvcurveto
          -33 -85 rmoveto
          1 4 7 1 10 hhcurveto
          30 15 -4 -57 -61 -17 -23 -30 hvcurveto
          -13 -3 1 -3 hhcurveto
          endchar
        </CharString>
        <CharString name="logicalnot">
          31 217 105 hstem
          256 104 vstem
          68 322 rmoveto
          -24 -10 -24 -29 -17 3 -18 6 -17 hvcurveto
          213 -81 hlineto
          -24 25 -10 28 16 19 3 6 16 vhcurveto
          211 vlineto
          endchar
        </CharString>
        <CharString name="longs">
          -194 13 -21 651 95 hstem
          31 112 vstem
          31 88 rmoveto
          -39 -8 -43 0 vhcurveto
          0 12 -14 43 49 16 8 44 vhcurveto
          501 vlineto
          60 14 38 53 33 22 -4 -29 38 vhcurveto
          17 20 11 26 20 vvcurveto
          38 -51 24 -67 -121 -61 -45 -105 vhcurveto
          endchar
        </CharString>
        <CharString name="lozenge">
          71 14 -21 713 -20 hstem
          22 397 vstem
          220 -7 rmoveto
          199 356 -199 357 -198 -357 rlineto
          198 138 rmoveto
          77 -138 -77 -136 -77 136 rlineto
          endchar
        </CharString>
        <CharString name="lslash">
          -171 21 -21 502 -20 253 -20 hstem
          43 111 vstem
          154 495 rmoveto
          240 vlineto
          -90 -21 0 -49 hvcurveto
          -216 vlineto
          -29 -6 rlineto
          -9 -3 -4 -7 0 -13 0 -16 5 -25 8 -34 50 flex
          29 6 rlineto
          -372 vlineto
          111 0 0 20 hvcurveto
          377 vlineto
          35 8 rlineto
          8 2 4 6 13 vvcurveto
          16 -6 25 -7 35 vhcurveto
          endchar
        </CharString>
        <CharString name="m">
          162 21 -21 415 95 hstem
          33 111 68 111 68 111 vstem
          33 hmoveto
          108 3 0 20 hvcurveto
          383 vlineto
          7 12 14 5 13 hhcurveto
          24 5 -6 -33 hvcurveto
          -376 21 vlineto
          91 -1 1 18 hvcurveto
          237 vlineto
          2 vlineto
          146 vlineto
          6 11 13 3 14 hhcurveto
          24 6 -10 -32 hvcurveto
          -371 vlineto
          107 4 0 20 hvcurveto
          354 vlineto
          86 -11 50 -102 -39 -44 -10 -16 -35 vhcurveto
          17 -20 -27 9 -37 hhcurveto
          -60 -55 -15 -18 -39 hvcurveto
          endchar
        </CharString>
        <CharString name="macron">
          -89 568 104 hstem
          -1 282 vstem
          239 568 rmoveto
          26 16 24 33 15 -3 16 -8 16 hvcurveto
          -226 hlineto
          -28 -17 -23 -32 -16 1 -15 7 -18 hvcurveto
          endchar
        </CharString>
</ttFont>
